{"glyphs":{"0":{"ha":779,"x_min":0,"x_max":0,"o":"m 464 840 b 225 600 328 840 225 733 b 401 414 225 497 299 414 b 493 456 426 414 493 419 b 463 486 493 474 479 486 b 450 483 458 486 454 486 b 401 475 435 472 411 475 b 288 603 336 475 288 533 b 460 783 288 710 367 783 b 674 497 610 783 674 649 b 364 38 674 289 572 38 b 121 342 179 38 121 194 b 160 540 121 432 144 524 b 163 554 163 543 163 549 b 135 585 163 571 150 585 b 104 568 121 585 111 579 b 58 342 85 535 58 439 b 361 -18 58 118 164 -18 b 735 497 611 -18 735 249 b 464 840 735 703 635 840 z "},"1":{"ha":544,"x_min":0,"x_max":0,"o":"m 339 613 b 442 779 350 707 397 779 b 463 756 454 779 463 768 b 339 613 463 700 421 649 z m 289 -19 b 364 164 329 -19 364 22 b 350 347 364 225 357 288 b 335 522 342 408 335 468 b 336 549 335 529 336 540 b 525 758 464 599 525 674 b 447 838 525 800 496 838 b 276 585 354 838 283 721 b 64 524 211 558 149 539 b 35 497 47 521 35 513 b 61 468 35 479 43 468 b 274 525 103 468 224 501 b 281 414 274 483 278 451 b 303 160 286 347 303 238 b 276 33 303 81 286 46 b 261 1 267 21 261 15 b 289 -19 261 -12 272 -19 z "},"2":{"ha":746,"x_min":0,"x_max":0,"o":"m 69 706 b 142 692 90 707 124 700 b 103 554 115 647 103 603 b 222 410 103 461 158 410 b 339 540 294 410 339 467 b 238 715 339 604 304 674 b 397 782 268 756 336 782 b 589 560 515 782 589 683 b 361 149 589 400 472 232 b 168 225 300 193 238 226 b 18 88 72 224 18 156 b 140 -8 18 25 65 -8 b 360 76 222 -8 294 26 b 599 -44 461 3 529 -44 b 753 97 700 -44 753 15 b 688 206 753 150 717 206 b 667 197 681 206 672 203 b 657 175 660 192 657 182 b 665 154 657 168 658 160 b 690 97 679 143 690 119 b 599 13 690 49 663 13 b 407 117 554 13 490 53 b 651 560 539 221 651 401 b 397 839 651 718 550 839 b 183 742 304 839 232 796 b 69 763 153 753 113 763 b 18 732 42 763 18 753 b 47 704 18 715 32 703 z m 81 96 b 171 167 81 131 117 167 b 314 111 215 167 274 142 b 143 49 269 78 206 49 b 81 96 106 49 81 67 z m 224 467 b 164 554 196 467 164 497 b 197 671 164 593 174 633 b 276 540 240 642 276 596 b 224 467 276 500 258 467 z "},"3":{"ha":726,"x_min":0,"x_max":0,"o":"m 539 440 b 611 617 579 474 611 553 b 393 838 611 725 547 838 b 318 828 371 838 340 833 b 182 874 281 857 222 874 b 114 840 151 874 114 874 b 146 819 114 824 129 819 b 182 821 158 819 175 821 b 260 799 217 818 239 810 b 181 672 215 769 181 721 b 275 575 181 614 221 575 b 386 700 331 575 386 626 b 361 782 386 732 375 761 b 390 783 368 783 382 783 b 550 617 513 783 550 688 b 493 471 550 563 528 500 b 344 507 449 493 399 507 b 206 413 215 507 206 435 b 324 325 206 363 257 325 b 501 397 383 325 450 350 b 585 235 549 363 585 310 b 326 18 585 115 494 18 b 104 207 149 18 104 154 b 114 258 104 233 110 249 b 117 272 117 264 117 268 b 88 304 117 290 103 304 b 42 201 42 304 42 236 b 324 -36 42 99 122 -36 b 647 231 535 -36 647 83 b 539 440 647 315 610 389 z m 326 700 b 276 629 326 657 301 629 b 239 672 253 629 239 647 b 306 767 239 704 265 746 b 326 700 321 746 326 722 z m 268 413 b 344 450 268 439 308 450 b 451 426 381 450 422 440 b 324 383 421 400 363 383 b 268 413 289 383 268 399 z "},"4":{"ha":892,"x_min":0,"x_max":0,"o":"m 431 797 b 503 700 489 794 503 736 b 303 368 503 594 418 468 b 142 410 249 390 197 410 b 15 304 72 410 15 371 b 117 213 15 250 56 213 b 314 301 188 213 253 250 b 396 271 342 292 368 282 b 579 208 456 249 518 225 b 560 40 569 158 560 93 b 601 -58 560 -19 569 -58 b 633 -28 619 -58 633 -44 b 629 -12 633 -22 632 -18 b 622 36 624 -4 622 14 b 639 194 622 82 629 149 b 733 185 671 188 703 185 b 892 274 847 185 892 253 b 863 304 892 292 878 304 b 839 293 853 304 844 300 b 733 243 815 268 789 243 b 650 253 706 243 679 246 b 711 557 660 310 703 519 b 729 671 717 581 729 642 b 692 746 729 697 729 746 b 661 715 675 746 661 732 b 664 703 661 711 663 707 b 668 664 667 696 668 682 b 635 492 668 643 658 594 b 590 267 617 414 603 339 b 364 346 543 279 439 318 b 565 700 489 461 565 586 b 431 857 565 786 515 857 b 374 822 411 857 374 856 b 404 793 374 806 388 792 z m 79 304 b 144 353 79 326 101 353 b 253 328 179 353 213 344 b 121 269 204 288 161 269 b 79 304 101 269 79 281 z "},"5":{"ha":704,"x_min":0,"x_max":0,"o":"m 640 860 b 607 839 624 860 613 856 b 453 799 613 803 536 799 b 214 817 408 799 254 817 b 138 782 168 817 138 817 b 153 757 138 772 143 763 b 226 564 169 747 239 690 b 72 425 139 544 72 489 b 154 349 72 378 108 349 b 282 519 208 349 267 406 b 333 524 299 521 315 524 b 585 293 503 524 585 414 b 294 31 585 125 444 31 b 81 167 192 31 97 74 b 53 192 78 181 67 192 b 22 160 35 192 22 178 b 293 -25 22 85 107 -25 b 647 294 483 -25 647 97 b 339 581 647 433 556 581 b 285 576 319 581 297 578 b 229 760 288 647 269 719 b 453 743 268 757 417 743 b 663 822 544 743 642 740 b 664 831 664 825 664 828 b 640 860 664 843 656 860 z m 156 404 b 133 428 140 404 133 414 b 221 503 133 450 164 494 b 156 404 211 447 181 404 z "},"6":{"ha":696,"x_min":0,"x_max":0,"o":"m 422 493 b 218 294 308 493 218 399 b 350 164 218 213 282 164 b 453 260 404 164 453 206 b 418 313 453 269 450 313 b 389 282 400 313 389 300 b 394 260 389 278 394 263 b 351 221 394 240 372 221 b 281 294 310 221 281 250 b 422 436 281 375 347 436 b 596 242 531 436 596 356 b 379 36 596 156 531 36 b 113 328 235 36 113 135 b 233 657 113 488 176 592 b 508 788 306 740 417 788 b 539 785 515 788 533 785 b 571 815 556 785 571 800 b 514 847 571 843 543 847 b 190 696 404 847 268 786 b 50 328 121 615 50 508 b 378 -21 50 100 200 -21 b 658 242 553 -21 658 111 b 422 493 658 393 564 493 z "},"7":{"ha":653,"x_min":0,"x_max":0,"o":"m 254 761 b 332 757 278 761 308 760 b 151 606 303 661 236 606 b 88 660 115 606 88 626 b 254 761 88 722 161 761 z m 211 -33 b 243 -6 228 -33 242 -22 b 613 672 258 204 374 413 b 697 808 631 692 697 776 b 683 835 697 818 693 829 b 667 840 678 838 672 840 b 644 831 658 840 650 836 b 510 793 619 806 575 793 b 400 804 476 793 429 800 b 403 840 401 817 403 828 b 264 989 403 919 350 989 b 213 956 247 989 213 989 b 244 932 213 939 226 931 l 261 933 b 342 840 317 938 342 879 b 340 813 342 829 342 821 b 254 818 311 815 283 818 b 25 656 107 818 25 749 b 146 549 25 596 75 549 b 390 749 253 549 346 613 b 524 738 446 743 485 738 b 607 746 553 738 585 740 b 182 -1 379 521 182 213 b 211 -33 182 -19 193 -33 z "},"8":{"ha":728,"x_min":0,"x_max":0,"o":"m 669 685 b 513 892 669 815 561 892 b 485 867 496 892 485 883 b 510 839 485 853 496 846 b 608 685 579 807 608 743 b 418 476 608 606 574 517 b 372 468 404 472 386 472 b 182 635 253 500 182 558 b 350 779 182 704 240 779 b 447 706 408 779 447 749 b 388 651 447 672 421 651 b 356 667 379 651 361 658 b 328 681 350 675 338 681 b 299 650 311 681 299 668 b 385 594 299 624 335 594 b 508 706 463 594 508 646 b 357 835 508 778 453 835 b 119 635 213 835 119 738 b 281 451 119 536 206 472 b 49 197 174 431 49 344 b 364 -25 49 51 194 -25 b 678 213 551 -25 678 65 b 472 444 678 297 626 397 b 669 685 614 483 669 589 z m 364 29 b 111 203 239 29 111 89 b 363 418 111 322 222 403 b 615 213 446 403 615 360 b 364 29 615 89 497 29 z "},"9":{"ha":718,"x_min":0,"x_max":0,"o":"m 354 835 b 53 557 154 835 53 696 b 293 321 53 413 163 321 b 510 522 428 321 510 407 b 407 651 510 597 450 650 b 376 621 390 651 376 638 b 399 590 376 608 386 592 b 449 521 429 586 449 546 b 293 378 449 436 394 378 b 114 557 197 378 114 447 b 354 779 114 663 188 779 b 606 497 510 779 606 654 b 194 51 606 246 440 51 b 136 54 185 51 142 54 b 106 26 121 54 106 44 b 192 -6 106 -7 133 -6 b 667 497 478 -6 667 214 b 354 835 667 689 544 835 z "}," ":{"ha":236,"x_min":0,"x_max":0,"o":""},"!":{"ha":386,"x_min":0,"x_max":0,"o":"m 193 153 b 250 296 233 153 250 249 b 238 496 250 361 242 429 b 233 663 233 557 233 615 b 242 722 233 678 235 707 b 310 706 263 711 285 706 b 410 799 369 706 410 744 b 325 881 410 844 374 881 b 219 822 274 881 236 851 b 208 881 211 842 208 863 b 211 917 208 888 211 911 b 183 946 211 932 201 946 b 150 882 150 946 150 910 b 190 763 150 835 165 794 b 171 660 181 742 171 703 b 179 475 171 606 172 540 b 188 296 186 413 188 353 b 167 199 188 263 185 229 b 164 182 165 194 164 189 b 193 153 164 167 176 153 z m 317 822 b 349 793 336 822 349 808 b 310 765 349 778 335 765 b 256 781 290 765 267 771 b 317 822 271 808 293 822 z m 149 13 b 183 -24 146 -6 160 -24 b 217 3 201 -24 214 -12 l 224 47 b 194 82 226 64 215 81 b 156 57 175 85 158 74 z "},"\"":{"ha":319,"x_min":0,"x_max":0,"o":"m 99 850 b 68 819 82 850 68 836 b 67 693 68 761 68 703 b 89 661 64 674 71 661 b 125 694 110 661 122 674 b 129 819 129 735 129 800 b 99 850 129 836 115 850 z m 221 850 b 190 819 204 850 190 836 b 189 693 190 761 190 703 b 211 661 186 674 193 661 b 247 694 232 661 244 674 b 251 819 251 735 251 800 b 221 850 251 836 238 850 z "},"#":{"ha":667,"x_min":0,"x_max":0,"o":"m 572 304 l 464 304 l 486 474 l 608 474 l 604 529 l 494 529 l 531 778 l 468 778 l 433 529 l 282 529 l 318 778 l 256 778 l 221 529 l 92 529 l 94 474 l 214 474 l 190 304 l 58 304 l 63 249 l 182 249 l 147 0 l 208 0 l 243 249 l 394 249 l 358 0 l 421 0 l 456 249 l 575 249 z m 425 474 l 403 304 l 251 304 l 275 474 z "},"$":{"ha":625,"x_min":0,"x_max":0,"o":"m 292 -101 b 317 39 292 -86 304 -26 b 581 243 489 40 581 146 b 331 469 581 404 442 444 b 164 608 292 478 164 506 b 335 754 164 674 215 750 b 314 631 325 710 314 664 b 417 526 314 544 379 526 b 558 647 497 525 558 585 b 410 807 558 728 501 797 b 432 928 424 864 432 903 b 401 967 432 957 418 967 b 369 936 383 967 369 953 b 347 811 369 904 361 867 b 101 608 179 810 101 693 b 318 413 101 506 182 444 b 519 244 467 378 519 332 b 329 97 519 164 438 97 b 349 240 342 165 349 192 b 236 357 349 285 335 357 b 40 194 119 357 40 274 b 254 42 40 108 128 49 b 231 -101 239 -33 231 -81 b 260 -132 231 -118 244 -132 b 292 -101 278 -132 292 -118 z m 267 97 b 101 194 183 101 101 136 b 232 300 101 254 168 300 b 286 236 269 300 286 268 b 267 97 286 192 282 179 z m 396 753 b 496 647 467 743 496 700 b 419 583 496 613 465 583 b 376 631 383 583 376 611 b 396 753 376 660 386 708 z "},"%":{"ha":1072,"x_min":0,"x_max":0,"o":"m 221 350 b 449 628 357 350 443 497 b 690 743 542 650 614 689 b 374 -47 481 374 374 14 b 401 -79 374 -64 383 -79 b 432 -53 415 -79 429 -67 b 807 842 468 174 649 576 b 811 857 810 847 811 851 b 781 888 811 874 797 888 b 758 879 772 888 764 885 b 449 685 657 779 557 711 b 301 833 435 771 376 833 b 165 722 211 833 165 778 b 319 614 165 658 236 614 b 388 618 342 614 365 615 b 225 407 379 522 319 407 b 121 550 151 407 121 481 b 143 656 121 583 129 622 b 146 668 146 658 146 664 b 115 699 146 685 132 699 b 88 681 103 699 93 692 b 61 550 69 638 61 593 b 221 350 61 422 125 350 z m 740 335 b 842 214 740 226 839 214 b 872 243 858 214 872 228 b 850 274 872 257 864 269 b 800 335 815 283 800 300 b 875 414 800 369 828 414 b 963 282 943 414 963 339 b 799 46 963 164 900 46 b 694 189 728 46 694 117 b 715 290 694 224 701 257 b 718 301 717 294 718 299 b 688 333 718 319 704 333 b 660 314 675 333 665 326 b 635 189 643 278 633 232 b 793 -11 635 69 699 -11 b 1024 282 936 -11 1024 135 b 875 472 1024 393 967 472 b 740 335 792 472 740 401 z m 386 675 b 319 671 364 672 342 671 b 226 725 268 671 226 700 b 301 778 226 756 254 778 b 386 675 350 778 379 728 z "},"&":{"ha":1056,"x_min":0,"x_max":0,"o":"m 993 669 b 968 681 986 676 978 681 b 938 650 950 681 938 668 b 944 632 938 644 940 639 b 975 536 963 603 975 572 b 915 414 975 514 969 458 b 692 586 881 524 788 586 b 550 463 613 586 550 531 b 767 304 550 368 636 304 b 868 321 803 304 839 310 b 499 42 867 185 751 42 b 125 354 274 42 125 178 b 261 611 125 453 160 553 b 442 499 306 526 385 499 b 549 594 494 499 549 531 b 388 706 549 650 501 706 b 296 688 363 706 325 700 b 293 731 293 701 293 717 b 403 863 293 818 349 863 b 467 819 431 863 461 849 b 496 794 469 806 481 794 b 528 825 514 794 528 808 b 403 919 528 851 500 919 b 231 731 318 919 231 849 b 240 664 231 707 233 685 b 63 354 147 615 63 519 b 499 -15 63 149 232 -15 b 928 349 800 -15 942 167 b 1036 535 994 390 1036 458 b 993 669 1036 581 1021 628 z m 488 594 b 442 556 488 567 461 556 b 313 635 407 556 347 576 b 388 649 336 644 368 649 b 488 594 451 649 488 622 z m 613 463 b 693 529 613 497 643 529 b 867 379 774 529 842 474 b 767 361 836 367 800 361 b 613 463 690 361 613 393 z "},"’":{"ha":111,"x_min":0,"x_max":0,"o":"m 78 850 b 47 819 61 850 47 836 b 31 710 47 761 42 725 b 25 693 26 704 25 697 b 57 661 25 675 39 661 b 108 819 108 661 108 790 b 78 850 108 836 94 850 z "},"(":{"ha":338,"x_min":0,"x_max":0,"o":"m 338 929 b 58 322 204 840 58 649 b 318 -267 58 -153 288 -267 b 344 -239 335 -267 344 -254 b 325 -210 344 -226 338 -215 b 121 324 257 -179 121 -35 b 369 881 121 632 247 803 b 383 907 379 886 383 897 b 356 935 383 924 372 935 b 338 929 349 935 343 933 z "},")":{"ha":339,"x_min":0,"x_max":0,"o":"m 36 935 b 25 938 33 938 29 938 b -3 910 8 938 -3 926 b 15 881 -3 897 4 886 b 224 357 90 844 224 717 b -25 -217 224 85 125 -160 b -40 -240 -35 -221 -40 -231 b -12 -268 -40 -256 -29 -268 b 285 356 31 -268 285 -125 b 36 935 285 721 149 888 z "},"*":{"ha":382,"x_min":0,"x_max":0,"o":"m 119 931 l 156 804 l 21 756 l 153 747 l 151 610 l 210 742 l 353 707 l 233 788 l 335 882 l 203 826 z "},"+":{"ha":600,"x_min":0,"x_max":0,"o":"m 271 310 l 47 310 l 47 251 l 271 251 l 271 28 l 329 28 l 329 251 l 553 251 l 553 310 l 329 310 l 329 535 l 271 535 z "},",":{"ha":181,"x_min":0,"x_max":0,"o":"m 101 83 b 71 53 85 83 71 69 b 56 -56 71 -6 65 -42 b 50 -74 51 -62 50 -69 b 85 -106 50 -92 64 -106 b 136 53 136 -106 136 24 b 101 83 136 69 124 83 z "},"-":{"ha":426,"x_min":0,"x_max":0,"o":"m 238 300 b 378 339 306 297 378 301 b 347 369 378 354 364 369 b 338 367 343 369 340 368 b 238 360 318 361 278 360 l 138 361 b 47 325 81 361 47 361 b 83 299 47 307 64 292 b 138 301 94 301 114 301 z "},".":{"ha":181,"x_min":0,"x_max":0,"o":"m 64 15 b 97 -19 61 -4 75 -19 b 132 6 115 -19 129 -10 l 139 53 b 110 88 140 69 129 85 b 69 63 89 90 72 79 z "},"/":{"ha":456,"x_min":0,"x_max":0,"o":"m -26 -19 b -4 -50 -26 -33 -18 -46 b 35 -28 14 -54 31 -44 b 336 589 71 118 218 379 b 494 890 381 668 494 869 b 464 919 494 906 481 919 b 436 903 453 919 442 914 b 281 619 401 831 344 728 b -26 -12 156 394 13 142 z "},":":{"ha":181,"x_min":0,"x_max":0,"o":"m 64 13 b 99 -24 61 -6 75 -24 b 132 3 117 -24 129 -12 l 140 47 b 111 82 142 65 131 81 b 71 57 90 86 74 74 z m 64 303 b 94 268 61 286 72 269 b 132 294 115 265 129 278 l 140 342 b 106 376 142 360 126 376 b 71 350 86 376 74 365 z "},";":{"ha":181,"x_min":0,"x_max":0,"o":"m 72 304 b 107 268 69 285 83 268 b 140 294 124 268 138 279 l 149 339 b 119 374 150 356 138 371 b 81 349 97 378 82 365 z m 104 88 b 72 56 86 88 72 72 b 56 -54 72 -1 67 -37 b 51 -69 53 -58 51 -65 b 86 -101 51 -87 65 -101 b 139 56 139 -101 139 28 b 104 88 139 72 124 88 z "},"<":{"ha":600,"x_min":0,"x_max":0,"o":"m 554 82 l 118 281 l 554 481 l 554 542 l 46 310 l 46 251 l 554 21 z "},"=":{"ha":600,"x_min":0,"x_max":0,"o":"m 553 410 l 47 410 l 47 351 l 553 351 z m 553 211 l 47 211 l 47 153 l 553 153 z "},">":{"ha":600,"x_min":0,"x_max":0,"o":"m 46 82 l 46 21 l 554 251 l 554 310 l 46 542 l 46 481 l 482 281 z "},"?":{"ha":590,"x_min":0,"x_max":0,"o":"m 301 150 b 332 181 318 150 332 164 b 322 204 332 189 328 197 b 294 272 315 210 294 236 b 397 414 294 331 338 371 b 574 693 488 479 574 554 b 519 831 574 747 556 794 b 346 893 479 871 419 893 b 279 883 322 893 299 890 b 224 861 258 878 240 871 b 179 867 207 867 190 867 b 21 775 86 867 21 811 b 53 746 21 757 35 746 b 81 768 65 746 72 754 b 174 811 90 785 126 814 b 131 706 143 782 131 740 b 244 581 131 621 190 581 b 356 706 300 581 356 628 b 289 832 356 760 333 806 b 339 838 306 836 325 838 b 511 694 449 838 511 774 b 374 469 511 582 444 521 b 233 272 293 411 233 357 b 301 150 233 213 271 150 z m 257 19 b 293 -18 254 0 268 -18 b 325 8 310 -18 322 -6 l 333 54 b 304 89 335 69 324 86 b 264 63 283 92 267 81 z m 294 706 b 247 638 294 660 269 638 b 192 706 222 638 192 654 b 236 806 192 746 208 782 b 294 706 272 786 294 749 z "},"@":{"ha":800,"x_min":0,"x_max":0,"o":"m 669 261 b 419 135 613 183 515 135 b 111 444 249 135 111 274 b 418 760 111 617 242 760 b 692 510 561 760 692 665 b 544 301 692 425 621 301 b 532 379 515 301 519 342 l 613 638 l 556 638 l 532 579 b 428 661 508 635 469 661 b 194 390 288 661 194 515 b 328 251 194 317 247 251 b 453 315 379 251 422 283 l 456 317 b 521 251 458 274 488 251 b 744 529 619 251 744 371 b 415 810 744 685 597 810 b 56 451 219 810 56 650 b 419 85 56 250 213 85 b 706 229 542 85 649 150 z m 425 604 b 503 511 465 604 503 557 b 344 307 503 438 435 307 b 261 404 297 307 261 344 b 425 604 261 475 328 604 z "},"A":{"ha":919,"x_min":0,"x_max":0,"o":"m 682 506 b 688 615 686 544 688 581 b 625 847 688 731 668 806 b 517 889 599 875 563 889 b 231 557 381 889 286 733 b 28 363 107 524 28 454 b 175 213 28 293 74 233 b 243 -10 174 74 204 -10 b 275 21 261 -10 275 4 b 267 40 275 28 272 35 b 236 206 249 65 236 125 b 481 376 369 203 481 272 b 450 407 481 394 467 407 b 421 376 432 407 421 394 b 238 263 421 303 331 260 b 279 510 242 336 256 428 b 396 519 315 515 354 519 b 618 474 478 519 554 504 b 597 196 606 340 597 243 b 646 7 597 100 613 42 b 721 -22 664 -12 692 -22 b 878 189 794 -22 878 40 b 682 506 878 313 811 432 z m 658 196 b 678 442 658 251 669 361 b 817 189 760 386 817 296 b 724 33 817 103 781 33 b 658 196 671 33 658 106 z m 517 832 b 581 807 544 832 565 822 b 626 617 611 776 626 713 b 622 535 626 590 625 563 b 396 578 554 563 478 578 b 301 571 363 578 331 575 b 517 832 351 714 424 832 z m 214 492 b 176 269 194 419 179 332 b 90 363 113 288 90 321 b 214 492 90 424 150 468 z "},"B":{"ha":781,"x_min":0,"x_max":0,"o":"m 543 443 b 693 622 654 481 693 560 b 286 874 693 858 392 879 b 218 1017 279 968 246 1017 b 188 986 200 1017 188 1003 b 196 964 188 978 189 971 b 224 865 215 943 222 901 b 56 710 114 843 56 779 b 192 578 56 647 103 596 b 140 268 165 475 140 369 b 439 -31 140 57 274 -31 b 739 224 599 -31 739 54 b 543 443 739 301 694 419 z m 439 21 b 203 271 326 21 203 83 b 250 569 203 365 222 460 b 421 701 361 568 421 629 b 389 751 421 718 421 751 b 360 722 371 751 360 738 b 363 701 360 718 363 704 b 261 625 363 644 297 625 b 288 819 275 696 286 761 b 588 735 417 826 533 789 b 632 622 617 707 632 671 b 379 463 632 563 578 465 b 349 432 363 463 349 449 b 379 404 349 414 363 403 b 676 224 569 418 676 343 b 439 21 676 86 553 21 z m 118 710 b 226 810 118 749 151 793 b 199 631 224 758 211 689 b 118 710 161 639 118 663 z "},"C":{"ha":835,"x_min":0,"x_max":0,"o":"m 511 550 b 650 486 551 510 601 486 b 794 631 744 486 794 553 b 517 876 794 750 694 867 b 647 951 547 932 597 951 b 696 946 656 951 689 946 b 726 974 713 946 726 956 b 647 1011 726 1008 676 1011 b 446 875 561 1011 482 963 b 54 399 213 851 54 642 b 443 -19 54 161 197 -19 b 772 147 676 -19 772 125 b 743 179 772 165 758 179 b 717 165 733 179 722 174 b 443 40 663 86 567 40 b 115 399 232 40 115 200 b 429 814 115 594 235 778 b 426 778 428 803 426 790 b 511 550 426 688 456 604 z m 650 546 b 489 778 585 546 489 626 b 493 819 489 793 490 807 b 731 631 644 815 731 725 b 650 546 731 606 724 546 z "},"D":{"ha":836,"x_min":0,"x_max":0,"o":"m 379 -19 b 813 508 640 -19 813 275 b 393 882 813 696 708 882 b 42 626 192 882 42 771 b 207 440 42 526 106 461 b 197 304 201 410 197 356 b 379 -19 197 164 214 -19 z m 381 36 b 258 304 285 36 258 144 b 268 435 258 354 263 407 b 497 582 438 438 497 528 b 467 613 497 599 483 613 b 435 585 450 613 436 600 b 275 492 432 538 375 496 b 314 699 288 582 304 663 b 315 708 315 701 315 706 b 285 739 315 725 301 739 b 256 717 272 739 258 731 b 213 497 244 678 226 596 b 104 626 161 508 104 543 b 388 825 104 729 217 825 b 750 508 699 825 750 629 b 381 36 750 314 604 36 z "},"E":{"ha":726,"x_min":0,"x_max":0,"o":"m 419 246 b 165 183 315 246 231 222 b 146 281 154 213 146 246 b 224 468 146 356 171 419 b 467 351 269 399 356 351 b 622 465 611 351 622 439 b 408 597 622 543 532 597 b 251 560 353 597 296 583 b 246 603 247 574 246 588 b 322 768 246 661 269 725 b 538 669 382 706 469 669 b 646 761 601 669 646 708 b 474 874 646 824 583 874 b 401 865 449 874 424 871 b 339 844 379 861 358 854 b 322 910 329 864 322 886 b 293 942 322 928 308 942 b 261 910 275 942 261 928 b 288 815 261 878 271 844 b 183 603 221 763 183 682 b 197 524 183 575 189 547 b 83 281 128 468 83 381 b 114 147 83 231 96 188 b 39 -17 71 107 39 44 b 69 -47 39 -33 53 -47 b 100 -18 86 -47 99 -35 b 149 93 103 24 119 64 b 481 -37 224 3 354 -37 b 674 88 635 -37 674 35 b 419 246 674 185 556 246 z m 611 88 b 481 18 611 49 563 18 b 194 131 365 18 254 58 b 419 189 246 164 326 189 b 611 88 518 189 611 144 z m 561 464 b 465 408 561 429 529 408 b 271 503 376 408 307 451 b 407 539 297 525 360 539 b 561 464 496 539 561 503 z m 474 817 b 585 761 538 817 585 794 b 538 725 585 738 560 725 b 374 797 488 725 418 756 b 474 817 397 808 440 817 z "},"F":{"ha":776,"x_min":0,"x_max":0,"o":"m 190 638 b 104 714 146 635 104 668 b 257 822 104 776 171 822 b 442 776 331 822 390 800 b 374 585 396 721 374 651 b 389 475 374 546 381 511 b 172 126 254 401 172 244 b 296 -19 172 25 225 -19 b 472 314 358 -19 472 19 b 460 443 472 364 467 406 b 550 460 488 453 517 460 b 675 413 610 460 654 442 b 700 400 681 404 690 400 b 731 431 717 400 731 413 b 550 518 731 453 679 518 b 446 500 514 518 479 511 b 435 585 440 531 435 556 b 494 746 435 649 456 707 b 729 665 583 699 642 665 b 856 768 804 665 856 707 b 699 879 856 824 799 879 b 489 818 606 879 540 854 b 257 879 425 850 353 879 b 42 714 132 879 42 808 b 185 578 42 640 107 578 b 242 611 204 578 242 581 b 210 639 242 629 226 643 z m 697 821 b 793 767 763 821 793 790 b 729 722 793 739 765 722 b 544 786 663 722 604 754 b 697 821 578 806 639 821 z m 411 314 b 296 38 411 199 389 38 b 235 126 267 38 235 53 b 401 417 235 218 297 350 b 411 314 406 388 411 351 z "},"G":{"ha":1014,"x_min":0,"x_max":0,"o":"m 944 357 b 851 393 921 381 889 393 b 772 375 822 393 796 385 b 551 481 719 454 631 481 b 406 372 451 481 406 425 b 590 251 406 303 474 251 b 743 296 656 251 703 274 b 507 43 778 154 658 43 b 119 431 289 43 119 215 b 504 818 119 643 269 818 b 557 814 522 818 540 817 b 556 782 556 800 556 792 b 739 525 556 657 640 525 b 832 624 799 525 832 569 b 628 856 832 701 763 810 b 669 917 638 889 654 911 b 690 944 682 921 690 931 b 660 976 690 963 676 976 b 572 869 650 976 596 960 b 504 876 551 874 525 876 b 56 431 244 876 56 688 b 507 -14 56 181 254 -14 b 811 244 714 -14 811 136 b 799 322 811 271 807 297 b 851 332 817 329 833 332 b 928 243 919 332 928 269 b 918 193 928 226 925 210 b 917 181 917 189 917 185 b 944 150 917 165 928 150 b 988 243 981 150 988 217 b 944 357 988 289 972 331 z m 467 372 b 551 422 467 394 494 422 b 718 349 606 422 675 406 b 590 310 682 331 642 310 b 467 372 525 310 467 333 z m 740 583 b 618 799 688 583 607 679 b 769 624 718 760 769 672 b 740 583 769 594 758 583 z "},"H":{"ha":1076,"x_min":0,"x_max":0,"o":"m 515 447 b 486 438 506 444 496 440 b 500 636 494 500 500 569 b 386 864 500 732 475 826 b 297 1015 378 965 321 1015 b 265 985 279 1015 265 1001 b 278 958 265 975 271 965 b 324 881 301 943 317 914 b 69 693 164 892 69 781 b 175 586 69 626 115 586 b 385 797 275 586 365 678 b 438 636 422 767 438 713 b 419 414 438 560 431 482 b 28 72 225 344 28 256 b 153 -54 28 -8 86 -54 b 474 371 311 -54 425 135 b 536 393 494 379 515 386 l 600 417 b 756 475 646 433 699 453 b 751 379 753 446 751 411 b 1067 -89 751 82 917 -89 b 1097 -57 1083 -89 1097 -75 b 1067 -33 1097 -42 1083 -36 b 813 378 851 -1 813 276 b 821 500 813 419 815 461 b 1078 758 954 565 1078 650 b 978 863 1078 814 1047 863 b 763 539 872 863 788 718 b 581 469 694 507 628 486 z m 975 803 b 1017 758 1004 804 1017 788 b 831 572 1017 696 933 626 b 975 803 861 732 922 800 z m 178 646 b 132 693 153 646 132 665 b 304 822 132 736 182 822 b 328 819 314 822 321 821 b 178 646 317 739 271 646 z m 153 0 b 90 72 117 0 90 28 b 406 349 90 208 239 288 b 153 0 357 150 261 0 z "},"I":{"ha":613,"x_min":0,"x_max":0,"o":"m 408 22 b 282 144 335 22 288 74 b 361 156 307 150 339 156 b 508 81 440 156 508 125 b 408 22 508 40 463 22 z m 325 726 b 256 721 299 722 274 721 b 135 781 188 721 135 743 b 210 825 135 808 167 825 b 325 726 288 825 314 772 z m 256 664 b 333 671 283 664 310 667 b 278 429 338 588 310 514 b 218 188 253 357 218 260 b 0 -22 40 140 0 6 b 29 -53 0 -39 11 -53 b 58 -28 43 -53 56 -43 b 219 128 71 46 144 107 b 407 -35 231 31 304 -35 b 571 79 513 -35 571 14 b 356 211 571 147 506 211 b 282 203 332 211 306 207 b 338 407 286 265 315 346 b 394 683 368 494 401 581 b 576 857 539 718 572 803 b 546 892 578 875 565 892 b 515 864 531 892 517 879 b 386 742 508 796 453 758 b 210 882 360 843 285 882 b 72 781 133 882 72 839 b 256 664 72 721 124 664 z "},"J":{"ha":724,"x_min":0,"x_max":0,"o":"m 222 111 b 254 79 222 94 236 79 b 286 122 285 79 286 115 b 186 215 286 169 257 215 b 28 35 97 215 28 140 b 275 -179 28 -85 128 -179 b 599 176 482 -179 599 -24 b 585 508 599 331 585 379 b 618 668 585 569 594 628 b 683 661 638 664 663 661 b 821 760 765 661 821 701 b 735 839 821 807 796 839 b 585 736 668 839 617 794 b 451 794 533 758 489 776 b 218 863 375 832 299 863 b 50 715 107 863 50 789 b 117 608 50 660 89 608 b 146 639 132 608 146 622 b 136 663 146 647 142 657 b 111 715 119 676 111 696 b 218 806 111 765 143 806 b 425 743 294 806 356 775 b 560 683 458 728 514 703 b 522 511 535 643 522 581 b 536 171 522 367 536 325 b 272 -122 536 -17 422 -122 b 89 38 172 -122 89 -54 b 182 160 89 106 129 160 b 224 122 211 160 225 139 z m 731 783 b 758 758 747 783 758 774 b 683 717 758 732 732 717 b 646 721 671 717 658 719 b 731 783 667 757 697 783 z "},"K":{"ha":986,"x_min":0,"x_max":0,"o":"m 219 -21 b 251 -50 219 -37 236 -50 b 264 -47 257 -50 260 -49 b 413 311 383 -14 404 131 b 568 383 468 315 519 344 b 594 346 576 372 585 358 l 615 311 b 1071 -146 728 136 886 -146 b 1146 -101 1103 -146 1146 -143 b 1121 -82 1146 -85 1133 -82 b 1072 -86 1111 -82 1097 -86 b 668 344 921 -86 771 181 b 611 422 658 361 624 408 b 781 628 674 485 733 563 b 861 722 810 668 842 701 b 939 774 888 750 922 774 b 969 803 956 774 969 785 b 939 832 969 819 956 832 b 817 765 896 832 846 797 b 732 664 794 740 768 711 b 571 464 686 604 632 522 b 414 543 521 508 472 538 b 418 654 414 578 415 621 b 622 844 544 689 622 765 b 531 940 622 894 590 940 b 363 699 458 940 383 876 b 274 690 335 693 306 690 b 103 828 174 690 107 746 b 72 856 101 844 89 856 b 42 825 56 856 42 843 b 274 635 42 753 101 635 b 357 640 303 635 331 636 b 353 539 356 611 354 578 b 240 426 292 524 240 479 b 351 315 240 383 263 331 b 240 4 343 110 311 33 b 219 -21 228 0 219 -8 z m 301 426 b 351 479 301 447 324 472 b 350 372 351 464 350 386 b 301 426 319 378 301 394 z m 414 486 b 531 424 453 482 497 460 b 411 368 494 393 449 369 b 413 439 411 389 413 418 z m 529 885 b 561 844 551 885 561 867 b 424 715 561 799 506 744 b 529 885 442 822 483 885 z "},"L":{"ha":782,"x_min":0,"x_max":0,"o":"m 474 632 b 644 903 508 840 597 903 b 685 858 669 903 685 883 b 474 632 685 778 596 681 z m 144 0 b 63 83 103 0 63 31 b 376 300 63 178 161 300 b 144 0 336 106 257 0 z m 410 613 b 321 603 381 606 351 603 b 160 729 258 603 160 625 b 131 760 160 746 147 760 b 100 729 113 760 100 746 b 321 543 100 608 193 543 b 403 550 349 543 376 546 b 385 360 393 421 392 406 b 0 83 118 364 0 200 b 143 -58 0 -4 65 -58 b 436 297 290 -58 388 63 b 674 65 631 271 674 149 b 593 -81 674 8 650 -43 b 579 -106 585 -86 579 -94 b 611 -136 579 -122 593 -136 b 735 64 632 -136 735 -65 b 446 356 735 171 674 324 b 467 567 451 389 463 511 b 749 860 619 621 749 733 b 656 965 749 928 707 965 b 410 613 528 965 431 810 z "},"M":{"ha":1243,"x_min":0,"x_max":0,"o":"m 154 992 b 122 961 138 992 122 979 b 149 932 122 946 135 935 b 296 757 219 918 268 861 b 28 161 138 615 28 331 b 154 -19 28 40 83 -19 b 386 492 297 -19 386 229 b 364 738 386 572 381 667 b 522 811 413 783 467 811 b 635 764 568 811 606 793 b 696 642 664 732 685 692 b 504 129 583 492 504 271 b 538 7 504 69 515 31 b 594 -14 553 -6 572 -14 b 785 449 719 -14 785 228 b 763 629 785 519 776 585 b 975 788 783 658 876 788 b 1131 504 1099 788 1131 629 b 1014 42 1131 332 1081 136 b 1010 24 1011 36 1010 31 b 1039 -7 1010 6 1022 -7 b 1065 6 1049 -7 1060 -3 b 1193 504 1139 113 1193 319 b 1107 792 1193 606 1176 719 b 978 844 1072 828 1028 844 b 740 700 886 844 803 776 b 526 869 728 747 671 869 b 347 803 461 869 401 843 b 161 992 315 899 260 975 z m 324 492 b 156 38 324 253 246 38 b 89 161 90 38 89 143 b 311 694 89 315 185 547 b 324 492 318 635 324 569 z m 722 435 b 596 42 719 214 654 42 b 565 129 568 42 565 110 b 714 568 565 243 625 418 b 722 435 721 522 722 481 z "},"N":{"ha":986,"x_min":0,"x_max":0,"o":"m 413 457 b 275 32 413 206 342 32 b 229 93 243 32 229 64 b 410 544 231 204 303 406 b 413 457 411 519 413 483 z m 879 551 b 714 31 879 399 817 197 b 710 14 711 25 710 19 b 740 -18 710 -4 724 -18 b 767 -3 750 -18 761 -11 b 942 551 875 174 942 379 b 739 851 942 792 838 851 b 454 685 640 851 542 781 b 421 817 446 731 435 778 b 533 1019 490 867 533 940 b 469 1160 533 1068 507 1160 b 439 1128 451 1160 439 1146 b 443 1113 439 1122 439 1117 b 471 1019 463 1082 471 1051 b 399 874 471 964 443 910 b 151 1058 342 993 251 1058 b 0 929 65 1058 0 1003 b 247 763 0 833 106 763 b 365 786 292 763 344 776 b 400 625 382 739 393 694 b 167 93 264 468 167 231 b 271 -26 167 21 211 -26 b 474 457 400 -26 474 201 b 465 610 474 511 471 563 b 738 794 550 715 647 794 b 879 551 833 794 879 699 z m 64 929 b 151 1001 64 979 100 1001 b 349 839 224 1001 296 949 b 247 819 322 829 282 819 b 64 929 143 819 64 869 z "},"O":{"ha":917,"x_min":0,"x_max":0,"o":"m 863 889 b 872 826 869 868 872 846 b 815 688 872 781 857 731 b 472 888 731 828 601 888 b 279 751 356 888 279 829 b 600 553 279 631 432 553 b 789 597 667 553 749 571 b 808 457 803 551 808 510 b 449 50 808 233 651 50 b 119 407 257 50 119 183 b 211 681 119 517 157 631 b 219 701 217 686 219 694 b 189 732 219 719 206 732 b 167 724 181 732 174 729 b 57 407 97 658 57 518 b 446 -7 57 149 219 -7 b 871 457 682 -7 871 189 b 842 632 871 522 863 582 b 933 828 899 681 933 753 b 886 926 933 856 932 939 b 863 896 872 922 863 910 z m 767 651 b 606 610 732 628 663 610 b 340 747 461 610 340 675 b 472 831 340 792 379 831 b 767 651 582 831 696 772 z "},"P":{"ha":721,"x_min":0,"x_max":0,"o":"m 510 875 b 306 822 435 875 367 857 b 94 933 256 890 179 933 b 64 903 79 933 64 919 b 94 875 64 886 78 875 b 260 789 163 875 219 839 b 50 278 114 664 50 454 b 222 -17 50 76 119 -17 b 421 383 342 -17 421 129 b 340 772 421 522 397 665 b 510 817 390 801 447 817 b 711 632 626 817 711 740 b 522 443 711 517 601 447 b 493 415 506 442 493 431 b 524 383 493 397 506 383 b 772 632 619 383 772 471 b 510 875 772 771 665 875 z m 358 371 b 224 38 356 167 296 38 b 111 278 146 38 111 157 b 289 738 111 417 160 621 b 358 371 340 640 360 501 z "},"Q":{"ha":924,"x_min":0,"x_max":0,"o":"m 924 -146 b 1054 -87 969 -146 1054 -125 b 1024 -61 1054 -69 1040 -61 b 1008 -67 1018 -61 1013 -64 b 922 -87 981 -85 951 -87 b 660 71 833 -87 731 -8 b 868 464 785 154 868 303 b 490 881 868 710 706 881 b 57 422 213 881 57 650 b 117 254 57 342 72 254 b 147 283 133 254 147 265 b 142 303 147 290 146 296 b 119 422 129 322 119 361 b 490 825 119 599 235 825 b 806 464 671 825 806 675 b 624 114 806 307 724 178 b 313 319 557 193 453 319 b 161 190 226 319 161 271 b 429 -1 161 85 275 -1 b 607 40 490 -1 550 13 b 924 -146 742 -106 846 -146 z m 222 189 b 311 261 222 226 254 261 b 569 85 413 261 518 153 b 429 53 528 65 475 53 b 222 189 310 53 222 124 z "},"R":{"ha":878,"x_min":0,"x_max":0,"o":"m 835 24 b 764 133 803 43 785 89 b 557 375 729 206 683 315 b 793 592 700 392 793 482 b 331 900 793 786 574 900 b 71 735 140 900 71 815 b 143 608 71 699 85 650 b 103 399 117 554 103 483 b 164 1 103 225 124 88 b 193 -17 169 -10 181 -17 b 224 14 210 -17 224 -3 b 219 28 224 18 222 22 b 165 399 185 104 165 236 b 197 579 165 474 176 533 b 374 544 256 554 322 544 b 579 646 507 544 579 588 b 406 756 579 708 507 756 b 175 661 304 756 225 724 b 133 735 157 675 133 697 b 331 843 133 799 211 843 b 731 592 522 843 731 756 b 422 417 731 464 571 417 b 393 385 406 417 393 403 b 419 354 393 369 404 356 b 708 107 607 329 668 200 b 824 -36 729 60 778 -36 b 854 -6 840 -36 854 -22 b 835 24 854 7 846 17 z m 406 694 b 517 646 475 694 517 674 b 374 603 517 626 474 603 b 228 631 324 603 269 615 b 406 694 247 650 294 694 z "},"S":{"ha":804,"x_min":0,"x_max":0,"o":"m 460 525 b 254 690 332 571 254 606 b 468 843 254 764 325 843 b 518 838 483 843 503 840 b 492 744 501 813 492 776 b 606 618 492 669 544 618 b 699 717 661 618 699 667 b 647 836 699 750 692 793 b 621 857 640 843 631 850 b 707 882 647 874 676 882 b 740 907 725 882 740 892 b 708 938 740 925 726 938 b 560 886 650 938 599 918 b 469 899 533 893 503 899 b 192 690 286 899 192 794 b 440 469 192 556 315 513 b 696 235 592 418 696 367 b 597 79 696 171 660 111 b 278 378 593 251 458 378 b 46 192 147 378 46 296 b 372 -26 46 60 194 -26 b 453 -22 401 -26 428 -25 b 522 -11 478 -19 501 -15 b 415 -135 500 -72 458 -117 b 396 -164 403 -140 396 -151 b 428 -192 396 -181 410 -192 b 590 11 453 -192 558 -128 b 757 235 701 57 757 142 b 460 525 757 419 593 478 z m 638 717 b 606 675 638 694 626 675 b 553 744 578 675 553 706 b 575 821 553 775 561 800 b 638 717 633 785 638 739 z m 278 319 b 538 51 450 319 546 200 b 372 29 490 36 433 29 b 107 190 224 29 107 99 b 278 319 107 265 186 319 z "},"T":{"ha":915,"x_min":0,"x_max":0,"o":"m 88 618 b 192 582 118 594 154 582 b 257 618 217 582 257 585 b 225 644 257 635 242 644 b 192 640 221 644 197 640 b 93 733 136 640 93 688 b 247 846 93 794 146 846 b 539 746 342 846 429 808 b 468 526 493 696 468 621 b 483 376 468 485 475 429 b 499 226 489 324 499 269 b 394 46 499 115 476 46 b 347 17 374 46 347 46 b 394 -14 347 -17 378 -14 b 560 226 560 -14 560 163 b 544 385 560 274 551 329 b 531 526 536 436 531 489 b 593 718 531 596 542 671 b 874 624 679 671 778 624 b 1007 721 956 624 1007 665 b 801 836 1007 772 958 836 b 589 788 713 836 642 819 b 247 903 474 851 372 903 b 31 733 99 903 31 818 b 88 618 31 690 51 647 z m 944 719 b 874 681 944 694 908 681 b 650 753 804 681 721 711 b 801 778 689 769 743 778 b 944 719 906 778 944 747 z "},"U":{"ha":1007,"x_min":0,"x_max":0,"o":"m 117 781 b 172 831 117 811 143 831 b 278 707 218 831 260 782 b 240 703 268 706 253 703 b 117 781 181 703 117 732 z m 497 38 b 340 292 407 38 340 110 b 347 614 340 343 349 568 b 344 667 347 632 346 650 b 496 894 433 706 496 793 b 439 1031 496 943 481 1031 b 408 1000 421 1031 408 1018 b 415 981 408 993 411 986 b 433 894 426 967 433 929 b 335 726 433 822 396 757 b 174 890 311 835 242 890 b 56 781 107 890 56 842 b 240 644 56 694 143 644 b 283 649 256 644 269 646 b 285 614 285 638 285 626 b 279 292 286 563 279 338 b 497 -19 279 100 351 -19 b 732 106 582 -19 664 31 b 913 -50 768 -14 836 -50 b 967 -17 936 -50 967 -46 b 936 7 967 1 953 7 b 907 6 932 7 911 6 b 778 161 842 6 807 56 b 979 714 899 326 979 567 b 879 868 979 844 917 868 b 693 381 753 868 693 606 b 714 174 693 319 700 243 b 497 38 650 93 575 38 z m 917 714 b 761 232 917 593 863 401 b 754 367 756 269 754 325 b 879 810 753 636 826 810 b 917 714 908 810 917 768 z "},"V":{"ha":954,"x_min":0,"x_max":0,"o":"m 744 857 b 714 825 728 857 714 843 b 744 797 714 808 728 797 b 890 639 868 797 890 707 b 556 40 890 479 697 40 b 471 326 485 40 471 147 b 419 682 471 428 471 578 b 482 860 461 732 482 793 b 325 1060 482 997 358 1060 b 294 1029 308 1060 294 1047 b 318 999 294 1015 304 1003 b 418 860 368 986 418 932 b 392 743 418 821 411 776 b 171 879 368 788 300 879 b 28 751 86 879 28 826 b 224 597 28 669 113 597 b 371 640 279 597 332 611 b 410 325 410 546 410 419 b 551 -17 410 175 410 -17 b 953 639 757 -17 953 483 b 744 857 953 765 882 857 z m 89 751 b 171 822 89 794 125 822 b 350 694 269 822 325 744 b 224 656 321 672 275 656 b 89 751 147 656 89 707 z "},"W":{"ha":1208,"x_min":0,"x_max":0,"o":"m 1211 783 b 1181 815 1211 801 1197 815 b 1151 783 1163 815 1150 801 b 1076 731 1153 760 1119 738 b 836 910 1018 831 928 910 b 719 815 757 910 719 863 b 1040 668 719 690 917 657 b 1092 435 1074 599 1092 515 b 794 39 1092 204 969 39 b 621 153 692 39 644 114 b 763 496 710 263 763 407 b 663 647 763 624 701 647 b 510 388 558 647 510 494 b 549 163 510 301 524 225 b 347 56 494 104 425 56 b 235 103 300 56 263 75 b 179 285 199 140 179 203 b 233 521 179 358 197 443 b 604 743 401 521 604 650 b 513 831 604 794 565 831 b 199 583 389 831 274 721 b 93 710 147 596 93 636 b 96 742 93 715 96 738 b 67 772 96 758 83 772 b 33 710 33 772 33 733 b 172 531 33 618 96 554 b 117 285 139 450 117 364 b 347 0 117 108 197 0 b 578 108 428 0 507 38 b 794 -18 626 22 708 -18 b 1154 435 1001 -18 1154 167 b 1103 679 1154 518 1135 604 b 1211 783 1185 700 1211 743 z m 783 815 b 836 850 783 835 801 850 b 1013 724 892 850 958 804 b 783 815 867 718 783 768 z m 663 588 b 700 496 690 588 700 549 b 594 210 700 431 661 307 b 571 388 579 260 571 325 b 663 588 571 471 608 588 z m 513 772 b 542 743 525 772 542 765 b 264 581 542 697 401 594 b 513 772 329 694 426 772 z "},"X":{"ha":979,"x_min":0,"x_max":0,"o":"m 1033 -37 b 589 492 919 -37 742 101 b 929 810 722 704 854 815 b 960 843 949 808 960 829 b 931 875 960 861 947 875 b 564 558 788 875 660 699 b 475 744 538 625 507 693 b 515 879 504 785 515 844 b 385 1094 515 1003 421 1094 b 356 1064 368 1094 356 1081 b 372 1039 356 1054 361 1044 b 454 879 424 1014 454 936 b 439 796 454 869 456 825 b 218 900 388 856 315 900 b 56 769 115 900 56 835 b 256 628 56 706 115 628 b 432 697 319 628 390 654 b 524 496 463 644 494 575 b 125 51 411 308 247 49 b 93 19 104 51 93 35 b 129 -11 93 14 96 -11 b 550 428 267 -11 403 185 b 1032 -97 688 97 868 -97 b 1079 -68 1049 -97 1079 -100 b 1049 -37 1079 -50 1065 -37 z m 118 769 b 218 843 118 807 151 843 b 404 746 297 843 363 801 b 257 685 375 710 311 685 b 118 769 165 685 118 728 z "},"Y":{"ha":954,"x_min":0,"x_max":0,"o":"m 774 447 b 858 792 774 669 793 792 b 900 713 885 792 900 764 b 776 361 900 621 849 475 b 774 447 776 393 774 431 z m 525 156 b 401 414 444 156 401 215 b 396 646 401 550 401 600 b 513 892 478 706 513 803 b 476 971 513 932 513 971 b 449 940 460 971 449 956 b 453 892 449 932 453 899 b 385 713 453 861 444 769 b 194 910 353 867 264 910 b 51 771 111 910 51 849 b 247 600 51 669 136 600 b 338 615 279 600 310 606 b 340 533 339 590 340 563 l 340 446 b 515 97 340 307 344 97 b 721 206 590 97 653 138 b 276 -297 715 -154 501 -297 b 61 -118 193 -297 61 -254 b 149 -7 61 -54 103 -7 b 204 -65 176 -7 204 -26 b 197 -104 204 -78 201 -90 b 194 -115 196 -107 194 -111 b 226 -146 194 -131 208 -146 b 267 -65 261 -146 267 -92 b 149 51 267 6 211 51 b 0 -118 67 51 0 -25 b 276 -354 0 -281 140 -354 b 782 210 504 -354 782 -217 b 779 271 782 219 781 244 b 961 711 882 403 961 586 b 925 825 961 760 951 803 b 865 849 908 839 885 849 b 713 447 725 849 713 668 b 718 283 713 418 715 358 b 525 156 654 207 596 156 z m 329 674 b 249 657 306 663 278 657 b 114 771 174 657 114 700 b 194 853 114 815 147 853 b 329 674 271 853 313 772 z "},"Z":{"ha":1097,"x_min":0,"x_max":0,"o":"m 515 71 b 368 154 464 103 407 135 b 538 408 431 231 472 303 l 567 456 b 707 660 603 514 656 596 b 792 646 739 650 768 646 b 965 775 890 646 965 699 b 879 858 965 826 936 858 b 685 729 804 858 747 806 b 478 835 596 763 549 797 b 492 929 488 865 492 899 b 418 1088 492 1008 453 1088 b 389 1056 403 1088 389 1074 b 396 1036 389 1050 392 1043 b 432 931 417 1011 432 971 b 421 863 432 907 428 885 b 235 915 358 896 304 915 b 89 789 156 915 89 869 b 249 658 89 706 157 658 b 453 782 328 658 411 703 b 646 679 522 742 582 707 b 519 490 600 618 556 550 l 493 447 b 308 181 426 339 376 258 b 179 210 263 199 226 210 b 0 74 57 210 0 144 b 97 -14 0 17 46 -14 b 324 107 185 -14 251 25 b 536 -14 389 75 453 35 b 850 -129 657 -85 733 -129 b 1057 56 971 -129 1057 -46 b 908 214 1057 140 1003 214 b 878 183 892 214 878 200 b 908 153 878 167 892 153 b 996 56 968 153 996 103 b 849 -71 996 -21 936 -71 b 588 25 775 -71 699 -46 z m 875 801 b 904 772 894 801 904 785 b 788 704 904 729 865 704 b 744 710 776 704 761 706 b 875 801 789 764 833 801 z m 249 717 b 151 789 190 717 151 744 b 236 858 151 828 188 858 b 400 808 294 858 350 833 b 249 717 375 764 318 717 z m 63 76 b 175 151 63 113 96 151 b 265 132 206 151 231 144 b 106 43 217 82 160 43 b 63 76 76 43 63 63 z "},"[":{"ha":389,"x_min":0,"x_max":0,"o":"m 282 -165 b 172 -147 240 -165 194 -161 b 131 411 140 -126 131 122 b 149 876 131 622 138 814 b 367 886 215 875 301 876 b 393 914 382 889 393 899 b 363 944 393 932 381 944 l 358 944 b 182 935 307 936 240 935 l 129 935 b 94 907 121 935 104 932 b 68 403 75 853 68 607 b 69 292 68 364 68 325 b 136 -200 76 -62 96 -161 b 281 -224 157 -219 224 -224 l 383 -224 b 417 -197 403 -225 417 -214 b 389 -165 417 -181 406 -167 z "},"\\":{"ha":456,"x_min":0,"x_max":0,"o":"m 489 -12 b 182 619 450 142 307 394 b 26 903 118 728 61 831 b -3 919 21 914 10 919 b -33 890 -19 919 -33 906 b 126 589 -33 869 82 668 b 428 -28 244 379 392 118 b 467 -50 432 -44 449 -54 b 489 -19 481 -46 489 -33 z "},"]":{"ha":389,"x_min":0,"x_max":0,"o":"m 3 -156 b -28 -182 -14 -156 -28 -165 b 35 -217 -28 -211 -8 -212 b 190 -226 100 -222 151 -226 b 306 -169 246 -226 306 -218 l 306 -164 b 296 15 299 -126 296 -62 b 321 765 296 150 321 643 b 206 939 321 892 321 939 b 83 926 171 939 129 933 b 24 919 58 924 36 919 b -6 892 7 919 -6 908 b 24 860 -6 874 7 860 b 93 868 42 860 65 864 b 207 881 121 872 171 881 b 254 871 229 881 246 878 b 258 769 257 854 258 818 b 247 385 258 669 253 518 b 233 18 242 218 233 149 b 242 -162 233 -56 236 -118 b 193 -167 232 -165 214 -167 b 6 -156 146 -167 68 -160 z "},"^":{"ha":600,"x_min":0,"x_max":0,"o":"m 271 728 l 43 274 l 107 274 l 299 660 l 493 274 l 557 274 l 329 728 z "},"_":{"ha":694,"x_min":0,"x_max":0,"o":"m 694 -174 l 694 -104 l 0 -104 l 0 -174 z "},"‘":{"ha":111,"x_min":0,"x_max":0,"o":"m 54 836 b 6 694 29 808 6 728 b 35 663 6 678 19 663 b 67 689 50 663 64 674 b 99 794 75 744 86 781 b 107 815 106 800 107 807 b 76 846 107 832 94 846 b 54 836 69 846 60 844 z "},"a":{"ha":481,"x_min":0,"x_max":0,"o":"m 300 481 b 47 135 147 481 47 279 b 160 -11 47 31 104 -11 b 304 106 260 -11 304 82 b 275 136 304 122 293 136 b 249 118 264 136 253 129 b 169 47 235 81 207 47 b 110 135 133 47 110 83 b 294 422 110 261 189 422 b 367 331 331 422 367 397 b 349 176 367 282 357 228 b 333 58 342 126 333 88 b 372 -8 333 31 342 -8 b 404 21 389 -8 404 6 b 399 38 404 28 401 32 b 396 56 397 42 396 47 b 410 167 396 83 404 131 b 428 333 419 219 428 281 b 300 481 428 429 379 481 z "},"b":{"ha":468,"x_min":0,"x_max":0,"o":"m 215 608 b 392 842 274 747 338 842 b 421 801 410 842 421 825 b 369 701 421 774 396 728 b 215 608 331 661 272 626 z m 225 -14 b 443 300 338 -14 443 147 b 313 476 443 404 396 476 b 192 410 228 476 192 429 b 222 379 192 393 206 379 b 246 389 231 379 239 382 b 310 415 263 407 281 415 b 382 300 358 415 382 367 b 226 36 382 165 294 36 b 132 201 160 36 132 101 b 196 543 132 306 160 443 b 410 658 274 564 353 600 b 483 804 439 688 483 743 b 394 899 483 865 450 899 b 147 590 265 899 178 679 b 58 579 118 583 92 579 b 25 553 28 579 25 557 b 58 521 25 540 32 521 b 125 525 79 521 106 522 b 71 201 93 419 71 303 b 225 -14 71 13 160 -14 z "},"c":{"ha":417,"x_min":0,"x_max":0,"o":"m 382 424 b 286 475 371 451 343 475 b 53 167 149 475 53 318 b 204 -14 53 42 118 -14 b 375 97 310 -14 375 71 b 349 129 375 115 365 129 b 322 111 336 129 328 121 b 208 42 294 61 246 42 b 115 167 178 42 115 56 b 282 415 115 269 174 415 b 331 389 307 415 321 403 b 357 374 338 379 347 374 b 386 404 375 374 386 388 b 382 424 386 410 385 418 z "},"d":{"ha":472,"x_min":0,"x_max":0,"o":"m 210 -11 b 318 36 251 -11 288 6 b 447 528 413 131 444 350 b 501 522 467 524 485 522 b 526 551 511 522 526 536 b 500 579 526 568 517 576 b 449 586 482 581 464 583 b 372 846 450 615 444 776 b 292 881 349 869 319 881 b 179 754 221 881 179 815 b 386 538 179 654 269 568 b 211 46 383 285 328 46 b 117 206 154 46 117 111 b 243 413 117 308 171 413 b 289 392 264 413 282 403 b 315 376 294 382 306 376 b 346 407 332 376 346 390 b 243 475 346 433 301 475 b 56 206 128 475 56 335 b 210 -11 56 72 124 -11 z m 289 822 b 388 599 325 822 388 765 b 242 756 304 621 242 686 b 289 822 242 783 257 822 z "},"e":{"ha":414,"x_min":0,"x_max":0,"o":"m 200 261 b 169 231 182 260 169 246 b 200 201 169 213 183 201 b 397 365 282 201 397 256 b 281 472 397 421 364 472 b 49 175 171 472 49 350 b 222 -14 49 57 117 -14 b 374 68 307 -14 374 42 b 346 100 374 86 363 100 b 324 89 336 100 329 96 b 226 43 300 60 263 43 b 111 175 126 43 111 128 b 279 413 111 324 210 413 b 335 365 315 413 335 393 b 200 261 335 303 265 263 z "},"f":{"ha":419,"x_min":0,"x_max":0,"o":"m 69 -279 b 19 -172 42 -279 19 -237 b 222 340 19 -35 74 207 b 171 -106 213 193 201 29 b 69 -279 144 -222 119 -279 z m 569 772 b 456 881 569 833 533 881 b 285 747 379 881 318 826 b 226 415 247 657 239 597 b -43 -172 31 282 -43 -7 b 65 -339 -43 -283 7 -339 b 229 -128 156 -339 196 -260 b 289 381 261 0 275 174 b 404 406 332 403 379 406 b 438 404 411 406 425 404 b 465 431 451 404 465 414 b 408 464 465 456 447 464 b 290 443 358 464 325 457 b 342 726 299 553 307 653 b 449 824 371 789 404 824 b 507 774 488 824 507 797 b 494 736 507 753 500 740 b 478 700 481 726 478 708 b 507 678 478 690 488 678 b 569 772 529 678 569 717 z "},"g":{"ha":446,"x_min":0,"x_max":0,"o":"m 271 417 b 354 289 336 417 354 332 b 382 257 354 271 365 257 b 414 289 400 257 414 271 b 271 474 414 399 365 474 b 44 165 138 474 44 311 b 203 -18 44 50 110 -18 b 222 -17 208 -18 215 -18 b 240 -14 228 -17 235 -15 b 290 -76 254 -36 267 -53 b 343 -186 324 -111 343 -144 b 118 -376 343 -312 217 -376 b -32 -267 28 -376 -32 -337 b 53 -172 -32 -212 6 -172 b 90 -193 64 -172 81 -178 b 114 -203 94 -200 107 -203 b 142 -175 129 -203 142 -192 b 56 -114 142 -140 106 -114 b -94 -267 -28 -114 -94 -181 b 118 -433 -94 -374 -8 -433 b 406 -186 261 -433 406 -340 b 332 -36 406 -129 375 -75 b 297 3 321 -26 308 -12 b 389 142 358 36 389 90 b 310 235 389 193 360 235 b 204 103 244 235 204 167 b 218 38 204 82 208 56 b 140 63 189 36 160 43 b 107 165 118 83 107 119 b 271 417 107 279 176 417 z m 263 101 b 307 176 263 140 285 176 b 331 142 325 176 331 157 b 272 50 331 110 308 68 b 263 101 265 67 263 86 z "},"h":{"ha":501,"x_min":0,"x_max":0,"o":"m 110 -6 b 139 25 128 -6 142 8 b 328 411 119 179 238 411 b 381 269 363 411 381 375 b 350 43 381 181 361 86 b 349 35 350 40 349 38 b 381 4 349 19 363 4 b 410 28 394 4 406 14 b 443 269 414 40 443 154 b 332 475 443 329 442 475 b 131 251 257 475 172 390 b 182 533 147 385 169 483 b 464 785 321 568 464 672 b 369 878 464 842 429 878 b 133 583 263 878 176 721 b 81 579 118 581 99 579 l 54 579 b 25 551 39 582 25 568 b 79 521 25 519 54 521 b 117 522 92 521 107 521 b 71 133 103 464 71 286 b 81 19 71 88 74 61 b 110 -6 83 6 94 -6 z m 368 821 b 403 785 393 821 403 806 b 201 599 403 717 310 636 b 368 821 244 729 318 821 z "},"i":{"ha":222,"x_min":0,"x_max":0,"o":"m 165 632 l 124 678 l 131 614 l 63 575 l 132 569 l 131 489 l 169 565 l 272 549 l 188 603 l 243 642 z m 156 461 b 118 439 139 465 121 456 b 56 14 76 274 56 32 b 88 -18 56 -4 69 -18 b 118 11 104 -18 117 -6 b 178 424 126 143 153 324 b 179 431 179 426 179 429 b 156 461 179 444 169 457 z "},"j":{"ha":254,"x_min":0,"x_max":0,"o":"m 165 547 b 175 546 168 546 171 546 b 214 594 197 546 201 557 b 215 606 215 599 215 601 b 183 636 215 622 201 636 b 144 586 161 636 157 624 b 143 576 143 583 143 581 b 165 547 143 564 153 551 z m -112 -433 b 135 -165 8 -433 97 -331 b 193 317 161 -47 174 64 b 200 426 196 346 200 394 b 169 457 200 443 188 457 b 139 428 153 457 140 444 l 131 318 b 75 -156 113 75 99 -58 b -110 -376 40 -301 -28 -376 b -193 -303 -164 -376 -193 -340 b -143 -242 -193 -268 -165 -242 b -119 -243 -133 -242 -128 -243 b -90 -217 -111 -243 -90 -239 b -136 -183 -90 -189 -108 -183 b -256 -304 -200 -183 -256 -235 b -112 -433 -256 -378 -197 -433 z "},"k":{"ha":511,"x_min":0,"x_max":0,"o":"m 185 192 b 340 242 253 190 310 218 b 407 28 383 181 407 99 b 435 -7 407 -7 432 -7 b 467 28 443 -7 467 -3 b 386 281 467 113 443 208 b 478 453 424 308 478 394 b 447 483 478 469 464 483 b 419 456 431 483 421 471 b 354 326 415 404 383 356 b 225 410 324 363 279 397 b 251 529 233 456 243 496 b 289 765 268 610 289 700 b 251 861 289 810 289 861 b 239 858 247 861 242 860 b 219 829 228 854 219 843 b 222 818 219 826 221 822 b 228 765 226 811 228 793 b 183 511 228 708 211 638 b 164 418 178 486 169 450 b 26 306 76 418 26 368 b 125 200 26 264 56 222 b 115 93 119 161 115 122 b 157 -7 115 54 118 -7 b 188 24 174 -7 188 6 b 183 38 188 29 186 33 b 178 93 182 42 178 54 b 185 192 178 118 179 156 z m 101 272 b 88 306 93 281 88 293 b 153 361 88 342 119 360 b 132 254 144 326 138 288 b 101 272 119 258 108 265 z m 193 246 b 214 356 199 282 206 321 b 311 288 251 346 290 317 b 196 246 285 263 242 246 z "},"l":{"ha":217,"x_min":0,"x_max":0,"o":"m 193 860 b 174 831 182 856 174 844 b 176 819 174 828 175 824 b 182 767 181 813 182 794 b 132 513 182 710 163 639 b 64 94 106 406 64 206 b 106 -6 64 56 67 -6 b 136 25 122 -6 136 7 b 132 39 136 31 135 35 b 126 94 131 43 126 56 b 200 531 126 206 169 406 b 243 767 219 611 243 701 b 206 863 243 811 243 863 b 193 860 201 863 196 861 z "},"m":{"ha":758,"x_min":0,"x_max":0,"o":"m 75 -12 b 104 13 90 -12 101 -3 b 304 414 150 253 232 414 b 365 279 364 414 365 310 b 347 106 365 225 357 167 b 335 29 342 76 335 35 b 365 -3 335 13 347 -3 b 407 103 390 -3 392 8 b 583 415 433 265 506 415 b 644 267 631 415 644 343 b 607 25 644 176 621 72 b 606 17 606 22 606 19 b 638 -15 606 0 619 -15 b 668 7 651 -15 663 -6 b 706 269 681 57 706 169 b 590 478 706 419 653 476 b 424 315 515 478 460 422 b 311 475 418 440 360 475 b 157 336 256 475 200 440 b 106 485 168 425 135 485 b 74 454 88 485 74 471 b 81 432 74 446 76 439 b 101 347 101 411 101 363 b 64 108 101 274 81 179 b 46 19 56 71 46 33 b 75 -12 46 1 57 -12 z "},"n":{"ha":486,"x_min":0,"x_max":0,"o":"m 319 469 b 165 339 257 469 203 425 b 106 474 171 422 133 474 b 75 444 89 474 75 460 b 82 422 75 436 78 429 b 107 339 100 404 106 381 b 78 168 106 292 93 231 b 47 28 72 146 47 44 b 76 -4 47 10 58 -4 b 106 19 92 -4 103 6 b 314 406 150 249 239 406 b 364 279 350 406 364 353 b 333 35 364 189 344 83 b 332 29 332 32 332 31 b 364 -3 332 11 346 -3 b 394 25 368 -3 390 -3 b 426 279 404 72 426 182 b 319 469 426 450 351 469 z "},"o":{"ha":474,"x_min":0,"x_max":0,"o":"m 296 483 b 160 347 207 483 160 414 b 282 231 160 283 201 231 b 319 261 317 231 319 253 b 288 292 319 278 306 292 b 222 347 264 292 222 292 b 293 425 222 381 240 425 b 382 294 360 425 382 350 b 218 44 382 176 318 44 b 118 201 147 44 118 129 b 131 290 118 231 122 269 b 133 304 132 294 133 299 b 104 335 133 319 121 335 b 75 313 92 335 79 325 b 56 200 61 275 56 239 b 215 -14 56 71 119 -14 b 444 294 357 -14 444 146 b 296 483 444 406 388 483 z "},"p":{"ha":479,"x_min":0,"x_max":0,"o":"m 304 474 b 24 -81 147 474 26 246 b -89 -190 -53 -100 -89 -158 b -64 -218 -89 -206 -81 -218 b -37 -203 -51 -218 -39 -211 b 24 -140 -33 -181 -8 -150 b 199 -446 25 -311 89 -446 b 315 -307 268 -446 315 -401 b 85 -71 315 -190 228 -71 b 304 414 90 206 193 414 b 388 269 371 414 388 314 b 272 44 388 124 336 44 b 213 90 236 44 222 71 b 185 106 207 100 196 106 b 154 75 168 106 154 93 b 272 -14 154 56 189 -14 b 450 269 367 -14 450 83 b 304 474 450 388 400 474 z m 197 -390 b 85 -129 146 -390 86 -301 b 253 -308 190 -126 253 -221 b 197 -390 253 -360 238 -390 z "},"q":{"ha":463,"x_min":0,"x_max":0,"o":"m 365 -424 b 397 -394 385 -424 397 -411 b 390 -374 397 -386 394 -379 b 357 -211 374 -353 357 -319 b 393 43 357 -128 376 -37 b 428 297 408 118 428 206 b 290 474 428 418 374 474 b 54 161 144 474 54 292 b 182 -10 54 28 114 -10 b 297 78 250 -10 297 43 b 271 110 297 94 288 111 b 243 90 257 108 249 104 b 186 47 231 61 207 47 b 115 163 138 47 115 85 b 285 415 115 263 183 415 b 365 289 339 415 365 371 b 331 54 365 215 346 128 b 294 -219 314 -28 294 -122 b 365 -424 294 -371 335 -424 z "},"r":{"ha":329,"x_min":0,"x_max":0,"o":"m 122 61 b 326 417 154 239 182 408 b 356 444 343 418 356 428 b 322 475 356 463 340 475 b 147 342 253 475 178 433 b 85 458 150 411 111 458 b 56 428 69 458 56 444 b 64 406 56 419 57 411 b 94 303 82 388 94 364 b 56 19 94 257 56 29 b 83 -11 56 3 67 -11 b 114 15 99 -11 111 -1 z "},"s":{"ha":396,"x_min":0,"x_max":0,"o":"m 125 196 b 29 96 72 196 29 154 b 181 -19 29 26 101 -19 b 347 131 286 -19 347 44 b 233 282 347 201 301 242 b 165 358 178 315 165 332 b 235 422 165 394 190 422 b 294 378 271 422 290 392 b 319 360 297 367 311 360 b 351 392 338 360 351 374 b 236 475 351 415 319 475 b 104 358 150 475 104 415 b 206 228 104 289 161 251 b 285 122 268 194 285 156 b 182 31 285 60 232 31 b 92 97 132 31 92 64 b 125 138 92 117 99 138 b 147 133 135 138 139 135 b 175 160 156 132 175 136 b 125 196 175 188 150 196 z "},"t":{"ha":292,"x_min":0,"x_max":0,"o":"m 233 18 b 206 47 233 33 221 47 b 151 167 192 50 151 57 b 189 414 151 238 164 325 b 289 410 215 413 263 410 b 315 438 304 410 315 421 b 285 467 315 453 300 464 b 200 469 247 468 219 469 b 239 615 207 500 225 574 b 242 631 240 618 242 625 b 210 658 242 647 228 658 b 182 636 197 657 186 649 b 139 471 167 581 150 517 b 31 429 89 469 31 468 b 50 406 31 414 40 406 b 125 413 69 406 85 413 b 90 163 99 307 90 229 b 193 -12 90 56 124 -1 b 203 -14 194 -12 201 -14 b 233 18 219 -12 233 1 z "},"u":{"ha":467,"x_min":0,"x_max":0,"o":"m 144 426 b 113 458 144 443 131 458 b 81 424 88 458 83 436 b 50 176 71 374 50 269 b 169 -14 50 18 119 -14 b 326 125 231 -14 290 39 b 389 -11 325 47 360 -11 b 419 19 406 -11 419 3 b 413 40 419 26 418 33 b 385 136 393 61 385 92 b 408 324 385 185 396 249 b 428 438 418 371 426 424 b 406 472 431 454 419 472 b 369 446 385 472 372 463 b 169 46 339 226 258 46 b 111 176 124 46 111 113 b 144 419 111 263 131 358 z "},"v":{"ha":419,"x_min":0,"x_max":0,"o":"m 139 415 b 107 444 142 431 125 444 b 78 421 94 444 81 435 b 58 206 69 378 58 274 b 150 -8 58 108 75 -8 b 413 444 251 -8 392 256 l 413 447 b 385 478 413 463 400 476 b 350 450 368 481 353 468 b 153 50 328 250 194 50 b 121 206 138 50 121 101 b 136 401 121 275 131 372 z "},"w":{"ha":703,"x_min":0,"x_max":0,"o":"m 626 472 b 607 444 615 468 607 456 b 610 432 607 440 608 436 b 618 390 615 422 618 407 b 451 56 618 261 531 56 b 394 181 408 56 394 119 b 411 383 394 235 404 315 b 415 431 414 408 415 429 b 383 463 415 449 401 463 b 357 433 369 463 358 450 b 172 53 342 224 250 53 b 118 181 138 53 118 101 b 149 417 118 264 135 360 b 150 424 150 419 150 421 b 119 456 150 442 136 456 b 89 431 106 456 93 446 b 56 181 74 371 56 269 b 168 -6 56 97 81 -6 b 338 153 239 -6 303 60 b 449 -4 336 39 396 -4 b 679 390 586 -4 679 261 b 639 476 679 407 679 476 b 626 472 635 476 631 475 z "},"x":{"ha":444,"x_min":0,"x_max":0,"o":"m -3 44 b -33 14 -19 44 -33 31 b 1 -18 -33 4 -28 -18 b 228 210 63 -18 129 72 b 408 -17 299 75 347 -10 b 443 14 426 -19 443 -6 b 415 44 443 31 431 43 b 267 261 381 49 310 176 b 394 401 313 325 371 399 b 424 432 410 403 424 417 b 393 464 424 450 408 464 b 236 318 347 464 296 400 b 104 475 206 374 153 475 b 72 444 88 475 72 461 b 96 415 72 431 82 419 b 199 267 118 408 164 332 b 1 44 131 171 36 44 z "},"y":{"ha":460,"x_min":0,"x_max":0,"o":"m 150 438 b 119 469 150 456 136 469 b 86 438 93 469 89 447 b 56 185 76 386 56 281 b 171 -6 56 88 85 -6 b 347 172 239 -6 313 75 b 296 -94 339 88 318 -25 b 207 -82 271 -86 239 -82 b -118 -315 61 -82 -118 -172 b 11 -433 -118 -400 -57 -433 b 332 -176 135 -433 271 -333 b 375 -242 344 -182 375 -203 b 404 -272 375 -258 388 -272 b 435 -242 421 -272 435 -258 b 354 -117 435 -189 400 -143 b 404 175 390 3 400 117 b 418 439 408 240 418 376 b 390 469 418 456 407 469 b 358 440 374 469 358 457 b 171 56 360 272 256 56 b 118 185 124 56 118 144 b 149 432 118 274 138 372 z m 19 -376 b -56 -311 -18 -376 -56 -356 b 207 -139 -56 -212 92 -139 b 279 -147 231 -139 260 -142 b 19 -376 225 -286 115 -376 z "},"z":{"ha":467,"x_min":0,"x_max":0,"o":"m 340 461 b 299 454 333 457 318 454 b 224 463 288 454 256 458 b 150 471 192 467 161 471 b 56 410 78 471 56 424 b 88 379 56 393 71 379 b 115 397 99 379 110 385 b 150 413 119 406 125 413 b 301 399 171 413 274 399 b 196 269 269 363 224 308 b 21 54 150 204 104 140 b 14 32 17 49 14 42 b 44 3 14 17 28 3 b 56 4 50 3 54 3 b 154 19 90 15 122 19 b 264 6 193 19 229 13 b 343 -4 292 1 318 -4 b 449 88 404 -4 449 28 b 414 125 449 103 444 132 b 388 94 397 124 388 111 b 343 53 388 68 386 53 b 274 63 324 53 300 57 b 104 68 231 71 156 78 b 244 235 135 97 210 186 b 392 419 285 292 326 349 b 399 442 396 426 399 433 b 364 472 399 446 397 472 b 344 465 356 472 349 469 z "},"{":{"ha":514,"x_min":0,"x_max":0,"o":"m 472 -183 b 425 -189 458 -186 442 -189 b 278 -60 363 -189 278 -168 b 303 61 278 -28 289 17 b 331 229 318 111 331 156 b 286 385 331 294 315 343 b 319 515 310 428 319 478 b 303 650 319 576 311 610 b 289 756 299 671 289 703 b 429 876 289 828 347 876 b 486 863 450 876 469 872 b 501 858 492 860 496 858 b 532 890 518 858 532 872 b 517 914 532 900 528 908 b 429 936 492 929 461 936 b 228 756 328 936 228 878 b 242 636 228 701 235 672 b 257 515 250 599 257 563 b 242 436 257 494 253 464 b 139 469 214 458 178 469 b 0 371 53 469 0 418 b 135 275 0 332 24 275 b 249 325 167 275 208 285 b 268 229 263 296 268 271 b 243 82 268 164 257 131 b 215 -60 231 36 215 -14 b 425 -249 215 -199 322 -249 b 511 -212 446 -249 511 -251 b 481 -183 511 -196 497 -183 z m 135 336 b 61 371 118 336 61 336 b 139 410 61 385 86 410 b 221 379 168 410 200 399 b 135 336 201 356 168 336 z "},"|":{"ha":308,"x_min":0,"x_max":0,"o":"m 122 -347 l 186 -347 l 186 1042 l 122 1042 z "},"}":{"ha":514,"x_min":0,"x_max":0,"o":"m 361 413 b 425 368 410 413 425 385 b 363 331 425 347 400 331 b 279 376 332 331 301 346 b 361 413 300 399 329 413 z m 208 750 b 196 650 208 718 204 682 b 178 511 188 617 178 556 b 213 379 178 474 185 422 b 167 225 179 332 167 283 b 189 82 167 153 178 126 b 211 -57 200 40 211 13 b 79 -190 211 -161 140 -190 b 28 -181 61 -190 44 -186 b 17 -179 25 -179 21 -179 b -14 -210 0 -179 -14 -193 b 79 -249 -14 -251 72 -249 b 274 -54 174 -249 274 -199 b 250 99 274 22 261 53 b 228 225 243 129 228 161 b 249 321 228 265 232 290 b 363 271 289 279 332 271 b 486 368 447 271 486 319 b 361 471 486 415 447 471 b 254 433 318 471 282 457 b 240 511 243 465 240 489 b 256 638 240 578 249 600 b 271 739 263 674 271 704 b 79 938 271 874 193 938 b 6 928 56 938 31 935 b -18 899 -8 925 -18 913 b 13 871 -18 881 -4 871 b 19 872 14 871 17 872 b 79 879 40 878 61 879 b 208 750 154 879 208 833 z "},"~":{"ha":600,"x_min":0,"x_max":0,"o":"m 85 264 b 181 339 106 299 138 339 b 293 300 221 339 254 321 b 421 264 331 283 369 264 b 558 361 488 261 525 306 l 517 401 b 421 325 494 365 464 325 b 310 364 383 325 349 346 b 181 401 272 382 232 401 b 43 303 114 401 75 358 z "},"¡":{"ha":386,"x_min":0,"x_max":0,"o":"m 207 331 b 150 188 167 331 150 235 b 163 -12 150 122 158 54 b 167 -179 167 -74 167 -132 b 158 -239 167 -194 165 -224 b 90 -222 138 -228 115 -222 b -10 -315 31 -222 -10 -261 b 75 -397 -10 -361 26 -397 b 181 -339 126 -397 164 -368 b 192 -397 189 -358 192 -379 b 189 -433 192 -404 189 -428 b 217 -462 189 -449 199 -462 b 250 -399 250 -462 250 -426 b 210 -279 250 -351 235 -311 b 229 -176 219 -258 229 -219 b 221 8 229 -122 225 -57 b 213 188 217 71 213 131 b 233 285 213 221 215 254 b 236 301 235 289 236 294 b 207 331 236 317 224 331 z m 83 -339 b 51 -310 64 -339 51 -325 b 90 -282 51 -294 65 -282 b 144 -297 110 -282 133 -287 b 83 -339 129 -325 107 -339 z m 251 471 b 217 507 254 489 240 507 b 183 481 199 507 186 496 l 176 436 b 206 401 174 419 185 403 b 244 426 225 399 242 410 z "},"¢":{"ha":625,"x_min":0,"x_max":0,"o":"m 383 894 b 360 883 374 894 367 892 b 328 751 350 871 342 839 b 43 349 158 724 43 531 b 232 93 43 189 128 117 b 200 -31 221 36 211 -7 b 197 -43 199 -33 197 -39 b 228 -74 197 -61 210 -74 b 256 -56 239 -74 250 -68 b 293 85 268 -29 281 21 b 519 201 444 81 519 176 b 490 232 519 219 507 232 b 464 219 481 232 471 228 b 304 142 435 175 376 142 b 379 699 324 247 371 633 b 513 592 461 697 513 651 b 478 543 513 560 492 543 b 461 558 469 543 465 549 b 432 582 457 572 444 582 b 401 550 414 582 401 565 b 478 483 401 531 425 483 b 574 592 524 483 574 525 b 390 756 574 679 507 751 b 408 847 399 808 404 843 b 414 864 413 851 414 857 b 383 894 414 881 400 894 z m 296 519 b 244 149 281 396 263 260 b 106 349 146 171 106 244 b 318 692 106 507 206 668 z "},"£":{"ha":794,"x_min":0,"x_max":0,"o":"m 753 150 b 724 169 749 163 736 169 b 692 139 706 169 692 156 b 700 114 692 132 700 118 b 593 24 700 63 669 24 b 422 83 519 24 463 56 b 289 167 376 114 328 146 b 315 356 314 226 321 303 b 538 381 414 369 479 381 b 589 376 546 381 582 376 b 619 406 606 376 619 389 b 538 439 619 439 579 439 b 310 413 474 439 408 426 b 307 472 308 433 307 454 b 521 763 307 663 383 782 b 483 657 500 739 483 694 b 586 546 483 586 532 546 b 681 653 639 546 681 596 b 618 778 681 693 664 743 b 667 789 638 788 651 789 b 703 783 679 789 696 783 b 733 811 719 783 733 793 b 665 844 733 844 690 844 b 563 810 628 844 593 833 b 499 821 546 814 524 821 b 247 474 364 821 247 725 b 250 404 247 451 250 433 b 149 393 204 397 179 393 b 107 397 142 393 114 397 b 76 367 92 397 76 383 b 149 336 76 335 121 336 b 254 347 183 336 206 339 b 233 194 258 306 254 238 b 139 218 204 210 158 218 b -21 86 21 218 -21 140 b 85 -8 -21 32 18 -8 b 263 113 160 -8 218 32 b 388 32 301 90 336 65 b 593 -33 458 -14 521 -33 b 763 114 694 -33 763 25 b 753 150 763 131 758 146 z m 571 746 b 624 651 614 719 624 672 b 583 600 624 621 606 600 b 543 654 563 600 543 622 b 571 746 543 693 558 725 z m 88 49 b 42 89 60 49 42 67 b 135 161 42 119 69 161 b 211 142 165 161 190 154 b 88 49 182 85 136 49 z "},"⁄":{"ha":507,"x_min":0,"x_max":0,"o":"m 0 8 b 18 -22 0 -6 8 -18 b 51 0 31 -26 47 -17 b 349 589 86 146 226 383 b 497 838 414 697 464 781 b 507 863 504 849 507 858 b 483 892 507 878 496 892 b 456 875 472 892 463 886 b 303 618 428 831 368 729 b 0 15 172 396 39 169 z "},"¥":{"ha":742,"x_min":0,"x_max":0,"o":"m 368 226 b 322 28 368 94 347 28 b 290 106 293 28 290 72 b 363 321 290 156 311 242 b 368 226 365 294 368 256 z m 319 -25 b 428 226 376 -25 428 38 b 418 340 428 271 422 311 b 604 349 492 344 551 349 b 660 374 635 349 660 343 b 629 404 660 390 647 404 b 447 399 586 406 517 403 b 619 561 488 447 558 503 b 714 732 682 621 714 671 b 585 851 714 811 660 851 b 538 819 568 851 538 851 b 567 792 538 801 551 789 b 653 731 617 799 653 775 b 547 571 653 668 603 621 b 403 424 510 536 449 483 b 121 796 364 646 265 796 b -4 676 43 796 -4 742 b 32 617 -4 653 0 617 b 61 649 49 617 61 631 b 57 676 61 651 57 672 b 121 739 57 693 64 739 b 351 392 219 739 314 622 b 206 386 301 389 247 386 b 128 393 171 386 143 389 l 122 393 b 90 363 106 393 90 379 b 207 331 90 332 122 331 b 310 333 239 331 274 332 b 231 107 250 246 231 147 b 319 -25 231 14 267 -25 z "},"ƒ":{"ha":542,"x_min":0,"x_max":0,"o":"m 557 696 b 413 833 557 779 497 833 b 188 433 271 833 164 711 b 118 431 163 432 138 431 b 69 433 111 431 76 433 b 39 404 53 433 39 422 b 118 374 39 371 72 374 b 189 376 140 374 164 375 b 199 182 196 272 199 239 b 133 -112 199 61 185 -54 b 33 -158 108 -142 76 -158 b -49 -89 -11 -158 -49 -126 b -24 -46 -49 -64 -33 -46 b 10 -15 -1 -46 10 -29 b -24 15 10 -3 -1 15 b -111 -89 -71 15 -111 -35 b 32 -215 -111 -160 -49 -215 b 261 175 189 -215 261 -67 b 251 381 261 247 257 286 b 358 385 288 382 324 385 b 446 376 393 385 424 382 b 454 375 449 375 450 375 b 486 403 471 375 486 386 b 463 429 486 415 476 426 b 357 442 435 438 399 442 b 249 436 324 442 286 439 b 410 776 236 657 289 776 b 494 696 467 776 494 731 b 450 644 494 665 474 644 b 429 653 444 644 438 647 b 408 660 424 657 415 660 b 378 631 390 660 378 647 b 450 586 378 601 414 586 b 557 696 508 586 557 639 z "},"§":{"ha":542,"x_min":0,"x_max":0,"o":"m 242 -207 b 472 19 353 -207 472 -135 b 438 138 472 72 460 113 b 493 272 465 167 493 221 b 331 474 493 379 421 436 b 178 640 244 510 178 553 b 322 774 178 714 246 774 b 432 689 397 774 433 731 b 389 640 432 660 410 642 b 365 617 376 639 365 628 b 396 585 363 592 383 585 b 493 690 435 583 493 624 b 326 829 493 774 424 829 b 115 635 210 829 115 736 b 160 518 115 592 131 553 b 101 392 132 492 101 444 b 267 194 101 294 160 242 b 410 18 357 157 410 103 b 246 -150 410 -89 340 -150 b 103 -28 154 -150 103 -83 b 164 58 103 21 133 58 b 200 35 179 58 194 47 b 228 10 207 21 218 10 b 263 39 240 10 263 19 b 168 114 263 79 218 114 b 42 -31 89 114 42 36 b 242 -207 40 -131 138 -207 z m 276 253 b 161 394 197 289 161 336 b 193 485 161 435 179 468 b 317 417 224 458 274 436 b 433 274 413 372 433 321 b 404 178 433 225 418 197 b 276 253 385 203 326 231 z "},"¤":{"ha":600,"x_min":0,"x_max":0,"o":"m 301 497 b 456 339 388 497 456 422 b 301 183 456 256 388 183 b 144 339 213 183 144 256 b 301 497 144 422 213 497 z m 31 114 l 76 68 l 172 165 b 301 125 203 140 249 125 b 428 165 351 125 397 140 l 524 68 l 569 114 l 474 211 b 515 339 499 243 515 289 b 474 465 515 389 497 435 l 569 564 l 524 610 l 428 511 b 301 556 397 536 351 556 b 172 511 251 556 206 536 l 76 610 l 31 564 l 128 465 b 85 339 103 436 85 389 b 128 211 85 289 101 246 z "},"'":{"ha":194,"x_min":0,"x_max":0,"o":"m 99 850 b 68 819 82 850 68 836 b 67 693 68 761 68 703 b 89 661 64 674 71 661 b 125 694 110 661 122 674 b 129 819 129 735 129 800 b 99 850 129 836 115 850 z "},"“":{"ha":229,"x_min":0,"x_max":0,"o":"m 172 836 b 124 694 147 808 124 728 b 154 663 124 678 138 663 b 185 689 169 663 182 674 b 218 794 194 744 204 781 b 225 815 224 800 225 807 b 196 846 225 832 213 846 b 172 836 188 846 178 844 z m 56 836 b 6 694 29 808 6 728 b 38 663 6 678 19 663 b 68 689 51 663 65 674 b 100 794 76 744 88 781 b 110 815 106 800 110 807 b 78 846 110 832 94 846 b 56 836 69 846 63 844 z "},"«":{"ha":458,"x_min":0,"x_max":0,"o":"m 346 253 b 286 294 328 265 306 281 b 383 404 303 311 371 389 b 392 425 389 410 392 418 b 361 456 392 443 378 456 b 290 392 346 456 339 450 b 222 319 265 360 242 332 b 210 294 215 314 210 304 b 222 269 210 285 214 276 b 356 167 242 253 354 168 b 378 157 361 160 369 157 b 408 189 394 157 408 171 b 399 210 408 196 406 204 b 346 253 389 219 371 235 z m 117 285 b 206 401 131 303 192 386 b 214 422 211 407 214 415 b 183 454 214 440 200 454 b 160 444 174 454 167 450 b 100 365 138 419 118 390 b 50 303 83 339 64 313 b 36 278 42 296 36 288 b 54 250 36 265 44 256 b 178 164 108 222 156 186 b 199 156 183 157 192 156 b 231 186 217 156 231 169 b 222 207 231 194 226 201 b 117 285 214 215 174 250 z "},"‹":{"ha":283,"x_min":0,"x_max":0,"o":"m 175 243 b 110 289 156 256 131 272 b 208 399 126 306 194 383 b 217 419 214 406 217 413 b 185 450 217 436 203 450 b 115 385 169 450 164 444 b 47 314 90 356 67 326 b 35 289 40 307 35 299 b 44 267 35 281 39 271 b 139 192 72 239 110 213 b 181 161 156 181 174 167 b 203 151 186 156 194 151 b 232 182 219 151 232 167 b 175 243 232 201 217 213 z "},"›":{"ha":283,"x_min":0,"x_max":0,"o":"m 172 308 b 74 218 129 275 94 240 b 51 181 54 194 51 194 b 82 150 51 164 65 150 b 119 176 96 150 101 156 b 233 281 142 201 181 244 b 247 306 242 286 247 294 b 239 326 247 314 243 319 b 121 439 222 344 138 421 b 99 449 117 446 107 449 b 67 419 81 449 67 435 b 76 397 67 411 69 404 b 146 331 101 369 125 347 z "},"ﬁ":{"ha":625,"x_min":0,"x_max":0,"o":"m 69 -279 b 19 -179 42 -279 19 -237 b 221 319 19 -49 78 200 b 171 -106 213 193 201 29 b 69 -279 144 -222 119 -279 z m 504 -18 b 535 11 521 -18 533 -6 b 593 410 543 143 569 324 b 596 429 596 421 596 428 b 568 453 596 440 588 450 b 469 461 539 458 507 461 b 289 421 404 461 325 443 b 343 726 299 553 310 654 b 458 824 372 789 413 824 b 521 774 497 824 521 794 b 508 736 521 753 514 740 b 492 700 494 726 492 713 b 521 678 492 686 508 678 b 583 774 543 678 583 719 b 465 881 583 829 543 881 b 286 747 388 881 319 824 b 225 394 249 658 239 596 b -43 -179 35 275 -43 -21 b 65 -339 -43 -283 8 -339 b 229 -128 156 -339 196 -260 b 288 358 261 0 275 174 b 457 401 332 388 417 401 b 526 394 479 401 501 401 b 472 14 490 235 472 31 b 504 -18 472 -4 486 -18 z "},"ﬂ":{"ha":625,"x_min":0,"x_max":0,"o":"m 69 -279 b 19 -172 42 -279 19 -237 b 222 335 19 -35 74 207 b 171 -106 213 193 201 29 b 69 -279 144 -222 119 -279 z m 65 -339 b 229 -128 156 -339 196 -260 b 289 374 261 0 275 174 b 404 399 332 396 379 399 b 433 397 407 399 421 397 b 461 424 447 397 461 407 b 404 457 461 449 443 457 b 290 436 358 457 325 450 b 346 724 299 553 308 651 b 499 824 381 790 442 824 b 597 756 553 824 597 803 b 549 513 597 710 579 638 b 481 94 517 385 481 203 b 522 -6 481 56 483 -6 b 553 25 539 -6 553 7 b 549 39 553 31 551 35 b 543 94 547 43 543 56 b 617 531 543 206 586 406 b 661 760 643 638 661 696 b 506 881 661 846 589 881 b 289 744 418 881 329 828 b 226 408 247 657 239 597 b -43 -172 31 282 -43 -7 b 65 -339 -43 -283 8 -339 z "},"–":{"ha":625,"x_min":0,"x_max":0,"o":"m 590 354 b 560 375 585 367 574 375 b 550 374 558 375 554 375 b 400 363 524 364 481 363 b 181 365 354 363 222 365 b 54 358 125 365 81 364 b 31 328 40 356 31 342 b 60 297 31 311 44 297 b 67 299 63 297 65 297 b 181 303 88 301 131 303 b 401 300 228 303 361 300 b 572 315 499 300 554 307 b 592 344 583 321 592 332 b 590 354 592 349 592 351 z "},"†":{"ha":472,"x_min":0,"x_max":0,"o":"m 189 -172 b 219 -142 206 -172 219 -160 b 215 -128 219 -136 218 -132 b 210 -72 214 -124 210 -111 b 281 433 210 39 253 239 l 285 454 l 293 454 b 475 492 403 451 475 454 b 444 522 475 507 461 522 b 435 519 440 522 438 521 b 294 513 415 514 336 513 b 326 739 313 622 326 689 b 289 835 326 783 326 835 b 276 832 285 835 279 833 b 257 803 265 828 257 817 b 260 792 257 800 258 796 b 265 739 264 785 265 767 b 232 514 265 696 253 643 l 179 514 b 61 478 94 514 61 514 b 97 451 61 460 78 444 b 179 454 108 454 128 454 l 222 454 l 215 415 b 147 -72 189 239 147 39 b 189 -172 147 -111 150 -172 z "},"‡":{"ha":472,"x_min":0,"x_max":0,"o":"m 189 -172 b 219 -142 206 -172 219 -160 b 215 -128 219 -136 218 -132 b 210 -72 214 -124 210 -111 b 243 204 210 -7 225 92 l 293 204 b 433 242 361 201 433 204 b 403 272 433 257 419 272 b 393 269 399 272 396 271 b 293 263 374 264 333 263 l 253 263 b 281 433 263 317 272 375 l 288 468 l 296 468 b 475 506 403 465 475 468 b 444 536 475 521 461 536 b 435 533 440 536 438 535 b 297 526 415 528 336 526 b 326 739 313 622 326 689 b 289 835 326 783 326 835 b 276 832 285 835 279 833 b 257 803 265 828 257 817 b 260 792 257 800 258 796 b 265 739 264 785 265 767 b 235 528 265 696 253 643 l 179 528 b 61 492 94 528 61 528 b 97 465 61 474 78 458 b 179 468 108 468 128 468 l 225 468 l 217 415 b 192 264 208 365 200 314 l 117 264 b 26 228 60 264 26 264 b 63 201 26 210 43 194 b 117 204 74 204 93 204 l 182 204 b 147 -72 163 94 147 -6 b 189 -172 147 -111 150 -172 z "},"·":{"ha":181,"x_min":0,"x_max":0,"o":"m 64 321 b 97 286 61 301 75 286 b 132 311 115 286 129 296 l 139 358 b 110 393 140 375 129 390 b 69 368 89 396 72 385 z "},"¶":{"ha":750,"x_min":0,"x_max":0,"o":"m 428 682 b 415 679 424 682 418 681 b 396 650 404 675 396 664 b 399 639 396 647 397 643 b 404 586 403 632 404 614 b 361 336 404 529 379 426 b 300 -72 335 210 300 39 b 342 -172 300 -111 303 -172 b 372 -142 358 -172 372 -160 b 368 -128 372 -136 371 -132 b 363 -72 367 -124 363 -111 b 421 319 363 39 392 190 b 465 586 444 426 465 521 b 428 682 465 631 465 682 z m 594 654 b 582 651 590 654 585 653 b 563 622 571 647 563 636 b 565 611 563 619 564 615 b 571 558 569 604 571 586 b 526 304 571 501 542 386 b 474 -72 508 207 474 39 b 515 -172 474 -111 476 -172 b 546 -142 532 -172 546 -160 b 542 -128 546 -136 544 -132 b 536 -72 540 -124 536 -111 b 592 311 536 39 571 204 b 632 558 610 403 632 493 b 594 654 632 603 632 654 z m 761 701 b 447 833 761 754 639 833 b 64 544 226 833 64 708 b 271 331 64 401 175 331 b 301 360 289 331 301 343 b 272 388 301 375 289 388 b 126 544 192 388 126 447 b 446 776 126 675 265 776 b 690 703 589 776 664 731 b 731 669 700 693 703 669 b 761 701 746 669 761 685 z "},"•":{"ha":289,"x_min":0,"x_max":0,"o":"m 110 356 b 171 406 149 356 171 381 b 140 438 171 422 160 438 b 113 421 129 438 118 429 l 110 417 b 99 425 107 413 99 419 b 143 461 99 446 119 461 b 194 401 171 461 194 443 b 119 332 194 361 158 332 b 85 306 92 332 85 321 b 119 278 85 294 90 278 b 253 400 194 278 253 333 b 139 519 253 475 211 519 b 40 424 86 519 40 479 b 110 356 40 389 69 356 z "},"‚":{"ha":111,"x_min":0,"x_max":0,"o":"m 78 83 b 47 53 61 83 47 69 b 31 -57 47 -6 42 -42 b 25 -74 26 -62 25 -69 b 57 -106 25 -92 39 -106 b 108 53 108 -106 108 24 b 78 83 108 69 94 83 z "},"„":{"ha":229,"x_min":0,"x_max":0,"o":"m 199 85 b 167 54 181 85 167 71 b 151 -56 167 -3 161 -39 b 146 -72 149 -61 146 -67 b 176 -103 146 -89 161 -103 b 229 54 229 -103 229 26 b 199 85 229 71 215 85 z m 29 -60 b 25 -76 25 -65 25 -72 b 56 -108 25 -94 38 -108 b 107 50 107 -108 107 21 b 75 81 107 67 93 81 b 46 50 60 81 46 67 b 29 -60 46 -8 39 -44 z "},"”":{"ha":229,"x_min":0,"x_max":0,"o":"m 199 851 b 167 821 181 851 167 838 b 151 711 167 764 161 728 b 146 694 149 706 146 700 b 176 664 146 678 161 664 b 229 821 229 664 229 793 b 199 851 229 838 215 851 z m 29 707 b 25 690 25 701 25 694 b 56 658 25 672 38 658 b 107 817 107 658 107 788 b 75 847 107 833 93 847 b 46 817 60 847 46 833 b 29 707 46 758 39 722 z "},"»":{"ha":458,"x_min":0,"x_max":0,"o":"m 411 274 b 422 297 418 281 422 289 b 347 394 422 317 376 364 b 301 443 332 408 317 425 b 278 453 294 449 288 453 b 247 421 261 453 247 439 b 301 351 247 407 251 403 b 351 301 319 333 338 318 b 240 206 268 231 253 219 b 231 185 233 200 231 193 b 263 154 231 168 244 154 b 283 163 269 154 276 156 b 363 231 296 175 325 200 z m 247 290 b 254 311 251 296 254 304 b 242 336 254 321 251 331 b 100 456 226 347 129 456 b 68 424 82 456 68 442 b 82 399 68 414 74 406 b 161 329 117 374 140 350 b 182 308 169 321 176 315 b 69 215 136 261 104 232 b 51 188 58 208 51 199 b 83 156 51 169 65 156 b 247 290 119 156 201 243 z "},"…":{"ha":1111,"x_min":0,"x_max":0,"o":"m 150 15 b 183 -19 147 -4 161 -19 b 218 6 201 -19 215 -10 l 225 53 b 196 88 226 69 215 85 b 156 63 175 90 158 79 z m 518 15 b 551 -19 515 -4 529 -19 b 586 6 569 -19 583 -10 l 593 53 b 564 88 594 69 583 85 b 524 63 543 90 526 79 z m 886 15 b 919 -19 883 -4 897 -19 b 954 6 938 -19 951 -10 l 961 53 b 932 88 963 69 951 85 b 892 63 911 90 894 79 z "},"‰":{"ha":1531,"x_min":0,"x_max":0,"o":"m 221 350 b 449 628 357 350 443 497 b 690 743 542 650 614 689 b 374 -47 481 374 374 14 b 401 -79 374 -64 383 -79 b 432 -53 415 -79 429 -67 b 807 842 468 174 649 576 b 811 857 810 847 811 851 b 781 888 811 874 797 888 b 758 879 772 888 764 885 b 449 685 657 779 557 711 b 301 833 435 771 376 833 b 165 722 211 833 165 778 b 319 614 165 658 236 614 b 388 618 342 614 365 615 b 225 407 379 522 319 407 b 121 550 151 407 121 481 b 143 656 121 583 129 622 b 146 668 146 658 146 664 b 115 699 146 685 132 699 b 88 681 103 699 93 692 b 61 550 69 638 61 593 b 221 350 61 422 125 350 z m 386 675 b 319 671 364 672 342 671 b 226 725 268 671 226 700 b 301 778 226 756 254 778 b 386 675 350 778 379 728 z m 740 335 b 842 214 740 226 839 214 b 872 243 858 214 872 228 b 850 274 872 257 864 269 b 800 335 815 283 800 300 b 875 414 800 369 828 414 b 963 282 943 414 963 339 b 799 46 963 164 900 46 b 694 189 728 46 694 117 b 715 290 694 224 701 257 b 718 301 717 294 718 299 b 688 333 718 319 704 333 b 660 314 675 333 665 326 b 635 189 643 278 633 232 b 793 -11 635 69 699 -11 b 1024 282 936 -11 1024 135 b 875 472 1024 393 967 472 b 740 335 792 472 740 401 z m 1199 335 b 1300 214 1199 226 1297 214 b 1331 243 1317 214 1331 228 b 1308 274 1331 257 1322 269 b 1258 335 1274 283 1258 300 b 1333 414 1258 369 1286 414 b 1421 282 1401 414 1421 339 b 1257 46 1421 164 1358 46 b 1153 189 1186 46 1153 117 b 1174 290 1153 224 1160 257 b 1176 301 1175 294 1176 299 b 1146 333 1176 319 1163 333 b 1118 314 1133 333 1124 326 b 1093 189 1101 278 1092 232 b 1251 -11 1093 69 1157 -11 b 1482 282 1394 -11 1482 135 b 1333 472 1482 393 1425 472 b 1199 335 1250 472 1199 401 z "},"¿":{"ha":590,"x_min":0,"x_max":0,"o":"m 310 339 b 279 308 293 339 279 325 b 289 285 279 300 283 292 b 317 217 296 279 317 253 b 214 75 317 158 274 118 b 38 -204 124 10 38 -65 b 92 -342 38 -258 56 -306 b 265 -404 132 -382 192 -404 b 388 -372 314 -404 356 -390 b 432 -378 404 -378 421 -378 b 590 -286 525 -378 590 -322 b 558 -257 590 -268 576 -257 b 531 -279 546 -257 539 -265 b 438 -322 521 -296 485 -325 b 481 -217 468 -293 481 -251 b 367 -92 481 -132 421 -92 b 256 -217 311 -92 256 -139 b 322 -343 256 -271 278 -317 b 272 -349 306 -347 286 -349 b 100 -206 163 -349 100 -285 b 238 19 100 -93 167 -32 b 378 217 318 78 378 132 b 310 339 378 276 340 339 z m 354 469 b 318 507 357 489 343 507 b 286 481 301 507 289 494 l 278 435 b 307 400 276 419 288 403 b 347 426 328 397 344 408 z m 317 -217 b 364 -149 317 -171 342 -149 b 419 -217 389 -149 419 -165 b 375 -317 419 -257 403 -293 b 317 -217 339 -297 317 -260 z "},"`":{"ha":285,"x_min":0,"x_max":0,"o":"m 249 571 b 238 594 249 581 244 589 b 113 694 192 631 146 665 b 79 722 106 700 92 713 b 63 726 74 724 67 726 b 38 703 49 726 38 718 b 65 660 38 689 43 676 b 203 551 103 632 169 578 b 228 543 213 544 221 543 b 249 571 239 543 249 554 z "},"´":{"ha":285,"x_min":0,"x_max":0,"o":"m 174 694 b 49 594 140 665 94 631 b 38 571 42 589 38 581 b 58 546 38 560 47 546 b 83 554 65 546 74 547 b 221 660 117 578 183 632 b 249 703 240 675 249 689 b 224 726 249 718 238 726 b 207 722 219 726 213 724 b 174 694 194 713 181 700 z "},"ˆ":{"ha":403,"x_min":0,"x_max":0,"o":"m 211 713 b 76 625 197 713 107 644 b 63 600 68 619 63 610 b 90 576 63 590 74 576 b 111 581 97 576 106 578 b 206 653 142 601 168 626 b 310 564 229 629 288 564 b 342 588 328 564 342 576 b 326 614 342 599 336 608 b 229 707 286 639 268 668 b 211 713 226 710 221 713 z "},"˜":{"ha":453,"x_min":0,"x_max":0,"o":"m 297 578 b 374 650 346 578 374 632 b 364 676 374 661 371 672 b 347 682 358 681 353 682 b 322 664 338 682 326 675 b 290 629 317 649 307 629 b 243 653 276 629 261 636 b 168 683 217 676 192 683 b 79 600 117 683 79 624 b 107 569 79 583 90 569 b 129 583 117 569 126 575 b 169 632 138 610 150 632 b 219 606 183 632 200 624 b 297 578 240 586 271 578 z "},"¯":{"ha":329,"x_min":0,"x_max":0,"o":"m 256 660 b 167 650 222 653 194 650 b 64 656 149 650 79 656 b 33 626 47 656 33 640 b 64 603 33 614 47 603 b 167 597 82 603 151 597 b 271 610 197 597 232 600 b 294 639 285 611 294 624 b 256 660 294 650 276 665 z "},"˘":{"ha":406,"x_min":0,"x_max":0,"o":"m 192 621 b 119 694 154 621 124 657 b 92 718 118 708 104 718 b 67 688 74 718 67 703 b 192 569 65 643 107 569 b 336 668 272 569 315 619 b 340 690 340 678 340 685 b 331 706 340 696 335 703 b 314 711 325 710 319 711 b 288 689 304 711 293 706 b 192 621 275 651 247 621 z "},"˙":{"ha":169,"x_min":0,"x_max":0,"o":"m 51 665 b 85 593 51 628 51 593 b 117 624 103 593 117 607 b 113 643 117 626 113 640 l 113 653 b 81 718 114 681 115 718 b 50 688 64 718 50 704 z "},"¨":{"ha":353,"x_min":0,"x_max":0,"o":"m 278 651 b 244 717 279 681 279 717 b 214 686 228 717 214 703 b 217 664 214 683 217 668 b 250 592 217 626 217 592 b 281 622 267 592 281 606 b 278 642 281 625 278 639 z m 128 651 b 94 717 129 681 129 717 b 64 686 78 717 64 703 b 67 664 64 683 67 668 b 100 592 67 626 67 592 b 131 622 117 592 131 606 b 128 642 131 625 128 639 z "},"˚":{"ha":371,"x_min":0,"x_max":0,"o":"m 186 554 b 299 667 246 554 299 608 b 211 756 299 708 258 758 b 181 735 194 756 181 750 b 213 704 181 717 196 704 b 243 667 231 704 243 678 b 185 607 243 636 225 607 b 128 651 160 607 128 622 b 144 694 128 669 138 690 b 164 719 156 701 164 708 b 132 743 164 736 150 743 b 74 651 106 743 74 699 b 186 554 74 600 118 554 z "},"¸":{"ha":338,"x_min":0,"x_max":0,"o":"m 158 -253 b 268 -158 207 -253 268 -214 b 190 -64 268 -93 218 -72 l 250 4 l 203 22 l 171 -10 b 135 -68 153 -31 135 -50 b 172 -110 135 -96 157 -103 b 213 -160 196 -121 213 -132 b 164 -200 213 -185 181 -200 b 121 -186 147 -200 135 -197 b 101 -181 114 -182 108 -181 b 74 -211 85 -181 74 -194 b 158 -253 74 -239 128 -253 z "},"˝":{"ha":494,"x_min":0,"x_max":0,"o":"m 231 719 b 207 708 222 719 214 715 b 79 588 174 665 146 642 b 68 564 71 583 68 572 b 90 536 68 553 81 536 b 111 543 99 536 104 538 b 249 672 175 594 210 622 b 256 690 253 676 256 685 b 231 719 256 706 249 719 z m 350 668 b 251 601 322 651 293 633 b 239 576 244 594 239 586 b 263 549 239 563 253 549 b 283 556 271 549 276 550 b 374 618 321 586 349 601 b 442 678 431 650 442 658 b 418 707 442 693 435 707 b 400 700 411 707 406 704 b 350 668 382 688 367 678 z "},"˛":{"ha":279,"x_min":0,"x_max":0,"o":"m 149 -225 b 210 -190 172 -225 210 -215 b 183 -164 210 -174 199 -164 b 163 -169 178 -164 171 -165 b 142 -175 157 -174 149 -175 b 99 -119 122 -175 99 -164 b 194 4 99 -68 160 -19 l 185 46 b 44 -128 164 42 44 -31 b 149 -225 44 -187 94 -225 z "},"ˇ":{"ha":401,"x_min":0,"x_max":0,"o":"m 215 539 b 350 626 229 539 319 607 b 364 651 358 632 364 642 b 336 675 364 661 353 675 b 315 671 329 675 321 674 b 221 599 285 650 258 625 b 117 688 197 622 139 688 b 85 664 99 688 85 675 b 100 638 85 653 90 643 b 197 544 140 613 158 583 b 215 539 200 542 206 539 z "},"—":{"ha":1111,"x_min":0,"x_max":0,"o":"m 1046 379 b 649 361 840 364 708 361 b 225 364 586 361 283 364 b 60 358 144 364 85 363 b 33 328 44 356 33 343 b 64 297 33 311 47 297 l 68 297 b 224 300 90 300 149 300 l 656 300 b 1054 318 786 300 915 301 b 1081 349 1069 321 1081 333 b 1050 379 1081 365 1067 379 z "},"Æ":{"ha":1496,"x_min":0,"x_max":0,"o":"m 654 493 b 660 615 658 536 660 576 b 599 847 660 732 640 806 b 490 889 571 875 535 889 b 235 646 378 889 293 783 b 29 490 106 635 29 560 b 160 363 29 400 126 371 b 147 210 150 308 147 257 b 215 -10 147 72 178 -10 b 247 21 233 -10 247 4 b 240 40 247 28 244 35 b 208 210 221 65 208 128 b 219 353 210 254 213 304 b 333 346 267 343 315 346 b 582 390 417 346 500 363 b 569 196 575 324 569 254 b 618 1 569 99 585 33 b 672 -22 633 -14 651 -22 b 781 176 774 -22 781 118 b 704 433 781 274 751 367 b 954 546 803 468 894 511 b 969 496 958 529 963 511 b 849 275 899 449 849 374 b 943 67 849 194 881 118 b 897 -90 913 17 897 -37 b 926 -143 897 -111 896 -143 b 958 -112 944 -143 958 -131 l 957 -92 b 993 35 958 -51 969 0 b 1244 -24 1079 -12 1182 -24 b 1443 114 1381 -24 1443 42 b 1250 246 1443 175 1393 246 b 979 115 1169 246 1039 201 b 910 275 933 156 910 207 b 1000 446 910 379 979 431 b 1217 349 1053 379 1135 349 b 1349 449 1292 349 1349 394 b 1183 560 1349 497 1310 560 b 1022 526 1129 560 1072 549 b 1011 575 1017 542 1013 560 b 1253 811 1135 644 1253 733 b 1165 893 1253 861 1224 893 b 949 607 1046 893 953 743 b 669 478 885 569 786 518 z m 278 589 b 589 478 397 588 508 550 b 588 447 589 472 589 453 b 333 401 501 417 408 401 b 229 408 300 401 263 403 b 278 589 239 465 257 536 z m 214 586 b 169 419 194 536 178 474 b 92 492 140 426 92 444 b 214 586 92 532 132 572 z m 599 615 b 596 544 599 593 597 569 b 300 644 514 604 408 639 b 486 829 346 747 411 829 b 599 615 579 829 597 739 z m 1244 33 b 1026 85 1160 33 1078 53 b 1250 189 1089 161 1182 189 b 1381 114 1340 189 1381 151 b 1244 33 1381 63 1326 33 z m 1285 449 b 1217 406 1285 428 1258 406 b 1049 474 1175 406 1099 419 b 1183 503 1088 492 1139 503 b 1285 449 1236 503 1285 489 z m 1165 836 b 1190 808 1186 836 1190 824 b 1014 640 1190 772 1117 700 b 1165 836 1028 750 1100 836 z m 675 38 b 631 196 656 38 631 83 b 646 411 631 256 638 319 b 649 413 647 413 647 413 b 718 176 694 347 718 265 b 675 38 718 132 715 38 z "},"ª":{"ha":435,"x_min":0,"x_max":0,"o":"m 344 539 b 342 551 343 542 342 546 b 353 638 342 572 347 608 b 368 772 358 681 368 729 b 258 897 368 850 325 897 b 49 610 133 897 49 725 b 143 490 49 519 99 490 b 261 603 224 490 261 576 b 233 633 261 619 250 633 b 206 610 219 633 208 624 b 147 549 200 585 178 549 b 111 610 115 549 111 585 b 256 840 111 704 178 840 b 289 828 269 840 282 836 b 306 772 301 814 306 797 b 292 647 306 733 297 688 b 281 553 285 607 281 576 b 317 493 281 514 294 493 b 347 524 333 493 347 506 b 343 539 347 529 346 533 z m 221 397 b 340 431 293 397 340 397 b 308 463 340 449 325 463 b 299 460 306 463 301 461 b 219 456 285 456 253 456 l 142 456 b 61 425 90 456 61 456 b 99 396 61 407 79 392 b 142 399 107 397 122 399 z "},"Ł":{"ha":782,"x_min":0,"x_max":0,"o":"m 474 632 b 646 903 508 840 596 903 b 685 858 669 903 685 883 b 474 632 685 778 596 681 z m 144 -1 b 63 83 103 -1 63 31 b 376 300 63 171 161 300 b 144 -1 336 106 257 -1 z m 143 -58 b 436 297 290 -58 388 63 b 674 65 631 271 674 149 b 593 -81 674 8 650 -43 b 579 -106 585 -86 579 -94 b 611 -136 579 -122 593 -136 b 735 64 632 -136 735 -65 b 446 356 735 171 674 324 b 456 435 447 367 453 400 b 633 467 515 451 578 465 b 663 493 649 467 663 479 b 632 522 663 510 649 522 b 461 494 576 522 519 508 b 467 567 463 517 465 551 b 749 860 619 621 749 733 b 656 965 749 924 711 965 b 410 613 528 965 431 810 b 321 603 381 606 351 603 b 160 729 258 603 160 625 b 131 760 160 746 147 760 b 100 729 113 760 100 746 b 321 543 100 608 193 543 b 403 550 349 543 376 546 b 399 476 401 528 399 489 b 257 457 338 464 300 457 b 222 429 232 457 222 439 b 257 401 222 411 235 401 b 390 418 289 401 346 407 b 385 360 389 394 388 374 b 0 83 118 364 0 200 b 143 -58 0 -4 65 -58 z "},"Ø":{"ha":917,"x_min":0,"x_max":0,"o":"m 696 757 b 482 561 597 757 556 689 b 217 143 410 436 289 247 b 119 417 156 207 118 294 b 478 818 122 643 285 818 b 550 811 513 818 532 811 b 579 839 565 811 579 821 b 554 868 579 854 569 865 b 476 875 528 872 503 875 b 57 415 251 875 57 674 b 181 96 57 274 111 158 b 85 -14 146 51 114 15 b 76 -36 79 -19 76 -29 b 106 -62 76 -53 89 -62 b 126 -54 113 -62 119 -60 b 222 57 156 -26 188 11 b 454 -7 279 18 363 -7 b 871 464 681 -7 871 196 b 696 757 871 650 786 757 z m 454 50 b 260 107 378 50 314 64 b 535 531 338 217 463 407 b 697 700 610 658 638 700 b 808 464 742 700 808 624 b 454 50 808 240 653 50 z "},"Œ":{"ha":1519,"x_min":0,"x_max":0,"o":"m 1264 -14 b 1467 122 1397 -14 1467 44 b 1429 217 1467 157 1453 192 b 1290 264 1408 239 1364 264 b 1013 131 1194 264 1081 218 b 939 297 963 175 939 228 b 1029 468 939 401 1008 454 b 1246 372 1082 403 1164 372 b 1376 471 1324 372 1376 411 b 1211 582 1376 521 1339 582 b 1051 549 1158 582 1101 569 b 1039 615 1044 568 1039 593 b 1282 833 1182 668 1282 751 b 1194 917 1282 882 1249 917 b 978 654 1082 917 992 782 b 790 622 921 638 860 625 b 449 879 733 794 600 879 b 257 753 325 879 257 815 b 296 667 257 722 271 692 b 744 564 363 600 532 558 b 757 440 754 526 757 485 b 436 42 757 206 628 42 b 119 414 272 42 119 169 b 206 672 119 515 153 618 b 214 694 211 679 214 686 b 183 725 214 711 200 725 b 161 715 175 725 167 721 b 57 414 97 649 57 531 b 436 -15 57 133 240 -15 b 819 440 664 -15 819 174 b 806 567 819 485 815 526 b 979 594 864 569 922 579 b 999 519 982 568 989 543 b 878 297 928 471 878 397 b 974 82 878 207 911 138 b 925 -71 943 32 925 -21 b 957 -119 925 -89 925 -119 b 988 -90 974 -119 988 -106 b 1024 49 988 -40 988 -8 b 1264 -14 1114 -7 1214 -14 z m 1267 43 b 1058 96 1174 43 1117 64 b 1290 207 1114 167 1204 207 b 1406 124 1367 207 1406 168 b 1267 43 1406 71 1351 43 z m 1082 496 b 1211 525 1114 514 1168 525 b 1315 471 1268 525 1315 511 b 1246 429 1315 447 1289 429 b 1082 496 1226 429 1142 428 z m 1043 675 b 1194 857 1063 776 1131 857 b 1219 833 1208 857 1219 843 b 1043 675 1219 782 1149 718 z m 728 621 b 319 751 471 617 319 685 b 447 822 319 803 390 822 b 728 621 542 822 665 775 z "},"º":{"ha":425,"x_min":0,"x_max":0,"o":"m 150 782 b 244 696 150 731 194 696 b 281 725 264 696 281 704 b 251 753 281 743 268 753 b 211 786 232 753 211 763 b 256 842 211 817 231 842 b 318 740 306 842 318 786 b 192 546 318 644 268 546 b 118 667 138 546 118 606 b 128 747 118 692 121 717 b 129 756 129 750 129 753 b 99 786 129 772 117 786 b 69 763 85 786 72 776 b 56 667 60 728 56 697 b 190 489 56 560 110 489 b 381 740 307 489 381 619 b 256 899 381 833 331 899 b 150 782 192 899 150 843 z m 238 389 b 356 424 310 389 356 389 b 325 456 356 440 343 456 b 315 453 322 456 319 454 b 238 446 301 447 269 446 l 157 447 b 79 418 106 447 79 447 b 115 388 79 399 96 385 b 157 389 124 389 140 389 z "},"æ":{"ha":711,"x_min":0,"x_max":0,"o":"m 346 181 b 519 -18 346 28 436 -18 b 660 60 615 -18 660 40 b 631 92 660 78 647 92 b 606 79 622 92 613 88 b 521 39 585 54 561 39 b 408 172 440 39 408 99 b 578 413 408 324 507 413 b 633 363 617 413 633 388 b 497 258 633 300 563 260 b 468 228 481 257 468 244 b 497 200 468 210 482 200 b 694 363 582 200 694 254 b 576 469 694 424 656 469 b 417 375 519 469 457 439 b 300 476 401 438 361 476 b 47 125 154 476 47 269 b 167 -18 47 19 108 -18 b 326 113 267 -18 326 89 b 296 144 326 131 314 144 b 268 124 285 144 272 136 b 168 39 251 86 211 39 b 108 125 132 39 108 67 b 297 419 108 251 199 419 b 361 324 336 419 361 383 b 347 196 361 303 351 242 z "},"ı":{"ha":222,"x_min":0,"x_max":0,"o":"m 156 461 b 118 439 139 465 121 456 b 56 14 76 274 56 32 b 88 -18 56 -4 69 -18 b 118 11 104 -18 117 -6 b 178 424 126 143 153 324 b 179 431 179 426 179 429 b 156 461 179 444 169 457 z "},"ł":{"ha":306,"x_min":0,"x_max":0,"o":"m 147 -6 b 178 25 164 -6 178 7 b 174 39 178 31 176 35 b 168 94 172 43 168 56 b 217 419 168 178 192 308 b 344 483 267 449 319 479 b 368 521 361 486 369 504 b 339 546 367 535 354 546 b 233 493 321 546 279 522 l 242 531 b 285 767 261 611 285 701 b 247 863 285 811 285 863 b 235 860 243 863 238 861 b 215 831 224 856 215 844 b 218 819 215 828 217 824 b 224 767 222 813 224 794 b 174 513 224 710 204 639 l 158 450 b 64 406 118 426 79 406 b 38 376 49 406 38 392 b 67 344 38 358 51 344 b 144 379 75 344 92 346 b 106 94 125 289 106 171 b 147 -6 106 56 108 -6 z "},"ø":{"ha":468,"x_min":0,"x_max":0,"o":"m 218 264 b 133 108 192 215 164 158 b 117 200 122 132 117 165 b 250 424 117 335 199 424 b 285 449 279 424 285 440 b 250 481 285 457 281 481 b 56 200 163 481 56 369 b 99 51 56 142 72 85 b 38 -37 75 15 56 -11 b 31 -58 33 -43 31 -51 b 60 -85 31 -75 44 -85 b 85 -72 69 -85 79 -81 b 139 8 103 -46 118 -22 b 215 -14 163 -7 188 -14 b 444 294 357 -14 444 146 b 408 428 444 360 433 404 b 360 449 394 442 378 449 b 244 311 318 449 296 403 z m 296 282 b 363 389 319 326 351 389 b 382 294 371 389 382 364 b 217 43 382 175 317 43 b 168 60 200 43 182 50 b 269 232 203 118 239 175 z "},"œ":{"ha":738,"x_min":0,"x_max":0,"o":"m 522 257 b 493 226 507 257 493 244 b 524 201 493 210 507 201 b 721 363 607 201 721 254 b 603 469 721 424 682 469 b 429 360 539 469 471 433 b 293 472 408 435 354 472 b 154 339 203 472 154 404 b 242 249 154 290 196 249 b 308 294 271 249 308 268 b 278 322 308 311 296 322 b 257 315 271 322 263 319 b 242 307 253 310 247 307 b 217 342 228 307 217 324 b 293 415 217 378 240 415 b 379 282 360 415 379 338 b 222 32 379 179 332 32 b 118 190 147 32 118 110 b 129 283 118 231 121 256 b 132 294 131 288 132 290 b 106 326 132 313 122 326 b 76 307 94 326 81 319 b 56 190 61 271 56 239 b 221 -25 56 57 121 -25 b 390 86 267 -25 340 -7 b 547 -18 415 14 479 -18 b 688 61 644 -18 688 40 b 658 89 688 78 676 89 b 636 78 650 89 643 85 b 550 39 617 53 590 39 b 433 171 471 39 433 99 b 603 413 433 325 532 413 b 658 363 640 413 658 390 b 522 257 658 300 589 260 z "},"ß":{"ha":640,"x_min":0,"x_max":0,"o":"m -114 -293 b 172 436 117 -260 150 158 b 389 843 194 721 275 843 b 496 726 464 843 496 778 b 458 644 496 693 488 653 b 317 479 372 621 317 554 b 433 317 317 399 378 356 b 533 168 501 269 533 219 b 388 26 533 83 474 26 b 267 128 346 26 267 51 b 313 197 267 175 294 197 b 343 164 336 197 343 181 b 336 131 343 158 336 135 b 367 100 336 114 350 100 b 406 164 404 100 406 160 b 313 254 406 215 367 254 b 203 128 260 254 203 203 b 388 -31 203 18 307 -31 b 596 168 514 -31 596 56 b 464 371 596 276 501 344 b 378 478 422 400 378 431 b 479 590 378 550 436 578 b 558 726 532 606 558 656 b 390 900 558 814 499 900 b 111 442 188 900 128 656 b -121 -233 92 199 58 -206 b -149 -264 -137 -236 -149 -249 b -118 -293 -149 -282 -133 -293 z "},"¹":{"ha":361,"x_min":0,"x_max":0,"o":"m 239 721 b 343 833 306 743 343 782 b 276 894 343 864 322 894 b 186 760 222 894 192 829 b 61 744 151 751 108 746 b 33 718 46 744 33 733 b 61 693 33 701 47 693 b 182 706 100 693 144 697 b 189 544 182 681 189 583 b 172 479 189 508 172 494 b 199 450 172 464 183 450 b 244 544 235 450 244 499 b 239 686 244 586 239 650 z m 278 840 b 289 832 285 840 289 836 b 243 779 289 815 279 797 b 278 840 251 819 267 840 z "},"¬":{"ha":600,"x_min":0,"x_max":0,"o":"m 494 135 l 553 135 l 553 410 l 47 410 l 47 351 l 494 351 z "},"µ":{"ha":531,"x_min":0,"x_max":0,"o":"m 193 447 b 161 479 193 464 179 479 b 133 460 150 479 139 471 b 104 289 125 442 119 394 b 6 -207 82 131 51 -106 b 4 -219 6 -211 4 -215 b 35 -250 4 -236 18 -250 b 63 -232 46 -250 57 -244 b 129 57 92 -169 111 -53 b 219 -7 153 0 189 -7 b 374 118 285 -7 339 47 b 419 -1 375 83 381 -1 b 451 31 438 -1 451 13 b 447 44 451 35 450 39 b 435 129 438 65 435 94 b 469 389 435 199 443 250 b 475 429 469 394 475 426 b 449 458 475 444 464 456 b 414 433 432 463 417 451 b 219 54 371 200 297 54 b 163 182 175 54 163 118 b 193 443 163 249 179 354 z "},"™":{"ha":861,"x_min":0,"x_max":0,"o":"m 193 878 b 25 844 124 878 54 869 b -1 793 7 829 -1 811 b 26 764 -1 775 8 764 b 51 786 40 764 49 774 b 83 815 53 796 71 811 b 150 822 100 819 122 821 b 110 638 139 783 110 699 b 201 510 110 571 139 519 b 210 508 203 510 210 508 b 238 538 225 510 238 522 b 213 564 238 551 226 564 b 164 642 200 565 164 572 b 207 824 164 706 197 800 b 369 822 232 825 296 824 b 383 764 386 811 383 775 b 358 618 383 725 369 668 b 340 539 351 585 340 551 b 367 510 340 522 350 510 b 393 532 381 510 390 518 b 546 824 432 735 501 824 b 586 744 579 824 586 782 b 571 615 586 710 579 657 b 558 544 565 589 558 551 b 586 518 558 532 569 518 b 610 539 597 518 607 522 b 624 600 613 553 619 575 b 757 824 647 746 706 824 b 794 749 781 824 794 786 b 767 556 794 665 772 586 b 758 526 765 546 758 535 b 786 507 758 517 769 507 b 817 526 806 507 814 515 b 850 751 828 572 850 660 b 764 882 850 858 790 882 b 636 776 711 882 663 832 b 554 879 632 849 593 879 b 436 782 522 879 471 849 b 378 874 439 839 421 872 b 193 878 290 876 231 878 z "},"Ð":{"ha":836,"x_min":0,"x_max":0,"o":"m 379 -19 b 813 508 640 -19 813 275 b 390 882 813 696 708 882 b 42 644 211 882 42 783 b 211 482 42 550 125 486 b 200 372 206 449 201 399 b 92 358 154 364 125 358 b 57 329 57 358 57 332 b 92 301 57 321 60 301 b 197 314 126 301 154 307 b 379 -19 196 154 211 -19 z m 381 38 b 258 326 285 38 254 150 b 490 365 335 342 444 364 b 519 392 507 365 519 375 b 490 422 519 410 507 422 b 263 386 443 422 371 406 b 272 476 263 401 267 443 b 497 638 439 479 497 583 b 467 668 497 654 483 668 b 435 640 450 668 436 656 b 281 533 432 593 378 538 b 313 699 289 582 304 663 b 314 713 314 703 314 707 b 285 739 314 725 301 739 b 256 717 272 739 258 731 b 219 539 244 678 225 582 b 104 644 176 543 104 567 b 388 825 104 740 232 825 b 750 508 700 825 750 629 b 381 38 750 314 604 38 z "},"½":{"ha":903,"x_min":0,"x_max":0,"o":"m 239 721 b 343 833 306 743 343 782 b 276 894 343 864 322 894 b 186 760 222 894 192 829 b 61 744 151 751 108 746 b 33 718 46 744 33 733 b 61 693 33 701 47 693 b 182 706 100 693 144 697 b 189 544 182 681 189 583 b 172 479 189 508 172 494 b 199 450 172 464 183 450 b 244 544 235 450 244 499 b 239 686 244 586 239 650 z m 278 840 b 289 832 285 840 289 836 b 243 779 289 815 279 797 b 278 840 251 819 267 840 z m 608 268 b 585 242 608 258 603 242 b 550 281 568 242 550 256 b 657 381 550 336 592 381 b 742 293 718 381 742 339 b 642 88 742 231 701 142 b 536 139 613 111 581 139 b 446 57 486 139 446 103 b 533 -12 446 14 488 -12 b 643 26 571 -12 608 3 b 753 -18 675 1 708 -18 b 860 88 813 -18 860 21 b 833 124 860 100 858 124 b 808 94 817 124 808 111 b 753 35 808 60 793 35 b 686 58 731 35 710 44 b 797 293 756 126 797 221 b 658 433 797 371 747 433 b 494 281 567 433 494 365 b 585 189 494 226 538 189 b 664 268 633 189 664 229 b 629 315 664 292 650 315 b 603 288 614 315 603 303 b 608 269 603 281 604 275 z m 533 42 b 500 60 514 42 500 51 b 536 88 500 79 519 88 b 597 58 558 88 581 72 b 533 42 578 47 554 42 z m 168 8 b 186 -22 168 -6 176 -18 b 219 0 199 -26 215 -17 b 517 589 254 146 394 383 b 665 838 582 697 632 781 b 675 863 672 849 675 858 b 651 892 675 878 664 892 b 624 875 640 892 631 886 b 471 618 596 831 536 729 b 168 15 340 396 207 169 z "},"±":{"ha":600,"x_min":0,"x_max":0,"o":"m 271 360 l 47 360 l 47 301 l 271 301 l 271 117 l 329 117 l 329 301 l 553 301 l 553 360 l 329 360 l 329 540 l 271 540 z m 47 10 l 553 10 l 553 68 l 47 68 z "},"Þ":{"ha":818,"x_min":0,"x_max":0,"o":"m 528 342 b 496 313 510 342 496 331 b 586 275 496 275 560 275 b 818 501 722 275 818 376 b 565 733 818 642 708 733 b 426 703 517 733 469 722 b 385 824 417 744 403 788 b 483 926 450 858 483 907 b 453 956 483 944 471 956 b 426 940 442 956 432 950 b 356 875 413 915 388 893 b 167 979 339 906 276 979 b 28 878 89 979 28 936 b 199 775 28 825 81 775 b 328 799 242 775 286 783 b 369 669 347 764 360 719 b 165 229 247 582 165 418 b 301 -19 165 81 221 -19 b 461 357 442 -19 461 181 b 440 644 461 444 456 544 b 565 676 478 664 521 676 b 756 501 672 676 756 610 b 588 333 756 403 682 333 b 533 342 569 333 553 336 z m 92 878 b 164 922 92 907 131 922 b 301 850 229 922 279 888 b 201 832 265 836 232 832 b 92 878 150 832 92 842 z m 400 357 b 303 36 400 149 368 36 b 228 229 264 36 228 114 b 382 607 228 382 285 525 b 400 357 393 533 400 449 z "},"¼":{"ha":1000,"x_min":0,"x_max":0,"o":"m 239 721 b 343 833 306 743 343 782 b 276 894 343 864 322 894 b 186 760 222 894 192 829 b 61 744 151 751 108 746 b 33 718 46 744 33 733 b 61 693 33 701 47 693 b 182 706 100 693 144 697 b 189 544 182 681 189 583 b 172 479 189 508 172 494 b 199 450 172 464 183 450 b 244 544 235 450 244 499 b 239 686 244 586 239 650 z m 278 840 b 289 832 285 840 289 836 b 243 779 289 815 279 797 b 278 840 251 819 267 840 z m 788 -3 b 817 13 810 -3 817 4 b 814 19 817 15 815 17 b 811 44 811 24 811 33 b 815 106 811 67 814 92 b 867 101 835 103 851 101 b 950 163 924 101 950 139 b 926 185 950 178 939 185 b 913 179 919 185 915 183 b 867 154 906 168 894 154 b 824 158 853 154 839 156 b 856 304 829 181 851 286 b 864 361 858 317 864 347 b 833 399 864 375 864 399 b 804 383 811 399 804 392 b 806 376 804 381 804 379 b 807 357 807 374 807 367 b 792 271 807 347 803 322 b 768 167 783 232 775 194 b 668 203 744 172 693 192 b 756 382 715 253 756 314 b 675 454 756 417 728 454 b 633 428 653 454 633 447 b 649 407 633 415 640 406 l 663 408 b 699 376 682 407 699 394 b 617 225 699 324 656 260 b 529 249 592 236 565 249 b 454 178 483 249 454 211 b 522 111 454 149 475 111 b 631 160 571 111 604 138 b 671 144 644 154 657 150 b 760 114 701 133 732 121 b 753 46 758 101 753 72 b 788 -3 753 15 758 -4 z m 510 175 b 533 200 510 190 521 197 b 582 186 549 200 563 197 b 531 161 558 167 542 161 b 510 175 521 160 510 167 z m 189 8 b 207 -22 189 -6 197 -18 b 240 0 219 -26 236 -17 b 538 589 276 146 415 383 b 686 838 603 697 653 781 b 696 863 693 849 696 858 b 672 892 696 878 685 892 b 644 875 661 892 651 886 b 492 618 617 831 557 729 b 189 15 361 396 228 169 z "},"÷":{"ha":600,"x_min":0,"x_max":0,"o":"m 553 251 l 553 310 l 47 310 l 47 251 z m 240 488 b 301 428 240 456 268 428 b 360 488 332 428 360 458 b 300 547 360 521 332 547 b 240 488 268 547 240 521 z m 240 74 b 301 14 240 42 268 14 b 360 74 332 14 360 44 b 300 133 360 106 332 133 b 240 74 268 133 240 107 z "},"¦":{"ha":308,"x_min":0,"x_max":0,"o":"m 122 -243 l 186 -243 l 186 243 l 122 243 z m 122 451 l 186 451 l 186 938 l 122 938 z "},"°":{"ha":333,"x_min":0,"x_max":0,"o":"m 189 833 b 67 713 121 833 67 779 b 189 592 67 644 121 592 b 308 713 256 592 308 644 b 189 833 308 779 256 833 z m 189 788 b 261 713 229 788 261 753 b 189 638 261 672 229 638 b 117 713 149 638 117 672 b 189 788 117 753 149 788 z "},"þ":{"ha":565,"x_min":0,"x_max":0,"o":"m 376 474 b 194 379 307 474 246 436 b 7 733 143 669 26 733 b -22 703 -8 733 -22 719 b -10 676 -22 693 -19 682 b 143 314 78 617 121 467 b 6 -186 57 174 6 -14 b 118 -417 6 -268 19 -417 b 224 -74 214 -417 224 -260 b 206 301 224 47 221 181 b 376 414 229 335 290 414 b 475 274 443 414 475 347 b 356 46 475 151 421 46 b 311 83 335 46 318 63 b 282 106 307 97 294 106 b 250 75 264 106 250 92 b 354 -14 250 44 281 -14 b 536 274 464 -14 536 125 b 376 474 536 392 471 474 z m 163 -74 b 118 -360 163 -346 132 -358 b 69 -186 94 -361 69 -321 b 156 218 69 -57 100 104 b 163 -74 164 106 163 -8 z "},"¾":{"ha":1000,"x_min":0,"x_max":0,"o":"m 185 444 b 372 600 299 444 372 517 b 338 696 372 639 361 674 b 357 772 350 719 357 743 b 226 893 357 838 315 893 b 96 796 144 893 96 825 b 124 767 96 781 108 767 b 149 788 136 767 144 775 b 226 840 158 824 197 840 b 301 772 289 840 301 797 b 293 728 301 758 299 740 b 213 744 271 739 242 744 b 117 675 157 744 117 714 b 199 608 117 639 150 608 b 304 650 238 608 276 624 b 315 600 313 638 315 619 b 185 496 315 539 261 496 b 117 519 154 496 132 504 b 96 575 99 539 96 569 b 68 601 96 589 85 601 b 42 575 54 601 42 589 b 185 444 42 525 71 444 z m 171 675 b 213 693 171 688 189 693 b 263 683 229 693 250 689 b 199 660 246 669 222 660 b 171 675 183 660 171 664 z m 788 -3 b 817 13 810 -3 817 4 b 814 19 817 15 815 17 b 811 44 811 24 811 33 b 815 106 811 67 814 92 b 867 101 835 103 851 101 b 950 163 924 101 950 139 b 926 185 950 178 939 185 b 913 179 919 185 915 183 b 867 154 906 168 894 154 b 824 158 853 154 839 156 b 856 304 829 181 851 286 b 864 361 858 317 864 347 b 833 399 864 375 864 399 b 804 383 811 399 804 392 b 806 376 804 381 804 379 b 807 357 807 374 807 367 b 792 271 807 347 803 322 b 768 167 783 232 775 194 b 668 203 744 172 693 192 b 756 382 715 253 756 314 b 675 454 756 417 728 454 b 633 428 653 454 633 447 b 649 407 633 415 640 406 l 663 408 b 699 376 682 407 699 394 b 617 225 699 324 656 260 b 529 249 592 236 565 249 b 454 178 483 249 454 211 b 522 111 454 149 475 111 b 631 160 571 111 604 138 b 671 144 644 154 657 150 b 760 114 701 133 732 121 b 753 46 758 101 753 72 b 788 -3 753 15 758 -4 z m 510 175 b 533 200 510 190 521 197 b 582 186 549 200 563 197 b 531 161 558 167 542 161 b 510 175 521 160 510 167 z m 217 8 b 235 -22 217 -6 225 -18 b 268 0 247 -26 264 -17 b 565 589 304 146 443 383 b 714 838 631 697 681 781 b 724 863 721 849 724 858 b 700 892 724 878 713 892 b 672 875 689 892 679 886 b 519 618 644 831 585 729 b 217 15 389 396 256 169 z "},"²":{"ha":444,"x_min":0,"x_max":0,"o":"m 192 726 b 168 700 192 717 186 700 b 133 739 151 700 133 714 b 240 839 133 794 175 839 b 325 751 301 839 325 797 b 225 546 325 689 285 600 b 119 597 196 569 164 597 b 29 515 69 597 29 561 b 117 446 29 472 71 446 b 226 485 154 446 192 461 b 336 440 258 460 292 440 b 443 546 396 440 443 479 b 417 582 443 558 442 582 b 392 553 400 582 392 569 b 336 493 392 518 376 493 b 269 517 314 493 293 503 b 381 751 339 585 381 679 b 242 892 381 829 331 892 b 78 739 150 892 78 824 b 168 647 78 685 121 647 b 247 726 217 647 247 688 b 213 774 247 750 233 774 b 186 746 197 774 186 761 b 192 728 186 739 188 733 z m 117 500 b 83 518 97 500 83 510 b 119 546 83 538 103 546 b 181 517 142 546 164 531 b 117 500 161 506 138 500 z "},"®":{"ha":717,"x_min":0,"x_max":0,"o":"m 353 322 b 647 636 549 322 647 478 b 371 929 647 788 549 929 b 69 619 176 929 69 781 b 353 322 69 438 186 322 z m 353 372 b 128 619 224 372 128 457 b 371 879 128 757 211 879 b 589 636 510 879 589 768 b 353 372 589 497 514 372 z m 317 649 b 325 715 319 667 325 694 b 324 744 325 722 325 728 b 406 693 357 746 406 732 b 350 644 406 672 394 647 b 331 618 342 644 331 636 b 350 592 331 601 343 592 b 406 519 376 590 393 572 b 458 460 418 474 433 460 b 490 478 475 460 490 468 b 483 500 490 486 488 493 b 451 578 467 514 460 558 b 417 618 443 599 435 608 b 469 694 451 631 469 661 b 311 801 469 775 393 807 b 272 793 294 800 279 797 b 260 775 264 790 260 779 b 261 711 260 758 261 722 b 249 625 261 692 253 643 b 233 535 240 592 233 560 b 274 458 233 481 246 458 b 304 476 294 458 304 467 b 303 492 304 481 304 486 b 294 535 300 500 294 518 b 310 617 294 557 303 585 z "},"−":{"ha":600,"x_min":0,"x_max":0,"o":"m 553 251 l 553 310 l 47 310 l 47 251 z "},"ð":{"ha":461,"x_min":0,"x_max":0,"o":"m 201 -11 b 322 42 246 -11 288 6 b 438 451 431 154 438 392 b 386 674 438 526 415 624 b 485 728 431 701 465 724 b 510 758 499 731 510 743 b 471 785 510 778 492 789 b 360 722 444 781 407 754 b 163 865 314 806 211 865 l 157 865 b 125 833 140 865 125 851 b 150 807 125 819 136 808 b 308 690 214 800 274 750 b 199 635 269 665 219 639 b 172 606 185 633 172 619 b 204 578 172 588 186 578 b 335 640 235 578 303 618 b 375 451 360 597 375 518 b 204 43 375 265 325 43 b 106 196 143 43 106 115 b 232 413 106 326 168 413 b 274 393 256 413 265 406 b 307 375 283 378 296 375 b 338 406 325 375 338 389 b 236 474 338 419 315 474 b 43 196 136 474 43 361 b 201 -11 43 71 113 -11 z "},"×":{"ha":600,"x_min":0,"x_max":0,"o":"m 258 281 l 68 90 l 108 49 l 299 240 l 492 49 l 532 90 l 340 281 l 532 472 l 492 513 l 299 321 l 108 513 l 68 472 z "},"³":{"ha":375,"x_min":0,"x_max":0,"o":"m 185 444 b 372 600 299 444 372 517 b 338 696 372 639 361 674 b 357 772 350 719 357 743 b 226 893 357 838 315 893 b 96 796 144 893 96 825 b 124 767 96 781 108 767 b 149 788 136 767 144 775 b 226 840 158 824 197 840 b 301 772 289 840 301 797 b 293 728 301 758 299 740 b 213 744 271 739 242 744 b 117 675 157 744 117 714 b 199 608 117 639 150 608 b 304 650 238 608 276 624 b 315 600 313 638 315 619 b 185 496 315 539 261 496 b 117 519 154 496 132 504 b 96 575 99 539 96 569 b 68 601 96 589 85 601 b 42 575 54 601 42 589 b 185 444 42 525 71 444 z m 171 675 b 213 693 171 688 189 693 b 263 683 229 693 250 689 b 199 660 246 669 222 660 b 171 675 183 660 171 664 z "},"©":{"ha":1028,"x_min":0,"x_max":0,"o":"m 507 17 b 117 435 276 17 117 179 b 535 874 117 653 257 874 b 911 463 783 874 911 667 b 507 17 911 244 785 17 z m 972 463 b 535 929 972 701 818 929 b 56 435 225 929 56 692 b 507 -37 56 144 243 -37 b 972 463 819 -37 972 210 z m 633 719 b 665 744 650 719 665 728 b 619 778 665 778 629 778 b 504 685 572 778 526 742 b 294 419 374 669 294 542 b 503 192 294 278 378 192 b 683 290 626 192 683 267 b 674 314 683 300 683 307 b 657 319 669 318 663 319 b 632 308 649 319 638 317 b 503 249 608 272 558 249 b 356 419 401 249 356 325 b 493 626 356 511 410 606 b 610 464 494 524 554 464 b 694 550 663 464 694 499 b 568 685 694 608 650 669 b 619 719 583 707 606 719 z m 636 550 b 608 521 636 528 621 521 b 553 631 589 521 553 558 b 636 550 607 621 636 583 z "},"Á":{"ha":919,"x_min":0,"x_max":0,"o":"m 682 506 b 688 615 686 544 688 581 b 625 847 688 731 668 806 b 517 889 599 875 563 889 b 231 557 381 889 286 733 b 28 363 107 524 28 454 b 175 213 28 293 74 233 b 243 -10 174 74 204 -10 b 275 21 261 -10 275 4 b 267 40 275 28 272 35 b 236 206 249 65 236 125 b 481 376 369 203 481 272 b 450 407 481 394 467 407 b 421 376 432 407 421 394 b 238 263 421 303 331 260 b 279 510 242 336 256 428 b 396 519 315 515 354 519 b 618 474 478 519 554 504 b 597 196 606 340 597 243 b 646 7 597 100 613 42 b 721 -22 664 -12 692 -22 b 878 189 794 -22 878 40 b 682 506 878 313 811 432 z m 658 196 b 678 442 658 251 669 361 b 817 189 760 386 817 296 b 724 33 817 103 781 33 b 658 196 671 33 658 106 z m 517 832 b 581 807 544 832 565 822 b 626 617 611 776 626 713 b 622 535 626 590 625 563 b 396 578 554 563 478 578 b 301 571 363 578 331 575 b 517 832 351 714 424 832 z m 214 492 b 176 269 194 419 179 332 b 90 363 113 288 90 321 b 214 492 90 424 150 468 z m 658 1122 b 538 1042 619 1088 578 1064 b 478 988 485 1011 478 1007 b 510 964 478 979 492 964 b 526 968 514 964 521 967 b 569 994 539 978 554 986 b 699 1082 613 1018 656 1044 b 710 1106 706 1088 710 1096 b 678 1129 710 1115 696 1129 b 658 1122 671 1129 663 1126 z "},"Â":{"ha":919,"x_min":0,"x_max":0,"o":"m 682 506 b 688 615 686 544 688 581 b 625 847 688 731 668 806 b 517 889 599 875 563 889 b 231 557 381 889 286 733 b 28 363 107 524 28 454 b 175 213 28 293 74 233 b 243 -10 174 74 204 -10 b 275 21 261 -10 275 4 b 267 40 275 28 272 35 b 236 206 249 65 236 125 b 481 376 369 203 481 272 b 450 407 481 394 467 407 b 421 376 432 407 421 394 b 238 263 421 303 331 260 b 279 510 242 336 256 428 b 396 519 315 515 354 519 b 618 474 478 519 554 504 b 597 196 606 340 597 243 b 646 7 597 100 613 42 b 721 -22 664 -12 692 -22 b 878 189 794 -22 878 40 b 682 506 878 313 811 432 z m 658 196 b 678 442 658 251 669 361 b 817 189 760 386 817 296 b 724 33 817 103 781 33 b 658 196 671 33 658 106 z m 517 832 b 581 807 544 832 565 822 b 626 617 611 776 626 713 b 622 535 626 590 625 563 b 396 578 554 563 478 578 b 301 571 363 578 331 575 b 517 832 351 714 424 832 z m 214 492 b 176 269 194 419 179 332 b 90 363 113 288 90 321 b 214 492 90 424 150 468 z m 533 1122 b 385 1042 519 1122 415 1063 b 371 1017 376 1036 371 1026 b 403 993 371 1007 385 993 b 419 997 408 993 415 993 b 531 1064 450 1018 490 1043 b 646 981 551 1046 624 981 b 678 1004 664 981 678 994 b 663 1031 678 1015 672 1025 b 554 1114 624 1056 590 1085 b 533 1122 549 1119 542 1122 z "},"Ä":{"ha":919,"x_min":0,"x_max":0,"o":"m 682 506 b 688 615 686 544 688 581 b 625 847 688 731 668 806 b 517 889 599 875 563 889 b 231 557 381 889 286 733 b 28 363 107 524 28 454 b 175 213 28 293 74 233 b 243 -10 174 74 204 -10 b 275 21 261 -10 275 4 b 267 40 275 28 272 35 b 236 206 249 65 236 125 b 481 376 369 203 481 272 b 450 407 481 394 467 407 b 421 376 432 407 421 394 b 238 263 421 303 331 260 b 279 510 242 336 256 428 b 396 519 315 515 354 519 b 618 474 478 519 554 504 b 597 196 606 340 597 243 b 646 7 597 100 613 42 b 721 -22 664 -12 692 -22 b 878 189 794 -22 878 40 b 682 506 878 313 811 432 z m 658 196 b 678 442 658 251 669 361 b 817 189 760 386 817 296 b 724 33 817 103 781 33 b 658 196 671 33 658 106 z m 517 832 b 581 807 544 832 565 822 b 626 617 611 776 626 713 b 622 535 626 590 625 563 b 396 578 554 563 478 578 b 301 571 363 578 331 575 b 517 832 351 714 424 832 z m 214 492 b 176 269 194 419 179 332 b 90 363 113 288 90 321 b 214 492 90 424 150 468 z m 617 1068 b 583 1133 618 1097 618 1133 b 553 1103 567 1133 553 1119 b 556 1081 553 1100 556 1085 b 589 1008 556 1043 556 1008 b 619 1039 606 1008 619 1022 b 617 1058 619 1042 617 1056 z m 467 1068 b 433 1133 468 1097 468 1133 b 403 1103 417 1133 403 1119 b 406 1081 403 1100 406 1085 b 439 1008 406 1043 406 1008 b 469 1039 456 1008 469 1022 b 467 1058 469 1042 467 1056 z "},"À":{"ha":919,"x_min":0,"x_max":0,"o":"m 682 506 b 688 615 686 544 688 581 b 625 847 688 731 668 806 b 517 889 599 875 563 889 b 231 557 381 889 286 733 b 28 363 107 524 28 454 b 175 213 28 293 74 233 b 243 -10 174 74 204 -10 b 275 21 261 -10 275 4 b 267 40 275 28 272 35 b 236 206 249 65 236 125 b 481 376 369 203 481 272 b 450 407 481 394 467 407 b 421 376 432 407 421 394 b 238 263 421 303 331 260 b 279 510 242 336 256 428 b 396 519 315 515 354 519 b 618 474 478 519 554 504 b 597 196 606 340 597 243 b 646 7 597 100 613 42 b 721 -22 664 -12 692 -22 b 878 189 794 -22 878 40 b 682 506 878 313 811 432 z m 658 196 b 678 442 658 251 669 361 b 817 189 760 386 817 296 b 724 33 817 103 781 33 b 658 196 671 33 658 106 z m 517 832 b 581 807 544 832 565 822 b 626 617 611 776 626 713 b 622 535 626 590 625 563 b 396 578 554 563 478 578 b 301 571 363 578 331 575 b 517 832 351 714 424 832 z m 214 492 b 176 269 194 419 179 332 b 90 363 113 288 90 321 b 214 492 90 424 150 468 z m 399 1129 b 367 1099 381 1129 367 1114 b 426 1051 367 1086 374 1082 b 547 971 467 1029 508 1006 b 567 964 551 967 560 964 b 599 988 585 964 599 978 b 588 1011 599 997 594 1006 b 458 1099 544 1049 501 1075 b 415 1125 443 1107 428 1115 b 399 1129 410 1126 403 1129 z "},"Å":{"ha":919,"x_min":0,"x_max":0,"o":"m 682 506 b 688 615 686 544 688 581 b 625 847 688 731 668 806 b 517 889 599 875 563 889 b 231 557 381 889 286 733 b 28 363 107 524 28 454 b 175 213 28 293 74 233 b 243 -10 174 74 204 -10 b 275 21 261 -10 275 4 b 267 40 275 28 272 35 b 236 206 249 65 236 125 b 481 376 369 203 481 272 b 450 407 481 394 467 407 b 421 376 432 407 421 394 b 238 263 421 303 331 260 b 279 510 242 336 256 428 b 396 519 315 515 354 519 b 618 474 478 519 554 504 b 597 196 606 340 597 243 b 646 7 597 100 613 42 b 721 -22 664 -12 692 -22 b 878 189 794 -22 878 40 b 682 506 878 313 811 432 z m 658 196 b 678 442 658 251 669 361 b 817 189 760 386 817 296 b 724 33 817 103 781 33 b 658 196 671 33 658 106 z m 517 832 b 581 807 544 832 565 822 b 626 617 611 776 626 713 b 622 535 626 590 625 563 b 396 578 554 563 478 578 b 301 571 363 578 331 575 b 517 832 351 714 424 832 z m 214 492 b 176 269 194 419 179 332 b 90 363 113 288 90 321 b 214 492 90 424 150 468 z m 526 1017 b 461 1068 499 1017 461 1029 b 485 1111 461 1085 478 1107 b 504 1136 496 1118 504 1125 b 472 1160 504 1153 490 1160 b 407 1067 446 1160 407 1114 b 526 964 407 1010 451 964 b 646 1083 593 964 646 1021 b 551 1172 646 1131 608 1175 b 521 1147 535 1172 521 1165 b 553 1121 521 1133 536 1121 b 590 1083 583 1121 590 1090 b 526 1017 590 1047 567 1017 z "},"Ã":{"ha":919,"x_min":0,"x_max":0,"o":"m 682 506 b 688 615 686 544 688 581 b 625 847 688 731 668 806 b 517 889 599 875 563 889 b 231 557 381 889 286 733 b 28 363 107 524 28 454 b 175 213 28 293 74 233 b 243 -10 174 74 204 -10 b 275 21 261 -10 275 4 b 267 40 275 28 272 35 b 236 206 249 65 236 125 b 481 376 369 203 481 272 b 450 407 481 394 467 407 b 421 376 432 407 421 394 b 238 263 421 303 331 260 b 279 510 242 336 256 428 b 396 519 315 515 354 519 b 618 474 478 519 554 504 b 597 196 606 340 597 243 b 646 7 597 100 613 42 b 721 -22 664 -12 692 -22 b 878 189 794 -22 878 40 b 682 506 878 313 811 432 z m 658 196 b 678 442 658 251 669 361 b 817 189 760 386 817 296 b 724 33 817 103 781 33 b 658 196 671 33 658 106 z m 517 832 b 581 807 544 832 565 822 b 626 617 611 776 626 713 b 622 535 626 590 625 563 b 396 578 554 563 478 578 b 301 571 363 578 331 575 b 517 832 351 714 424 832 z m 214 492 b 176 269 194 419 179 332 b 90 363 113 288 90 321 b 214 492 90 424 150 468 z m 438 1086 b 328 1010 369 1086 328 1031 b 353 979 328 993 342 979 b 378 994 363 979 372 985 b 438 1035 394 1026 417 1035 b 489 1018 456 1035 474 1028 b 582 988 519 996 553 988 b 676 1054 644 988 676 1035 b 669 1079 676 1065 675 1075 b 653 1085 664 1083 658 1085 b 628 1068 643 1085 632 1078 b 582 1039 617 1044 601 1039 b 517 1065 561 1039 536 1054 b 438 1086 493 1079 465 1086 z "},"Ç":{"ha":835,"x_min":0,"x_max":0,"o":"m 367 -24 b 329 -75 353 -40 329 -57 b 360 -115 329 -100 344 -107 b 407 -165 383 -126 407 -137 b 338 -214 407 -197 379 -214 b 294 -200 321 -214 313 -211 b 275 -194 288 -196 282 -194 b 253 -218 265 -194 253 -207 b 339 -267 253 -253 301 -267 b 463 -165 401 -267 463 -226 b 388 -68 463 -100 413 -79 l 435 -19 l 443 -19 b 772 147 676 -19 772 125 b 743 179 772 165 758 179 b 717 165 733 179 722 174 b 443 40 663 86 567 40 b 115 399 232 40 115 200 b 429 814 115 594 235 778 b 426 778 428 803 426 790 b 511 550 426 688 456 604 b 650 486 551 510 601 486 b 794 631 744 486 794 553 b 517 876 794 750 694 867 b 647 951 547 932 597 951 b 696 946 656 951 689 946 b 726 974 713 946 726 956 b 647 1011 726 1008 676 1011 b 446 875 561 1011 482 963 b 54 399 213 851 54 642 b 375 -14 54 185 171 17 z m 650 546 b 489 778 585 546 489 626 b 493 819 489 793 490 807 b 731 631 644 815 731 725 b 650 546 731 606 724 546 z "},"É":{"ha":726,"x_min":0,"x_max":0,"o":"m 419 246 b 165 183 315 246 231 222 b 146 281 154 213 146 246 b 224 468 146 356 171 419 b 467 351 269 399 356 351 b 622 465 611 351 622 439 b 408 597 622 543 532 597 b 251 560 353 597 296 583 b 246 603 247 574 246 588 b 322 768 246 661 269 725 b 538 669 382 706 469 669 b 646 761 601 669 646 708 b 474 874 646 824 583 874 b 401 865 449 874 424 871 b 339 844 379 861 358 854 b 322 910 329 864 322 886 b 293 942 322 928 308 942 b 261 910 275 942 261 928 b 288 815 261 878 271 844 b 183 603 221 763 183 682 b 197 524 183 575 189 547 b 83 281 128 468 83 381 b 114 147 83 231 96 188 b 39 -17 71 107 39 44 b 69 -47 39 -33 53 -47 b 100 -18 86 -47 99 -35 b 149 93 103 24 119 64 b 481 -37 224 3 354 -37 b 674 88 635 -37 674 35 b 419 246 674 185 556 246 z m 611 88 b 481 18 611 49 563 18 b 194 131 365 18 254 58 b 419 189 246 164 326 189 b 611 88 518 189 611 144 z m 561 464 b 465 408 561 429 529 408 b 271 503 376 408 307 451 b 407 539 297 525 360 539 b 561 464 496 539 561 503 z m 474 817 b 585 761 538 817 585 794 b 538 725 585 738 560 725 b 374 797 488 725 418 756 b 474 817 397 808 440 817 z m 617 1122 b 496 1042 578 1088 536 1064 b 436 988 443 1011 436 1007 b 468 964 436 979 450 964 b 485 968 472 964 479 967 b 528 994 497 978 513 986 b 657 1082 571 1018 614 1044 b 668 1106 664 1088 668 1096 b 636 1129 668 1115 654 1129 b 617 1122 629 1129 621 1126 z "},"Ê":{"ha":726,"x_min":0,"x_max":0,"o":"m 419 246 b 165 183 315 246 231 222 b 146 281 154 213 146 246 b 224 468 146 356 171 419 b 467 351 269 399 356 351 b 622 465 611 351 622 439 b 408 597 622 543 532 597 b 251 560 353 597 296 583 b 246 603 247 574 246 588 b 322 768 246 661 269 725 b 538 669 382 706 469 669 b 646 761 601 669 646 708 b 474 874 646 824 583 874 b 401 865 449 874 424 871 b 339 844 379 861 358 854 b 322 910 329 864 322 886 b 293 942 322 928 308 942 b 261 910 275 942 261 928 b 288 815 261 878 271 844 b 183 603 221 763 183 682 b 197 524 183 575 189 547 b 83 281 128 468 83 381 b 114 147 83 231 96 188 b 39 -17 71 107 39 44 b 69 -47 39 -33 53 -47 b 100 -18 86 -47 99 -35 b 149 93 103 24 119 64 b 481 -37 224 3 354 -37 b 674 88 635 -37 674 35 b 419 246 674 185 556 246 z m 611 88 b 481 18 611 49 563 18 b 194 131 365 18 254 58 b 419 189 246 164 326 189 b 611 88 518 189 611 144 z m 561 464 b 465 408 561 429 529 408 b 271 503 376 408 307 451 b 407 539 297 525 360 539 b 561 464 496 539 561 503 z m 474 817 b 585 761 538 817 585 794 b 538 725 585 738 560 725 b 374 797 488 725 418 756 b 474 817 397 808 440 817 z m 465 1122 b 317 1042 451 1122 347 1063 b 303 1017 308 1036 303 1026 b 335 993 303 1007 317 993 b 351 997 340 993 347 993 b 463 1064 382 1018 422 1043 b 578 981 483 1046 556 981 b 610 1004 596 981 610 994 b 594 1031 610 1015 604 1025 b 486 1114 556 1056 522 1085 b 465 1122 481 1119 474 1122 z "},"Ë":{"ha":726,"x_min":0,"x_max":0,"o":"m 419 246 b 165 183 315 246 231 222 b 146 281 154 213 146 246 b 224 468 146 356 171 419 b 467 351 269 399 356 351 b 622 465 611 351 622 439 b 408 597 622 543 532 597 b 251 560 353 597 296 583 b 246 603 247 574 246 588 b 322 768 246 661 269 725 b 538 669 382 706 469 669 b 646 761 601 669 646 708 b 474 874 646 824 583 874 b 401 865 449 874 424 871 b 339 844 379 861 358 854 b 322 910 329 864 322 886 b 293 942 322 928 308 942 b 261 910 275 942 261 928 b 288 815 261 878 271 844 b 183 603 221 763 183 682 b 197 524 183 575 189 547 b 83 281 128 468 83 381 b 114 147 83 231 96 188 b 39 -17 71 107 39 44 b 69 -47 39 -33 53 -47 b 100 -18 86 -47 99 -35 b 149 93 103 24 119 64 b 481 -37 224 3 354 -37 b 674 88 635 -37 674 35 b 419 246 674 185 556 246 z m 611 88 b 481 18 611 49 563 18 b 194 131 365 18 254 58 b 419 189 246 164 326 189 b 611 88 518 189 611 144 z m 561 464 b 465 408 561 429 529 408 b 271 503 376 408 307 451 b 407 539 297 525 360 539 b 561 464 496 539 561 503 z m 474 817 b 585 761 538 817 585 794 b 538 725 585 738 560 725 b 374 797 488 725 418 756 b 474 817 397 808 440 817 z m 549 1068 b 515 1133 550 1097 550 1133 b 485 1103 499 1133 485 1119 b 488 1081 485 1100 488 1085 b 521 1008 488 1043 488 1008 b 551 1039 538 1008 551 1022 b 549 1058 551 1042 549 1056 z m 399 1068 b 365 1133 400 1097 400 1133 b 335 1103 349 1133 335 1119 b 338 1081 335 1100 338 1085 b 371 1008 338 1043 338 1008 b 401 1039 388 1008 401 1022 b 399 1058 401 1042 399 1056 z "},"È":{"ha":726,"x_min":0,"x_max":0,"o":"m 419 246 b 165 183 315 246 231 222 b 146 281 154 213 146 246 b 224 468 146 356 171 419 b 467 351 269 399 356 351 b 622 465 611 351 622 439 b 408 597 622 543 532 597 b 251 560 353 597 296 583 b 246 603 247 574 246 588 b 322 768 246 661 269 725 b 538 669 382 706 469 669 b 646 761 601 669 646 708 b 474 874 646 824 583 874 b 401 865 449 874 424 871 b 339 844 379 861 358 854 b 322 910 329 864 322 886 b 293 942 322 928 308 942 b 261 910 275 942 261 928 b 288 815 261 878 271 844 b 183 603 221 763 183 682 b 197 524 183 575 189 547 b 83 281 128 468 83 381 b 114 147 83 231 96 188 b 39 -17 71 107 39 44 b 69 -47 39 -33 53 -47 b 100 -18 86 -47 99 -35 b 149 93 103 24 119 64 b 481 -37 224 3 354 -37 b 674 88 635 -37 674 35 b 419 246 674 185 556 246 z m 611 88 b 481 18 611 49 563 18 b 194 131 365 18 254 58 b 419 189 246 164 326 189 b 611 88 518 189 611 144 z m 561 464 b 465 408 561 429 529 408 b 271 503 376 408 307 451 b 407 539 297 525 360 539 b 561 464 496 539 561 503 z m 474 817 b 585 761 538 817 585 794 b 538 725 585 738 560 725 b 374 797 488 725 418 756 b 474 817 397 808 440 817 z m 308 1129 b 276 1099 290 1129 276 1114 b 336 1051 276 1086 283 1082 b 457 971 376 1029 418 1006 b 476 964 461 967 469 964 b 508 988 494 964 508 978 b 497 1011 508 997 504 1006 b 368 1099 454 1049 411 1075 b 325 1125 353 1107 338 1115 b 308 1129 319 1126 313 1129 z "},"Í":{"ha":613,"x_min":0,"x_max":0,"o":"m 256 664 b 333 671 283 664 310 667 b 278 429 338 588 310 514 b 218 188 253 357 218 260 b 0 -22 40 140 0 6 b 29 -53 0 -39 11 -53 b 58 -28 43 -53 56 -43 b 219 128 71 46 144 107 b 407 -35 231 31 304 -35 b 571 79 513 -35 571 14 b 356 211 571 147 506 211 b 282 203 332 211 306 207 b 338 407 286 265 315 346 b 394 683 368 494 401 581 b 576 857 539 718 572 803 b 546 892 578 875 565 892 b 515 864 531 892 517 879 b 386 742 508 796 453 758 b 210 882 360 843 285 882 b 72 781 133 882 72 839 b 256 664 72 721 124 664 z m 282 144 b 356 154 307 150 331 154 b 508 81 446 154 508 125 b 408 22 508 40 463 22 b 282 144 335 22 288 74 z m 325 726 b 256 721 299 722 274 721 b 135 781 188 721 135 743 b 210 825 135 808 167 825 b 325 726 288 825 314 772 z m 504 1122 b 383 1042 465 1088 424 1064 b 324 988 331 1011 324 1007 b 356 964 324 979 338 964 b 372 968 360 964 367 967 b 415 994 385 978 400 986 b 544 1082 458 1018 501 1044 b 556 1106 551 1088 556 1096 b 524 1129 556 1115 542 1129 b 504 1122 517 1129 508 1126 z "},"Î":{"ha":613,"x_min":0,"x_max":0,"o":"m 256 664 b 333 671 283 664 310 667 b 278 429 338 588 310 514 b 218 188 253 357 218 260 b 0 -22 40 140 0 6 b 29 -53 0 -39 11 -53 b 58 -28 43 -53 56 -43 b 219 128 71 46 144 107 b 407 -35 231 31 304 -35 b 571 79 513 -35 571 14 b 356 211 571 147 506 211 b 282 203 332 211 306 207 b 338 407 286 265 315 346 b 394 683 368 494 401 581 b 576 857 539 718 572 803 b 546 892 578 875 565 892 b 515 864 531 892 517 879 b 386 742 508 796 453 758 b 210 882 360 843 285 882 b 72 781 133 882 72 839 b 256 664 72 721 124 664 z m 282 144 b 356 154 307 150 331 154 b 508 81 446 154 508 125 b 408 22 508 40 463 22 b 282 144 335 22 288 74 z m 325 726 b 256 721 299 722 274 721 b 135 781 188 721 135 743 b 210 825 135 808 167 825 b 325 726 288 825 314 772 z m 353 1122 b 204 1042 339 1122 235 1063 b 190 1017 196 1036 190 1026 b 222 993 190 1007 204 993 b 239 997 228 993 235 993 b 350 1064 269 1018 310 1043 b 465 981 371 1046 443 981 b 497 1004 483 981 497 994 b 482 1031 497 1015 492 1025 b 374 1114 443 1056 410 1085 b 353 1122 368 1119 361 1122 z "},"Ï":{"ha":613,"x_min":0,"x_max":0,"o":"m 256 664 b 333 671 283 664 310 667 b 278 429 338 588 310 514 b 218 188 253 357 218 260 b 0 -22 40 140 0 6 b 29 -53 0 -39 11 -53 b 58 -28 43 -53 56 -43 b 219 128 71 46 144 107 b 407 -35 231 31 304 -35 b 571 79 513 -35 571 14 b 356 211 571 147 506 211 b 282 203 332 211 306 207 b 338 407 286 265 315 346 b 394 683 368 494 401 581 b 576 857 539 718 572 803 b 546 892 578 875 565 892 b 515 864 531 892 517 879 b 386 742 508 796 453 758 b 210 882 360 843 285 882 b 72 781 133 882 72 839 b 256 664 72 721 124 664 z m 282 144 b 356 154 307 150 331 154 b 508 81 446 154 508 125 b 408 22 508 40 463 22 b 282 144 335 22 288 74 z m 325 726 b 256 721 299 722 274 721 b 135 781 188 721 135 743 b 210 825 135 808 167 825 b 325 726 288 825 314 772 z m 457 1068 b 424 1133 458 1097 458 1133 b 393 1103 407 1133 393 1119 b 396 1081 393 1100 396 1085 b 429 1008 396 1043 396 1008 b 460 1039 446 1008 460 1022 b 457 1058 460 1042 457 1056 z m 307 1068 b 274 1133 308 1097 308 1133 b 243 1103 257 1133 243 1119 b 246 1081 243 1100 246 1085 b 279 1008 246 1043 246 1008 b 310 1039 296 1008 310 1022 b 307 1058 310 1042 307 1056 z "},"Ì":{"ha":613,"x_min":0,"x_max":0,"o":"m 256 664 b 333 671 283 664 310 667 b 278 429 338 588 310 514 b 218 188 253 357 218 260 b 0 -22 40 140 0 6 b 29 -53 0 -39 11 -53 b 58 -28 43 -53 56 -43 b 219 128 71 46 144 107 b 407 -35 231 31 304 -35 b 571 79 513 -35 571 14 b 356 211 571 147 506 211 b 282 203 332 211 306 207 b 338 407 286 265 315 346 b 394 683 368 494 401 581 b 576 857 539 718 572 803 b 546 892 578 875 565 892 b 515 864 531 892 517 879 b 386 742 508 796 453 758 b 210 882 360 843 285 882 b 72 781 133 882 72 839 b 256 664 72 721 124 664 z m 282 144 b 356 154 307 150 331 154 b 508 81 446 154 508 125 b 408 22 508 40 463 22 b 282 144 335 22 288 74 z m 325 726 b 256 721 299 722 274 721 b 135 781 188 721 135 743 b 210 825 135 808 167 825 b 325 726 288 825 314 772 z m 203 1129 b 171 1099 185 1129 171 1114 b 231 1051 171 1086 178 1082 b 351 971 271 1029 313 1006 b 371 964 356 967 364 964 b 403 988 389 964 403 978 b 392 1011 403 997 399 1006 b 263 1099 349 1049 306 1075 b 219 1125 247 1107 232 1115 b 203 1129 214 1126 207 1129 z "},"Ñ":{"ha":986,"x_min":0,"x_max":0,"o":"m 879 551 b 714 31 879 399 817 197 b 710 14 711 25 710 19 b 740 -18 710 -4 724 -18 b 767 -3 750 -18 761 -11 b 942 551 875 174 942 379 b 739 851 942 792 838 851 b 454 685 640 851 542 781 b 421 817 446 731 435 778 b 533 1019 490 867 533 940 b 469 1160 533 1068 507 1160 b 439 1128 451 1160 439 1146 b 443 1113 439 1122 439 1117 b 471 1019 463 1082 471 1051 b 399 874 471 964 443 910 b 151 1058 342 993 251 1058 b 0 929 65 1058 0 1003 b 247 763 0 833 106 763 b 365 786 292 763 344 776 b 400 625 382 739 393 694 b 167 93 264 468 167 231 b 271 -26 167 21 211 -26 b 474 457 400 -26 474 201 b 465 610 474 511 471 563 b 738 794 550 715 647 794 b 879 551 833 794 879 699 z m 413 457 b 275 32 413 206 342 32 b 229 93 243 32 229 64 b 410 544 231 204 303 406 b 413 457 411 519 413 483 z m 64 929 b 151 1001 64 979 100 1001 b 349 839 224 1001 296 949 b 247 819 322 829 282 819 b 64 929 143 819 64 869 z m 679 1086 b 569 1010 611 1086 569 1031 b 594 979 569 993 583 979 b 619 994 604 979 614 985 b 679 1035 636 1026 658 1035 b 731 1018 697 1035 715 1028 b 824 988 761 996 794 988 b 918 1054 886 988 918 1035 b 911 1079 918 1065 917 1075 b 894 1085 906 1083 900 1085 b 869 1068 885 1085 874 1078 b 824 1039 858 1044 843 1039 b 758 1065 803 1039 778 1054 b 679 1086 735 1079 707 1086 z "},"Ó":{"ha":917,"x_min":0,"x_max":0,"o":"m 863 889 b 872 826 869 868 872 846 b 815 688 872 781 857 731 b 472 888 731 828 601 888 b 279 751 356 888 279 829 b 600 553 279 631 432 553 b 789 597 667 553 749 571 b 808 457 803 551 808 510 b 449 50 808 233 651 50 b 119 407 257 50 119 183 b 211 681 119 517 157 631 b 219 701 217 686 219 694 b 189 732 219 719 206 732 b 167 724 181 732 174 729 b 57 407 97 658 57 518 b 446 -7 57 149 219 -7 b 871 457 682 -7 871 189 b 842 632 871 522 863 582 b 933 828 899 681 933 753 b 886 926 933 856 932 939 b 863 896 872 922 863 910 z m 767 651 b 606 610 732 628 663 610 b 340 747 461 610 340 675 b 472 831 340 792 379 831 b 767 651 582 831 696 772 z m 671 1122 b 550 1042 632 1088 590 1064 b 490 988 497 1011 490 1007 b 522 964 490 979 504 964 b 539 968 526 964 533 967 b 582 994 551 978 567 986 b 711 1082 625 1018 668 1044 b 722 1106 718 1088 722 1096 b 690 1129 722 1115 708 1129 b 671 1122 683 1129 675 1126 z "},"Ô":{"ha":917,"x_min":0,"x_max":0,"o":"m 863 889 b 872 826 869 868 872 846 b 815 688 872 781 857 731 b 472 888 731 828 601 888 b 279 751 356 888 279 829 b 600 553 279 631 432 553 b 789 597 667 553 749 571 b 808 457 803 551 808 510 b 449 50 808 233 651 50 b 119 407 257 50 119 183 b 211 681 119 517 157 631 b 219 701 217 686 219 694 b 189 732 219 719 206 732 b 167 724 181 732 174 729 b 57 407 97 658 57 518 b 446 -7 57 149 219 -7 b 871 457 682 -7 871 189 b 842 632 871 522 863 582 b 933 828 899 681 933 753 b 886 926 933 856 932 939 b 863 896 872 922 863 910 z m 767 651 b 606 610 732 628 663 610 b 340 747 461 610 340 675 b 472 831 340 792 379 831 b 767 651 582 831 696 772 z m 532 1122 b 383 1042 518 1122 414 1063 b 369 1017 375 1036 369 1026 b 401 993 369 1007 383 993 b 418 997 407 993 414 993 b 529 1064 449 1018 489 1043 b 644 981 550 1046 622 981 b 676 1004 663 981 676 994 b 661 1031 676 1015 671 1025 b 553 1114 622 1056 589 1085 b 532 1122 547 1119 540 1122 z "},"Ö":{"ha":917,"x_min":0,"x_max":0,"o":"m 863 889 b 872 826 869 868 872 846 b 815 688 872 781 857 731 b 472 888 731 828 601 888 b 279 751 356 888 279 829 b 600 553 279 631 432 553 b 789 597 667 553 749 571 b 808 457 803 551 808 510 b 449 50 808 233 651 50 b 119 407 257 50 119 183 b 211 681 119 517 157 631 b 219 701 217 686 219 694 b 189 732 219 719 206 732 b 167 724 181 732 174 729 b 57 407 97 658 57 518 b 446 -7 57 149 219 -7 b 871 457 682 -7 871 189 b 842 632 871 522 863 582 b 933 828 899 681 933 753 b 886 926 933 856 932 939 b 863 896 872 922 863 910 z m 767 651 b 606 610 732 628 663 610 b 340 747 461 610 340 675 b 472 831 340 792 379 831 b 767 651 582 831 696 772 z m 615 1068 b 582 1133 617 1097 617 1133 b 551 1103 565 1133 551 1119 b 554 1081 551 1100 554 1085 b 588 1008 554 1043 554 1008 b 618 1039 604 1008 618 1022 b 615 1058 618 1042 615 1056 z m 465 1068 b 432 1133 467 1097 467 1133 b 401 1103 415 1133 401 1119 b 404 1081 401 1100 404 1085 b 438 1008 404 1043 404 1008 b 468 1039 454 1008 468 1022 b 465 1058 468 1042 465 1056 z "},"Ò":{"ha":917,"x_min":0,"x_max":0,"o":"m 863 889 b 872 826 869 868 872 846 b 815 688 872 781 857 731 b 472 888 731 828 601 888 b 279 751 356 888 279 829 b 600 553 279 631 432 553 b 789 597 667 553 749 571 b 808 457 803 551 808 510 b 449 50 808 233 651 50 b 119 407 257 50 119 183 b 211 681 119 517 157 631 b 219 701 217 686 219 694 b 189 732 219 719 206 732 b 167 724 181 732 174 729 b 57 407 97 658 57 518 b 446 -7 57 149 219 -7 b 871 457 682 -7 871 189 b 842 632 871 522 863 582 b 933 828 899 681 933 753 b 886 926 933 856 932 939 b 863 896 872 922 863 910 z m 767 651 b 606 610 732 628 663 610 b 340 747 461 610 340 675 b 472 831 340 792 379 831 b 767 651 582 831 696 772 z m 383 1129 b 351 1099 365 1129 351 1114 b 411 1051 351 1086 358 1082 b 532 971 451 1029 493 1006 b 551 964 536 967 544 964 b 583 988 569 964 583 978 b 572 1011 583 997 579 1006 b 443 1099 529 1049 486 1075 b 400 1125 428 1107 413 1115 b 383 1129 394 1126 388 1129 z "},"Õ":{"ha":917,"x_min":0,"x_max":0,"o":"m 863 889 b 872 826 869 868 872 846 b 815 688 872 781 857 731 b 472 888 731 828 601 888 b 279 751 356 888 279 829 b 600 553 279 631 432 553 b 789 597 667 553 749 571 b 808 457 803 551 808 510 b 449 50 808 233 651 50 b 119 407 257 50 119 183 b 211 681 119 517 157 631 b 219 701 217 686 219 694 b 189 732 219 719 206 732 b 167 724 181 732 174 729 b 57 407 97 658 57 518 b 446 -7 57 149 219 -7 b 871 457 682 -7 871 189 b 842 632 871 522 863 582 b 933 828 899 681 933 753 b 886 926 933 856 932 939 b 863 896 872 922 863 910 z m 767 651 b 606 610 732 628 663 610 b 340 747 461 610 340 675 b 472 831 340 792 379 831 b 767 651 582 831 696 772 z m 457 1086 b 347 1010 389 1086 347 1031 b 372 979 347 993 361 979 b 397 994 382 979 392 985 b 457 1035 414 1026 436 1035 b 508 1018 475 1035 493 1028 b 601 988 539 996 572 988 b 696 1054 664 988 696 1035 b 689 1079 696 1065 694 1075 b 672 1085 683 1083 678 1085 b 647 1068 663 1085 651 1078 b 601 1039 636 1044 621 1039 b 536 1065 581 1039 556 1054 b 457 1086 513 1079 485 1086 z "},"Š":{"ha":804,"x_min":0,"x_max":0,"o":"m 460 525 b 254 690 332 571 254 606 b 468 843 254 764 325 843 b 518 838 483 843 503 840 b 492 744 501 813 492 776 b 606 618 492 669 544 618 b 699 717 661 618 699 667 b 647 836 699 750 692 793 b 621 857 640 843 631 850 b 707 882 647 874 676 882 b 740 907 725 882 740 892 b 708 938 740 925 726 938 b 560 886 650 938 599 918 b 469 899 533 893 503 899 b 192 690 286 899 192 794 b 440 469 192 556 315 513 b 696 235 592 418 696 367 b 597 79 696 171 660 111 b 278 378 593 251 458 378 b 46 192 147 378 46 296 b 372 -26 46 60 194 -26 b 453 -22 401 -26 428 -25 b 522 -11 478 -19 501 -15 b 415 -135 500 -72 458 -117 b 396 -164 403 -140 396 -151 b 428 -192 396 -181 410 -192 b 590 11 453 -192 558 -128 b 757 235 701 57 757 142 b 460 525 757 419 593 478 z m 638 717 b 606 675 638 694 626 675 b 553 744 578 675 553 706 b 575 821 553 775 561 800 b 638 717 633 785 638 739 z m 278 319 b 538 51 450 319 546 200 b 372 29 490 36 433 29 b 107 190 224 29 107 99 b 278 319 107 265 186 319 z m 568 1100 b 468 1021 524 1069 497 1046 b 358 1086 428 1042 388 1065 b 340 1092 353 1090 347 1092 b 310 1068 324 1092 310 1078 b 324 1043 310 1057 314 1049 b 472 963 353 1021 457 963 b 497 974 483 963 489 967 b 601 1054 526 999 561 1029 b 615 1081 611 1058 615 1068 b 585 1103 615 1096 601 1103 b 568 1100 578 1103 572 1103 z "},"Ú":{"ha":1007,"x_min":0,"x_max":0,"o":"m 497 38 b 340 292 407 38 340 110 b 347 614 340 343 349 568 b 344 667 347 632 346 650 b 496 894 433 706 496 793 b 439 1031 496 943 481 1031 b 408 1000 421 1031 408 1018 b 415 981 408 993 411 986 b 433 894 426 967 433 929 b 335 726 433 822 396 757 b 174 890 311 835 242 890 b 56 781 107 890 56 842 b 240 644 56 694 143 644 b 283 649 256 644 269 646 b 285 614 285 638 285 626 b 279 292 286 563 279 338 b 497 -19 279 100 351 -19 b 732 106 582 -19 664 31 b 913 -50 768 -14 836 -50 b 967 -17 936 -50 967 -46 b 936 7 967 1 953 7 b 907 6 932 7 911 6 b 778 161 842 6 807 56 b 979 714 899 326 979 567 b 879 868 979 844 917 868 b 693 381 753 868 693 606 b 714 174 693 319 700 243 b 497 38 650 93 575 38 z m 117 781 b 172 831 117 811 143 831 b 278 707 218 831 260 782 b 240 703 268 706 253 703 b 117 781 181 703 117 732 z m 917 714 b 761 232 917 593 863 401 b 754 367 756 269 754 325 b 879 810 753 636 826 810 b 917 714 908 810 917 768 z m 799 1122 b 678 1042 760 1088 718 1064 b 618 988 625 1011 618 1007 b 650 964 618 979 632 964 b 667 968 654 964 661 967 b 710 994 679 978 694 986 b 839 1082 753 1018 796 1044 b 850 1106 846 1088 850 1096 b 818 1129 850 1115 836 1129 b 799 1122 811 1129 803 1126 z "},"Û":{"ha":1007,"x_min":0,"x_max":0,"o":"m 497 38 b 340 292 407 38 340 110 b 347 614 340 343 349 568 b 344 667 347 632 346 650 b 496 894 433 706 496 793 b 439 1031 496 943 481 1031 b 408 1000 421 1031 408 1018 b 415 981 408 993 411 986 b 433 894 426 967 433 929 b 335 726 433 822 396 757 b 174 890 311 835 242 890 b 56 781 107 890 56 842 b 240 644 56 694 143 644 b 283 649 256 644 269 646 b 285 614 285 638 285 626 b 279 292 286 563 279 338 b 497 -19 279 100 351 -19 b 732 106 582 -19 664 31 b 913 -50 768 -14 836 -50 b 967 -17 936 -50 967 -46 b 936 7 967 1 953 7 b 907 6 932 7 911 6 b 778 161 842 6 807 56 b 979 714 899 326 979 567 b 879 868 979 844 917 868 b 693 381 753 868 693 606 b 714 174 693 319 700 243 b 497 38 650 93 575 38 z m 117 781 b 172 831 117 811 143 831 b 278 707 218 831 260 782 b 240 703 268 706 253 703 b 117 781 181 703 117 732 z m 917 714 b 761 232 917 593 863 401 b 754 367 756 269 754 325 b 879 810 753 636 826 810 b 917 714 908 810 917 768 z m 689 1122 b 540 1042 675 1122 571 1063 b 526 1017 532 1036 526 1026 b 558 993 526 1007 540 993 b 575 997 564 993 571 993 b 686 1064 606 1018 646 1043 b 801 981 707 1046 779 981 b 833 1004 819 981 833 994 b 818 1031 833 1015 828 1025 b 710 1114 779 1056 746 1085 b 689 1122 704 1119 697 1122 z "},"Ü":{"ha":1007,"x_min":0,"x_max":0,"o":"m 497 38 b 340 292 407 38 340 110 b 347 614 340 343 349 568 b 344 667 347 632 346 650 b 496 894 433 706 496 793 b 439 1031 496 943 481 1031 b 408 1000 421 1031 408 1018 b 415 981 408 993 411 986 b 433 894 426 967 433 929 b 335 726 433 822 396 757 b 174 890 311 835 242 890 b 56 781 107 890 56 842 b 240 644 56 694 143 644 b 283 649 256 644 269 646 b 285 614 285 638 285 626 b 279 292 286 563 279 338 b 497 -19 279 100 351 -19 b 732 106 582 -19 664 31 b 913 -50 768 -14 836 -50 b 967 -17 936 -50 967 -46 b 936 7 967 1 953 7 b 907 6 932 7 911 6 b 778 161 842 6 807 56 b 979 714 899 326 979 567 b 879 868 979 844 917 868 b 693 381 753 868 693 606 b 714 174 693 319 700 243 b 497 38 650 93 575 38 z m 117 781 b 172 831 117 811 143 831 b 278 707 218 831 260 782 b 240 703 268 706 253 703 b 117 781 181 703 117 732 z m 917 714 b 761 232 917 593 863 401 b 754 367 756 269 754 325 b 879 810 753 636 826 810 b 917 714 908 810 917 768 z m 772 1068 b 739 1133 774 1097 774 1133 b 708 1103 722 1133 708 1119 b 711 1081 708 1100 711 1085 b 744 1008 711 1043 711 1008 b 775 1039 761 1008 775 1022 b 772 1058 775 1042 772 1056 z m 622 1068 b 589 1133 624 1097 624 1133 b 558 1103 572 1133 558 1119 b 561 1081 558 1100 561 1085 b 594 1008 561 1043 561 1008 b 625 1039 611 1008 625 1022 b 622 1058 625 1042 622 1056 z "},"Ù":{"ha":1007,"x_min":0,"x_max":0,"o":"m 497 38 b 340 292 407 38 340 110 b 347 614 340 343 349 568 b 344 667 347 632 346 650 b 496 894 433 706 496 793 b 439 1031 496 943 481 1031 b 408 1000 421 1031 408 1018 b 415 981 408 993 411 986 b 433 894 426 967 433 929 b 335 726 433 822 396 757 b 174 890 311 835 242 890 b 56 781 107 890 56 842 b 240 644 56 694 143 644 b 283 649 256 644 269 646 b 285 614 285 638 285 626 b 279 292 286 563 279 338 b 497 -19 279 100 351 -19 b 732 106 582 -19 664 31 b 913 -50 768 -14 836 -50 b 967 -17 936 -50 967 -46 b 936 7 967 1 953 7 b 907 6 932 7 911 6 b 778 161 842 6 807 56 b 979 714 899 326 979 567 b 879 868 979 844 917 868 b 693 381 753 868 693 606 b 714 174 693 319 700 243 b 497 38 650 93 575 38 z m 117 781 b 172 831 117 811 143 831 b 278 707 218 831 260 782 b 240 703 268 706 253 703 b 117 781 181 703 117 732 z m 917 714 b 761 232 917 593 863 401 b 754 367 756 269 754 325 b 879 810 753 636 826 810 b 917 714 908 810 917 768 z m 553 1129 b 521 1099 535 1129 521 1114 b 581 1051 521 1086 528 1082 b 701 971 621 1029 663 1006 b 721 964 706 967 714 964 b 753 988 739 964 753 978 b 742 1011 753 997 749 1006 b 613 1099 699 1049 656 1075 b 569 1125 597 1107 582 1115 b 553 1129 564 1126 557 1129 z "},"Ý":{"ha":954,"x_min":0,"x_max":0,"o":"m 525 156 b 401 414 444 156 401 215 b 396 646 401 550 401 600 b 513 892 478 706 513 803 b 476 971 513 932 513 971 b 449 940 460 971 449 956 b 453 892 449 932 453 899 b 385 713 453 861 444 769 b 194 910 353 867 264 910 b 51 771 111 910 51 849 b 247 600 51 669 136 600 b 338 615 279 600 310 606 b 340 533 339 590 340 563 l 340 446 b 515 97 340 307 344 97 b 721 206 590 97 653 138 b 276 -297 715 -154 501 -297 b 61 -118 193 -297 61 -254 b 149 -7 61 -54 103 -7 b 204 -65 176 -7 204 -26 b 197 -104 204 -78 201 -90 b 194 -115 196 -107 194 -111 b 226 -146 194 -131 208 -146 b 267 -65 261 -146 267 -92 b 149 51 267 6 211 51 b 0 -118 67 51 0 -25 b 276 -354 0 -281 140 -354 b 782 210 504 -354 782 -217 b 779 271 782 219 781 244 b 961 711 882 403 961 586 b 925 825 961 760 951 803 b 865 849 908 839 885 849 b 713 447 725 849 713 668 b 718 283 713 418 715 358 b 525 156 654 207 596 156 z m 774 447 b 858 792 774 669 793 792 b 900 713 885 792 900 764 b 776 361 900 621 849 475 b 774 447 776 393 774 431 z m 329 674 b 249 657 306 663 278 657 b 114 771 174 657 114 700 b 194 853 114 815 147 853 b 329 674 271 853 313 772 z m 793 1122 b 672 1042 754 1088 713 1064 b 613 988 619 1011 613 1007 b 644 964 613 979 626 964 b 661 968 649 964 656 967 b 704 994 674 978 689 986 b 833 1082 747 1018 790 1044 b 844 1106 840 1088 844 1096 b 813 1129 844 1115 831 1129 b 793 1122 806 1129 797 1126 z "},"Ÿ":{"ha":954,"x_min":0,"x_max":0,"o":"m 525 156 b 401 414 444 156 401 215 b 396 646 401 550 401 600 b 513 892 478 706 513 803 b 476 971 513 932 513 971 b 449 940 460 971 449 956 b 453 892 449 932 453 899 b 385 713 453 861 444 769 b 194 910 353 867 264 910 b 51 771 111 910 51 849 b 247 600 51 669 136 600 b 338 615 279 600 310 606 b 340 533 339 590 340 563 l 340 446 b 515 97 340 307 344 97 b 721 206 590 97 653 138 b 276 -297 715 -154 501 -297 b 61 -118 193 -297 61 -254 b 149 -7 61 -54 103 -7 b 204 -65 176 -7 204 -26 b 197 -104 204 -78 201 -90 b 194 -115 196 -107 194 -111 b 226 -146 194 -131 208 -146 b 267 -65 261 -146 267 -92 b 149 51 267 6 211 51 b 0 -118 67 51 0 -25 b 276 -354 0 -281 140 -354 b 782 210 504 -354 782 -217 b 779 271 782 219 781 244 b 961 711 882 403 961 586 b 925 825 961 760 951 803 b 865 849 908 839 885 849 b 713 447 725 849 713 668 b 718 283 713 418 715 358 b 525 156 654 207 596 156 z m 774 447 b 858 792 774 669 793 792 b 900 713 885 792 900 764 b 776 361 900 621 849 475 b 774 447 776 393 774 431 z m 329 674 b 249 657 306 663 278 657 b 114 771 174 657 114 700 b 194 853 114 815 147 853 b 329 674 271 853 313 772 z m 760 1068 b 726 1133 761 1097 761 1133 b 696 1103 710 1133 696 1119 b 699 1081 696 1100 699 1085 b 732 1008 699 1043 699 1008 b 763 1039 749 1008 763 1022 b 760 1058 763 1042 760 1056 z m 610 1068 b 576 1133 611 1097 611 1133 b 546 1103 560 1133 546 1119 b 549 1081 546 1100 549 1085 b 582 1008 549 1043 549 1008 b 613 1039 599 1008 613 1022 b 610 1058 613 1042 610 1056 z "},"Ž":{"ha":1097,"x_min":0,"x_max":0,"o":"m 515 71 b 368 154 464 103 407 135 b 538 408 431 231 472 303 l 567 456 b 707 660 603 514 656 596 b 792 646 739 650 768 646 b 965 775 890 646 965 699 b 879 858 965 826 936 858 b 685 729 804 858 747 806 b 478 835 596 763 549 797 b 492 929 488 865 492 899 b 418 1088 492 1008 453 1088 b 389 1056 403 1088 389 1074 b 396 1036 389 1050 392 1043 b 432 931 417 1011 432 971 b 421 863 432 907 428 885 b 235 915 358 896 304 915 b 89 789 156 915 89 869 b 249 658 89 706 157 658 b 453 782 328 658 411 703 b 646 679 522 742 582 707 b 519 490 600 618 556 550 l 493 447 b 308 181 426 339 376 258 b 179 210 263 199 226 210 b 0 74 57 210 0 144 b 97 -14 0 17 46 -14 b 324 107 185 -14 251 25 b 536 -14 389 75 453 35 b 850 -129 657 -85 733 -129 b 1057 56 971 -129 1057 -46 b 908 214 1057 140 1003 214 b 878 183 892 214 878 200 b 908 153 878 167 892 153 b 996 56 968 153 996 103 b 849 -71 996 -21 936 -71 b 588 25 775 -71 699 -46 z m 875 801 b 904 772 894 801 904 785 b 788 704 904 729 865 704 b 744 710 776 704 761 706 b 875 801 789 764 833 801 z m 249 717 b 151 789 190 717 151 744 b 236 858 151 828 188 858 b 400 808 294 858 350 833 b 249 717 375 764 318 717 z m 63 76 b 175 151 63 113 96 151 b 265 132 206 151 231 144 b 106 43 217 82 160 43 b 63 76 76 43 63 63 z m 778 1100 b 678 1021 733 1069 707 1046 b 568 1086 638 1042 597 1065 b 550 1092 563 1090 557 1092 b 519 1068 533 1092 519 1078 b 533 1043 519 1057 524 1049 b 682 963 563 1021 667 963 b 707 974 693 963 699 967 b 811 1054 736 999 771 1029 b 825 1081 821 1058 825 1068 b 794 1103 825 1096 811 1103 b 778 1100 788 1103 782 1103 z "},"á":{"ha":481,"x_min":0,"x_max":0,"o":"m 300 481 b 47 135 147 481 47 279 b 160 -11 47 31 104 -11 b 304 106 260 -11 304 82 b 275 136 304 122 293 136 b 249 118 264 136 253 129 b 169 47 235 81 207 47 b 110 135 133 47 110 83 b 294 422 110 261 189 422 b 367 331 331 422 367 397 b 349 176 367 282 357 228 b 333 58 342 126 333 88 b 372 -8 333 31 342 -8 b 404 21 389 -8 404 6 b 399 38 404 28 401 32 b 396 56 397 42 396 47 b 410 167 396 83 404 131 b 428 333 419 219 428 281 b 300 481 428 429 379 481 z m 369 694 b 244 594 336 665 290 631 b 233 571 238 589 233 581 b 254 546 233 560 243 546 b 279 554 261 546 269 547 b 417 660 313 578 379 632 b 444 703 436 675 444 689 b 419 726 444 718 433 726 b 403 722 415 726 408 724 b 369 694 390 713 376 700 z "},"â":{"ha":481,"x_min":0,"x_max":0,"o":"m 300 481 b 47 135 147 481 47 279 b 160 -11 47 31 104 -11 b 304 106 260 -11 304 82 b 275 136 304 122 293 136 b 249 118 264 136 253 129 b 169 47 235 81 207 47 b 110 135 133 47 110 83 b 294 422 110 261 189 422 b 367 331 331 422 367 397 b 349 176 367 282 357 228 b 333 58 342 126 333 88 b 372 -8 333 31 342 -8 b 404 21 389 -8 404 6 b 399 38 404 28 401 32 b 396 56 397 42 396 47 b 410 167 396 83 404 131 b 428 333 419 219 428 281 b 300 481 428 429 379 481 z m 306 713 b 171 625 292 713 201 644 b 157 600 163 619 157 610 b 185 576 157 590 168 576 b 206 581 192 576 200 578 b 300 653 236 601 263 626 b 404 564 324 629 382 564 b 436 588 422 564 436 576 b 421 614 436 599 431 608 b 324 707 381 639 363 668 b 306 713 321 710 315 713 z "},"ä":{"ha":481,"x_min":0,"x_max":0,"o":"m 300 481 b 47 135 147 481 47 279 b 160 -11 47 31 104 -11 b 304 106 260 -11 304 82 b 275 136 304 122 293 136 b 249 118 264 136 253 129 b 169 47 235 81 207 47 b 110 135 133 47 110 83 b 294 422 110 261 189 422 b 367 331 331 422 367 397 b 349 176 367 282 357 228 b 333 58 342 126 333 88 b 372 -8 333 31 342 -8 b 404 21 389 -8 404 6 b 399 38 404 28 401 32 b 396 56 397 42 396 47 b 410 167 396 83 404 131 b 428 333 419 219 428 281 b 300 481 428 429 379 481 z m 397 651 b 364 717 399 681 399 717 b 333 686 347 717 333 703 b 336 664 333 683 336 668 b 369 592 336 626 336 592 b 400 622 386 592 400 606 b 397 642 400 625 397 639 z m 247 651 b 214 717 249 681 249 717 b 183 686 197 717 183 703 b 186 664 183 683 186 668 b 219 592 186 626 186 592 b 250 622 236 592 250 606 b 247 642 250 625 247 639 z "},"à":{"ha":481,"x_min":0,"x_max":0,"o":"m 300 481 b 47 135 147 481 47 279 b 160 -11 47 31 104 -11 b 304 106 260 -11 304 82 b 275 136 304 122 293 136 b 249 118 264 136 253 129 b 169 47 235 81 207 47 b 110 135 133 47 110 83 b 294 422 110 261 189 422 b 367 331 331 422 367 397 b 349 176 367 282 357 228 b 333 58 342 126 333 88 b 372 -8 333 31 342 -8 b 404 21 389 -8 404 6 b 399 38 404 28 401 32 b 396 56 397 42 396 47 b 410 167 396 83 404 131 b 428 333 419 219 428 281 b 300 481 428 429 379 481 z m 361 571 b 350 594 361 581 357 589 b 225 694 304 631 258 665 b 192 722 218 700 204 713 b 175 726 186 724 179 726 b 150 703 161 726 150 718 b 178 660 150 689 156 676 b 315 551 215 632 282 578 b 340 543 325 544 333 543 b 361 571 351 543 361 554 z "},"å":{"ha":481,"x_min":0,"x_max":0,"o":"m 300 481 b 47 135 147 481 47 279 b 160 -11 47 31 104 -11 b 304 106 260 -11 304 82 b 275 136 304 122 293 136 b 249 118 264 136 253 129 b 169 47 235 81 207 47 b 110 135 133 47 110 83 b 294 422 110 261 189 422 b 367 331 331 422 367 397 b 349 176 367 282 357 228 b 333 58 342 126 333 88 b 372 -8 333 31 342 -8 b 404 21 389 -8 404 6 b 399 38 404 28 401 32 b 396 56 397 42 396 47 b 410 167 396 83 404 131 b 428 333 419 219 428 281 b 300 481 428 429 379 481 z m 276 554 b 389 667 336 554 389 608 b 301 756 389 708 349 758 b 271 735 285 756 271 750 b 303 704 271 717 286 704 b 333 667 321 704 333 678 b 275 607 333 636 315 607 b 218 651 250 607 218 622 b 235 694 218 669 228 690 b 254 719 246 701 254 708 b 222 743 254 736 240 743 b 164 651 196 743 164 699 b 276 554 164 600 208 554 z "},"ã":{"ha":481,"x_min":0,"x_max":0,"o":"m 300 481 b 47 135 147 481 47 279 b 160 -11 47 31 104 -11 b 304 106 260 -11 304 82 b 275 136 304 122 293 136 b 249 118 264 136 253 129 b 169 47 235 81 207 47 b 110 135 133 47 110 83 b 294 422 110 261 189 422 b 367 331 331 422 367 397 b 349 176 367 282 357 228 b 333 58 342 126 333 88 b 372 -8 333 31 342 -8 b 404 21 389 -8 404 6 b 399 38 404 28 401 32 b 396 56 397 42 396 47 b 410 167 396 83 404 131 b 428 333 419 219 428 281 b 300 481 428 429 379 481 z m 346 578 b 422 650 394 578 422 632 b 413 676 422 661 419 672 b 396 682 407 681 401 682 b 371 664 386 682 375 675 b 339 629 365 649 356 629 b 292 653 325 629 310 636 b 217 683 265 676 240 683 b 128 600 165 683 128 624 b 156 569 128 583 139 569 b 178 583 165 569 175 575 b 218 632 186 610 199 632 b 268 606 232 632 249 624 b 346 578 289 586 319 578 z "},"ç":{"ha":417,"x_min":0,"x_max":0,"o":"m 151 -253 b 261 -158 200 -253 261 -214 b 181 -64 261 -96 211 -72 l 226 -11 b 375 97 318 -1 375 72 b 349 129 375 115 365 129 b 322 111 336 129 328 121 b 208 42 294 61 246 42 b 115 167 178 42 115 56 b 282 415 115 269 174 415 b 331 389 307 415 321 403 b 357 374 338 379 347 374 b 386 404 375 374 386 388 b 382 424 386 410 385 418 b 286 475 371 451 343 475 b 53 167 149 475 53 318 b 167 -8 53 61 99 6 l 164 -10 b 128 -68 147 -31 128 -50 b 165 -110 128 -96 150 -103 b 206 -160 189 -121 206 -132 b 157 -200 206 -185 174 -200 b 114 -186 140 -200 128 -197 b 94 -181 107 -182 101 -181 b 67 -211 78 -181 67 -194 b 151 -253 67 -239 121 -253 z "},"é":{"ha":414,"x_min":0,"x_max":0,"o":"m 200 261 b 169 231 182 260 169 246 b 200 201 169 213 183 201 b 397 365 282 201 397 256 b 281 472 397 421 364 472 b 49 175 171 472 49 350 b 222 -14 49 57 117 -14 b 374 68 307 -14 374 42 b 346 100 374 86 363 100 b 324 89 336 100 329 96 b 226 43 300 60 263 43 b 111 175 126 43 111 128 b 279 413 111 324 210 413 b 335 365 315 413 335 393 b 200 261 335 303 265 263 z m 364 694 b 239 594 331 665 285 631 b 228 571 232 589 228 581 b 249 546 228 560 238 546 b 274 554 256 546 264 547 b 411 660 307 578 374 632 b 439 703 431 675 439 689 b 414 726 439 718 428 726 b 397 722 410 726 403 724 b 364 694 385 713 371 700 z "},"ê":{"ha":414,"x_min":0,"x_max":0,"o":"m 200 261 b 169 231 182 260 169 246 b 200 201 169 213 183 201 b 397 365 282 201 397 256 b 281 472 397 421 364 472 b 49 175 171 472 49 350 b 222 -14 49 57 117 -14 b 374 68 307 -14 374 42 b 346 100 374 86 363 100 b 324 89 336 100 329 96 b 226 43 300 60 263 43 b 111 175 126 43 111 128 b 279 413 111 324 210 413 b 335 365 315 413 335 393 b 200 261 335 303 265 263 z m 286 713 b 151 625 272 713 182 644 b 138 600 143 619 138 610 b 165 576 138 590 149 576 b 186 581 172 576 181 578 b 281 653 217 601 243 626 b 385 564 304 629 363 564 b 417 588 403 564 417 576 b 401 614 417 599 411 608 b 304 707 361 639 343 668 b 286 713 301 710 296 713 z "},"ë":{"ha":414,"x_min":0,"x_max":0,"o":"m 200 261 b 169 231 182 260 169 246 b 200 201 169 213 183 201 b 397 365 282 201 397 256 b 281 472 397 421 364 472 b 49 175 171 472 49 350 b 222 -14 49 57 117 -14 b 374 68 307 -14 374 42 b 346 100 374 86 363 100 b 324 89 336 100 329 96 b 226 43 300 60 263 43 b 111 175 126 43 111 128 b 279 413 111 324 210 413 b 335 365 315 413 335 393 b 200 261 335 303 265 263 z m 378 651 b 344 717 379 681 379 717 b 314 686 328 717 314 703 b 317 664 314 683 317 668 b 350 592 317 626 317 592 b 381 622 367 592 381 606 b 378 642 381 625 378 639 z m 228 651 b 194 717 229 681 229 717 b 164 686 178 717 164 703 b 167 664 164 683 167 668 b 200 592 167 626 167 592 b 231 622 217 592 231 606 b 228 642 231 625 228 639 z "},"è":{"ha":414,"x_min":0,"x_max":0,"o":"m 200 261 b 169 231 182 260 169 246 b 200 201 169 213 183 201 b 397 365 282 201 397 256 b 281 472 397 421 364 472 b 49 175 171 472 49 350 b 222 -14 49 57 117 -14 b 374 68 307 -14 374 42 b 346 100 374 86 363 100 b 324 89 336 100 329 96 b 226 43 300 60 263 43 b 111 175 126 43 111 128 b 279 413 111 324 210 413 b 335 365 315 413 335 393 b 200 261 335 303 265 263 z m 342 571 b 331 594 342 581 338 589 b 206 694 285 631 239 665 b 172 722 199 700 185 713 b 156 726 167 724 160 726 b 131 703 142 726 131 718 b 158 660 131 689 136 676 b 296 551 196 632 263 578 b 321 543 306 544 314 543 b 342 571 332 543 342 554 z "},"í":{"ha":222,"x_min":0,"x_max":0,"o":"m 156 461 b 118 439 139 465 121 456 b 56 14 76 274 56 32 b 88 -18 56 -4 69 -18 b 118 11 104 -18 117 -6 b 178 424 126 143 153 324 b 179 431 179 426 179 429 b 156 461 179 444 169 457 z m 226 694 b 101 594 193 665 147 631 b 90 571 94 589 90 581 b 111 546 90 560 100 546 b 136 554 118 546 126 547 b 274 660 169 578 236 632 b 301 703 293 675 301 689 b 276 726 301 718 290 726 b 260 722 272 726 265 724 b 226 694 247 713 233 700 z "},"î":{"ha":222,"x_min":0,"x_max":0,"o":"m 156 461 b 118 439 139 465 121 456 b 56 14 76 274 56 32 b 88 -18 56 -4 69 -18 b 118 11 104 -18 117 -6 b 178 424 126 143 153 324 b 179 431 179 426 179 429 b 156 461 179 444 169 457 z m 163 713 b 28 625 149 713 58 644 b 14 600 19 619 14 610 b 42 576 14 590 25 576 b 63 581 49 576 57 578 b 157 653 93 601 119 626 b 261 564 181 629 239 564 b 293 588 279 564 293 576 b 278 614 293 599 288 608 b 181 707 238 639 219 668 b 163 713 178 710 172 713 z "},"ï":{"ha":222,"x_min":0,"x_max":0,"o":"m 156 461 b 118 439 139 465 121 456 b 56 14 76 274 56 32 b 88 -18 56 -4 69 -18 b 118 11 104 -18 117 -6 b 178 424 126 143 153 324 b 179 431 179 426 179 429 b 156 461 179 444 169 457 z m 254 651 b 221 717 256 681 256 717 b 190 686 204 717 190 703 b 193 664 190 683 193 668 b 226 592 193 626 193 592 b 257 622 243 592 257 606 b 254 642 257 625 254 639 z m 104 651 b 71 717 106 681 106 717 b 40 686 54 717 40 703 b 43 664 40 683 43 668 b 76 592 43 626 43 592 b 107 622 93 592 107 606 b 104 642 107 625 104 639 z "},"ì":{"ha":222,"x_min":0,"x_max":0,"o":"m 156 461 b 118 439 139 465 121 456 b 56 14 76 274 56 32 b 88 -18 56 -4 69 -18 b 118 11 104 -18 117 -6 b 178 424 126 143 153 324 b 179 431 179 426 179 429 b 156 461 179 444 169 457 z m 232 571 b 221 594 232 581 228 589 b 96 694 175 631 129 665 b 63 722 89 700 75 713 b 46 726 57 724 50 726 b 21 703 32 726 21 718 b 49 660 21 689 26 676 b 186 551 86 632 153 578 b 211 543 196 544 204 543 b 232 571 222 543 232 554 z "},"ñ":{"ha":486,"x_min":0,"x_max":0,"o":"m 319 469 b 165 339 257 469 203 425 b 106 474 171 422 133 474 b 75 444 89 474 75 460 b 82 422 75 436 78 429 b 107 339 100 404 106 381 b 78 168 106 292 93 231 b 47 28 72 146 47 44 b 76 -4 47 10 58 -4 b 106 19 92 -4 103 6 b 314 406 150 249 239 406 b 364 279 350 406 364 353 b 333 35 364 189 344 83 b 332 29 332 32 332 31 b 364 -3 332 11 346 -3 b 394 25 368 -3 390 -3 b 426 279 404 72 426 182 b 319 469 426 450 351 469 z m 342 578 b 418 650 390 578 418 632 b 408 676 418 661 415 672 b 392 682 403 681 397 682 b 367 664 382 682 371 675 b 335 629 361 649 351 629 b 288 653 321 629 306 636 b 213 683 261 676 236 683 b 124 600 161 683 124 624 b 151 569 124 583 135 569 b 174 583 161 569 171 575 b 214 632 182 610 194 632 b 264 606 228 632 244 624 b 342 578 285 586 315 578 z "},"ó":{"ha":474,"x_min":0,"x_max":0,"o":"m 296 483 b 160 347 207 483 160 414 b 282 231 160 283 201 231 b 319 261 317 231 319 253 b 288 292 319 278 306 292 b 222 347 264 292 222 292 b 293 425 222 381 240 425 b 382 294 360 425 382 350 b 218 44 382 176 318 44 b 118 201 147 44 118 129 b 131 290 118 231 122 269 b 133 304 132 294 133 299 b 104 335 133 319 121 335 b 75 313 92 335 79 325 b 56 200 61 275 56 239 b 215 -14 56 71 119 -14 b 444 294 357 -14 444 146 b 296 483 444 406 388 483 z m 379 694 b 254 594 346 665 300 631 b 243 571 247 589 243 581 b 264 546 243 560 253 546 b 289 554 271 546 279 547 b 426 660 322 578 389 632 b 454 703 446 675 454 689 b 429 726 454 718 443 726 b 413 722 425 726 418 724 b 379 694 400 713 386 700 z "},"ô":{"ha":474,"x_min":0,"x_max":0,"o":"m 296 483 b 160 347 207 483 160 414 b 282 231 160 283 201 231 b 319 261 317 231 319 253 b 288 292 319 278 306 292 b 222 347 264 292 222 292 b 293 425 222 381 240 425 b 382 294 360 425 382 350 b 218 44 382 176 318 44 b 118 201 147 44 118 129 b 131 290 118 231 122 269 b 133 304 132 294 133 299 b 104 335 133 319 121 335 b 75 313 92 335 79 325 b 56 200 61 275 56 239 b 215 -14 56 71 119 -14 b 444 294 357 -14 444 146 b 296 483 444 406 388 483 z m 289 713 b 154 625 275 713 185 644 b 140 600 146 619 140 610 b 168 576 140 590 151 576 b 189 581 175 576 183 578 b 283 653 219 601 246 626 b 388 564 307 629 365 564 b 419 588 406 564 419 576 b 404 614 419 599 414 608 b 307 707 364 639 346 668 b 289 713 304 710 299 713 z "},"ö":{"ha":474,"x_min":0,"x_max":0,"o":"m 296 483 b 160 347 207 483 160 414 b 282 231 160 283 201 231 b 319 261 317 231 319 253 b 288 292 319 278 306 292 b 222 347 264 292 222 292 b 293 425 222 381 240 425 b 382 294 360 425 382 350 b 218 44 382 176 318 44 b 118 201 147 44 118 129 b 131 290 118 231 122 269 b 133 304 132 294 133 299 b 104 335 133 319 121 335 b 75 313 92 335 79 325 b 56 200 61 275 56 239 b 215 -14 56 71 119 -14 b 444 294 357 -14 444 146 b 296 483 444 406 388 483 z m 394 651 b 361 717 396 681 396 717 b 331 686 344 717 331 703 b 333 664 331 683 333 668 b 367 592 333 626 333 592 b 397 622 383 592 397 606 b 394 642 397 625 394 639 z m 244 651 b 211 717 246 681 246 717 b 181 686 194 717 181 703 b 183 664 181 683 183 668 b 217 592 183 626 183 592 b 247 622 233 592 247 606 b 244 642 247 625 244 639 z "},"ò":{"ha":474,"x_min":0,"x_max":0,"o":"m 296 483 b 160 347 207 483 160 414 b 282 231 160 283 201 231 b 319 261 317 231 319 253 b 288 292 319 278 306 292 b 222 347 264 292 222 292 b 293 425 222 381 240 425 b 382 294 360 425 382 350 b 218 44 382 176 318 44 b 118 201 147 44 118 129 b 131 290 118 231 122 269 b 133 304 132 294 133 299 b 104 335 133 319 121 335 b 75 313 92 335 79 325 b 56 200 61 275 56 239 b 215 -14 56 71 119 -14 b 444 294 357 -14 444 146 b 296 483 444 406 388 483 z m 357 571 b 346 594 357 581 353 589 b 221 694 300 631 254 665 b 188 722 214 700 200 713 b 171 726 182 724 175 726 b 146 703 157 726 146 718 b 174 660 146 689 151 676 b 311 551 211 632 278 578 b 336 543 321 544 329 543 b 357 571 347 543 357 554 z "},"õ":{"ha":474,"x_min":0,"x_max":0,"o":"m 296 483 b 160 347 207 483 160 414 b 282 231 160 283 201 231 b 319 261 317 231 319 253 b 288 292 319 278 306 292 b 222 347 264 292 222 292 b 293 425 222 381 240 425 b 382 294 360 425 382 350 b 218 44 382 176 318 44 b 118 201 147 44 118 129 b 131 290 118 231 122 269 b 133 304 132 294 133 299 b 104 335 133 319 121 335 b 75 313 92 335 79 325 b 56 200 61 275 56 239 b 215 -14 56 71 119 -14 b 444 294 357 -14 444 146 b 296 483 444 406 388 483 z m 350 578 b 426 650 399 578 426 632 b 417 676 426 661 424 672 b 400 682 411 681 406 682 b 375 664 390 682 379 675 b 343 629 369 649 360 629 b 296 653 329 629 314 636 b 221 683 269 676 244 683 b 132 600 169 683 132 624 b 160 569 132 583 143 569 b 182 583 169 569 179 575 b 222 632 190 610 203 632 b 272 606 236 632 253 624 b 350 578 293 586 324 578 z "},"š":{"ha":396,"x_min":0,"x_max":0,"o":"m 125 196 b 29 96 72 196 29 154 b 181 -19 29 26 101 -19 b 347 131 286 -19 347 44 b 233 282 347 201 301 242 b 165 358 178 315 165 332 b 235 422 165 394 190 422 b 294 378 271 422 290 392 b 319 360 297 367 311 360 b 351 392 338 360 351 374 b 236 475 351 415 319 475 b 104 358 150 475 104 415 b 206 228 104 289 161 251 b 285 122 268 194 285 156 b 182 31 285 60 232 31 b 92 97 132 31 92 64 b 125 138 92 117 99 138 b 147 133 135 138 139 135 b 175 160 156 132 175 136 b 125 196 175 188 150 196 z m 233 539 b 368 626 247 539 338 607 b 382 651 376 632 382 642 b 354 675 382 661 371 675 b 333 671 347 675 339 674 b 239 599 303 650 276 625 b 135 688 215 622 157 688 b 103 664 117 688 103 675 b 118 638 103 653 108 643 b 215 544 158 613 176 583 b 233 539 218 542 224 539 z "},"ú":{"ha":467,"x_min":0,"x_max":0,"o":"m 144 426 b 113 457 144 443 131 457 b 81 424 88 457 83 436 b 50 176 71 374 50 269 b 169 -14 50 18 119 -14 b 326 125 231 -14 290 39 b 389 -11 325 47 360 -11 b 419 19 406 -11 419 3 b 413 40 419 26 418 33 b 385 136 393 61 385 92 b 408 324 385 185 396 249 b 428 438 418 371 426 424 b 406 472 431 454 419 472 b 369 446 385 472 372 463 b 169 46 339 226 258 46 b 111 176 124 46 111 113 b 144 419 111 263 131 358 z m 349 694 b 224 594 315 665 269 631 b 213 571 217 589 213 581 b 233 546 213 560 222 546 b 258 554 240 546 249 547 b 396 660 292 578 358 632 b 424 703 415 675 424 689 b 399 726 424 718 413 726 b 382 722 394 726 388 724 b 349 694 369 713 356 700 z "},"û":{"ha":467,"x_min":0,"x_max":0,"o":"m 144 426 b 113 457 144 443 131 457 b 81 424 88 457 83 436 b 50 176 71 374 50 269 b 169 -14 50 18 119 -14 b 326 125 231 -14 290 39 b 389 -11 325 47 360 -11 b 419 19 406 -11 419 3 b 413 40 419 26 418 33 b 385 136 393 61 385 92 b 408 324 385 185 396 249 b 428 438 418 371 426 424 b 406 472 431 454 419 472 b 369 446 385 472 372 463 b 169 46 339 226 258 46 b 111 176 124 46 111 113 b 144 419 111 263 131 358 z m 271 713 b 136 625 257 713 167 644 b 122 600 128 619 122 610 b 150 576 122 590 133 576 b 171 581 157 576 165 578 b 265 653 201 601 228 626 b 369 564 289 629 347 564 b 401 588 388 564 401 576 b 386 614 401 599 396 608 b 289 707 346 639 328 668 b 271 713 286 710 281 713 z "},"ü":{"ha":467,"x_min":0,"x_max":0,"o":"m 144 426 b 113 457 144 443 131 457 b 81 424 88 457 83 436 b 50 176 71 374 50 269 b 169 -14 50 18 119 -14 b 326 125 231 -14 290 39 b 389 -11 325 47 360 -11 b 419 19 406 -11 419 3 b 413 40 419 26 418 33 b 385 136 393 61 385 92 b 408 324 385 185 396 249 b 428 438 418 371 426 424 b 406 472 431 454 419 472 b 369 446 385 472 372 463 b 169 46 339 226 258 46 b 111 176 124 46 111 113 b 144 419 111 263 131 358 z m 376 651 b 343 717 378 681 378 717 b 313 686 326 717 313 703 b 315 664 313 683 315 668 b 349 592 315 626 315 592 b 379 622 365 592 379 606 b 376 642 379 625 376 639 z m 226 651 b 193 717 228 681 228 717 b 163 686 176 717 163 703 b 165 664 163 683 165 668 b 199 592 165 626 165 592 b 229 622 215 592 229 606 b 226 642 229 625 226 639 z "},"ù":{"ha":467,"x_min":0,"x_max":0,"o":"m 144 426 b 113 457 144 443 131 457 b 81 424 88 457 83 436 b 50 176 71 374 50 269 b 169 -14 50 18 119 -14 b 326 125 231 -14 290 39 b 389 -11 325 47 360 -11 b 419 19 406 -11 419 3 b 413 40 419 26 418 33 b 385 136 393 61 385 92 b 408 324 385 185 396 249 b 428 438 418 371 426 424 b 406 472 431 454 419 472 b 369 446 385 472 372 463 b 169 46 339 226 258 46 b 111 176 124 46 111 113 b 144 419 111 263 131 358 z m 313 571 b 301 594 313 581 308 589 b 176 694 256 631 210 665 b 143 722 169 700 156 713 b 126 726 138 724 131 726 b 101 703 113 726 101 718 b 129 660 101 689 107 676 b 267 551 167 632 233 578 b 292 543 276 544 285 543 b 313 571 303 543 313 554 z "},"ý":{"ha":460,"x_min":0,"x_max":0,"o":"m 150 438 b 119 469 150 456 136 469 b 86 438 93 469 89 447 b 56 185 76 386 56 281 b 171 -6 56 88 85 -6 b 347 172 239 -6 313 75 b 296 -94 339 88 318 -25 b 207 -82 271 -86 239 -82 b -118 -315 61 -82 -118 -172 b 11 -433 -118 -400 -57 -433 b 332 -176 135 -433 271 -333 b 375 -242 344 -182 375 -203 b 404 -272 375 -258 388 -272 b 435 -242 421 -272 435 -258 b 354 -117 435 -189 400 -143 b 404 175 390 3 400 117 b 418 439 408 240 418 376 b 390 469 418 456 407 469 b 358 440 374 469 358 457 b 171 56 360 272 256 56 b 118 185 124 56 118 144 b 149 432 118 274 138 372 z m 19 -376 b -56 -311 -18 -376 -56 -356 b 207 -139 -56 -212 92 -139 b 279 -147 231 -139 260 -142 b 19 -376 225 -286 115 -376 z m 372 694 b 247 594 339 665 293 631 b 236 571 240 589 236 581 b 257 546 236 560 246 546 b 282 554 264 546 272 547 b 419 660 315 578 382 632 b 447 703 439 675 447 689 b 422 726 447 718 436 726 b 406 722 418 726 411 724 b 372 694 393 713 379 700 z "},"ÿ":{"ha":460,"x_min":0,"x_max":0,"o":"m 150 438 b 119 469 150 456 136 469 b 86 438 93 469 89 447 b 56 185 76 386 56 281 b 171 -6 56 88 85 -6 b 347 172 239 -6 313 75 b 296 -94 339 88 318 -25 b 207 -82 271 -86 239 -82 b -118 -315 61 -82 -118 -172 b 11 -433 -118 -400 -57 -433 b 332 -176 135 -433 271 -333 b 375 -242 344 -182 375 -203 b 404 -272 375 -258 388 -272 b 435 -242 421 -272 435 -258 b 354 -117 435 -189 400 -143 b 404 175 390 3 400 117 b 418 439 408 240 418 376 b 390 469 418 456 407 469 b 358 440 374 469 358 457 b 171 56 360 272 256 56 b 118 185 124 56 118 144 b 149 432 118 274 138 372 z m 19 -376 b -56 -311 -18 -376 -56 -356 b 207 -139 -56 -212 92 -139 b 279 -147 231 -139 260 -142 b 19 -376 225 -286 115 -376 z m 367 651 b 333 717 368 681 368 717 b 303 686 317 717 303 703 b 306 664 303 683 306 668 b 339 592 306 626 306 592 b 369 622 356 592 369 606 b 367 642 369 625 367 639 z m 217 651 b 183 717 218 681 218 717 b 153 686 167 717 153 703 b 156 664 153 683 156 668 b 189 592 156 626 156 592 b 219 622 206 592 219 606 b 217 642 219 625 217 639 z "},"ž":{"ha":467,"x_min":0,"x_max":0,"o":"m 340 461 b 299 454 333 457 318 454 b 224 463 288 454 256 458 b 150 471 192 467 161 471 b 56 410 78 471 56 424 b 88 379 56 393 71 379 b 115 397 99 379 110 385 b 150 413 119 406 125 413 b 301 399 171 413 274 399 b 196 269 269 363 224 308 b 21 54 150 204 104 140 b 14 32 17 49 14 42 b 44 3 14 17 28 3 b 56 4 50 3 54 3 b 154 19 90 15 122 19 b 264 6 193 19 229 13 b 343 -4 292 1 318 -4 b 449 88 404 -4 449 28 b 414 125 449 103 444 132 b 388 94 397 124 388 111 b 343 53 388 68 386 53 b 274 63 324 53 300 57 b 104 68 231 71 156 78 b 244 235 135 97 210 186 b 392 419 285 292 326 349 b 399 442 396 426 399 433 b 364 472 399 446 397 472 b 344 465 356 472 349 469 z m 256 539 b 390 626 269 539 360 607 b 404 651 399 632 404 642 b 376 675 404 661 393 675 b 356 671 369 675 361 674 b 261 599 325 650 299 625 b 157 688 238 622 179 688 b 125 664 139 688 125 675 b 140 638 125 653 131 643 b 238 544 181 613 199 583 b 256 539 240 542 246 539 z "},"∆":{"ha":899,"x_min":0,"x_max":0,"o":"m 44 0 l 853 0 l 853 50 l 483 853 l 417 853 l 44 50 z m 103 46 l 351 585 b 444 796 378 646 431 757 l 450 796 b 556 558 469 742 529 621 l 789 46 z "},"Ω":{"ha":1028,"x_min":0,"x_max":0,"o":"m 299 46 l 78 46 l 78 0 l 394 0 l 394 33 b 156 426 276 92 156 233 b 517 794 156 622 297 794 b 871 429 747 794 871 594 b 632 33 871 225 750 92 l 632 0 l 949 0 l 949 46 l 726 46 l 726 49 b 929 435 825 111 929 249 b 517 840 929 646 761 840 b 97 431 288 840 97 671 b 299 49 97 253 192 122 z "},"π":{"ha":767,"x_min":0,"x_max":0,"o":"m 732 564 l 739 611 l 196 611 b 14 582 99 611 50 599 l 26 544 b 197 564 56 556 96 564 b 88 0 188 390 143 119 l 146 0 b 256 564 199 103 246 399 l 550 564 l 550 172 b 572 0 550 58 561 17 l 629 0 b 608 183 619 31 608 69 l 608 564 z "},"€":{"ha":865,"x_min":0,"x_max":0,"o":"m 342 300 b 528 308 415 304 475 308 b 583 333 558 308 583 303 b 553 364 583 350 571 364 b 371 358 510 365 440 364 l 275 351 b 149 346 232 349 186 346 b 146 399 146 363 146 381 l 146 422 b 261 425 178 422 225 424 l 383 432 b 583 440 457 436 531 440 b 639 465 614 440 639 435 b 608 496 639 482 626 496 b 413 490 565 497 482 494 l 303 483 b 153 478 256 481 194 478 b 501 814 181 644 297 794 b 499 778 500 803 499 790 b 667 569 499 661 544 569 b 825 707 761 569 825 629 b 589 876 825 813 750 876 b 719 951 619 932 669 951 b 768 946 728 951 761 946 b 799 974 785 946 799 956 b 719 1011 799 1008 749 1011 b 518 875 633 1011 554 963 b 90 479 261 867 118 689 b 67 482 82 481 74 481 b 51 485 61 482 56 483 l 46 485 b 14 454 29 485 14 471 b 85 422 14 432 39 425 l 85 399 b 86 347 85 381 85 364 b 51 353 71 349 60 350 l 46 353 b 14 322 29 353 14 339 b 96 290 14 296 38 290 b 474 -19 133 108 267 -19 b 803 147 707 -19 803 125 b 774 179 803 165 789 179 b 747 165 764 179 753 174 b 474 40 693 86 597 40 b 158 290 303 40 193 144 b 233 293 182 290 207 292 l 342 300 z m 667 629 b 561 778 599 629 561 688 b 565 819 561 793 563 807 b 761 707 676 819 761 790 b 667 629 761 682 740 629 z "},"℮":{"ha":1035,"x_min":0,"x_max":0,"o":"m 993 399 l 993 411 b 517 840 993 647 781 840 b 40 411 253 840 40 647 b 517 -17 40 174 253 -17 b 893 149 669 -17 808 49 l 825 149 b 517 7 750 63 640 7 b 225 133 403 7 300 56 b 215 160 219 142 215 150 l 215 394 b 221 399 215 397 218 399 z m 818 429 b 814 422 818 426 817 422 l 221 422 b 215 429 218 422 215 426 l 215 660 b 226 689 215 671 219 681 b 517 814 301 765 404 814 b 807 692 631 814 732 765 b 818 664 814 685 818 675 z "},"∂":{"ha":732,"x_min":0,"x_max":0,"o":"m 139 814 b 326 874 176 842 238 874 b 601 475 467 874 601 728 b 600 407 601 456 601 426 l 599 407 b 347 553 578 444 490 553 b 61 260 199 553 61 439 b 315 -14 61 136 139 -14 b 658 469 551 -14 658 235 b 329 918 658 763 497 918 b 113 850 225 918 157 885 z m 318 31 b 118 264 197 31 118 136 b 353 507 118 401 228 507 b 589 344 478 507 565 404 b 319 31 567 181 469 31 z "},"∏":{"ha":954,"x_min":0,"x_max":0,"o":"m 919 775 l 919 825 l 35 825 l 35 775 l 199 775 l 199 -114 l 254 -114 l 254 775 l 699 775 l 699 -114 l 756 -114 l 756 775 z "},"∑":{"ha":763,"x_min":0,"x_max":0,"o":"m 726 -114 l 726 -61 l 113 -61 l 113 -57 l 493 358 l 135 771 l 135 775 l 710 775 l 710 825 l 47 825 l 47 788 l 424 353 l 29 -76 l 29 -114 z "},"∙":{"ha":181,"x_min":0,"x_max":0,"o":"m 64 321 b 97 286 61 301 75 286 b 132 311 115 286 129 296 l 139 358 b 110 393 140 375 129 390 b 69 368 89 396 72 385 z "},"√":{"ha":757,"x_min":0,"x_max":0,"o":"m 757 975 l 708 975 l 439 -56 b 422 -124 435 -76 426 -103 l 421 -124 b 401 -56 415 -101 408 -76 l 203 443 l 47 383 l 64 344 l 167 382 l 393 -182 l 453 -182 z "},"∞":{"ha":1031,"x_min":0,"x_max":0,"o":"m 960 343 b 775 536 960 456 890 536 b 522 371 668 536 599 456 b 272 536 450 450 372 536 b 71 338 157 536 71 451 b 263 143 71 232 158 143 b 518 307 372 143 446 229 b 764 143 613 208 676 143 b 960 342 865 143 960 222 z m 269 188 b 119 336 178 188 119 254 b 260 496 119 418 171 496 b 493 338 361 496 431 408 b 271 188 435 281 363 188 z m 769 496 b 913 339 849 496 913 440 b 771 188 913 264 861 188 b 546 343 696 188 639 246 b 768 496 596 389 672 496 z "},"∫":{"ha":444,"x_min":0,"x_max":0,"o":"m 429 982 b 360 1001 417 990 386 1001 b 256 961 324 1001 288 992 b 188 719 204 917 188 843 b 207 107 188 540 207 289 b 153 -111 207 -25 182 -78 b 89 -137 136 -128 111 -137 b 22 -119 60 -137 33 -125 l 8 -160 b 90 -182 22 -169 58 -182 b 199 -135 132 -182 174 -165 b 260 104 228 -99 260 -32 b 242 714 260 286 242 532 b 293 933 242 828 256 894 b 363 958 313 953 343 958 b 415 942 381 958 404 951 z "},"≈":{"ha":785,"x_min":0,"x_max":0,"o":"m 685 513 b 547 413 643 444 606 413 b 410 458 490 413 458 435 b 253 517 369 478 318 517 b 72 399 178 517 114 475 l 100 375 b 242 475 136 428 176 475 b 376 431 290 475 335 453 b 543 372 447 394 485 372 b 711 488 629 372 676 426 z m 685 297 b 549 199 643 229 607 199 b 410 244 490 199 456 221 b 251 301 368 265 319 301 b 72 185 178 301 114 261 l 100 161 b 243 261 136 213 175 261 b 376 217 290 261 335 238 b 543 158 446 181 485 158 b 711 272 629 158 676 211 z "},"≠":{"ha":785,"x_min":0,"x_max":0,"o":"m 544 625 l 510 643 l 432 482 l 71 482 l 71 440 l 413 440 l 313 233 l 71 233 l 71 192 l 293 192 l 222 44 l 257 25 l 336 192 l 713 192 l 713 233 l 356 233 l 457 440 l 713 440 l 713 482 l 476 482 z "},"≤":{"ha":785,"x_min":0,"x_max":0,"o":"m 708 90 l 708 142 l 132 407 l 132 410 l 708 672 l 708 724 l 81 429 l 81 385 z m 711 -6 l 711 35 l 71 35 l 71 -6 z "},"≥":{"ha":785,"x_min":0,"x_max":0,"o":"m 81 724 l 81 672 l 656 408 l 656 406 l 81 142 l 81 90 l 708 385 l 708 429 z m 711 -6 l 711 35 l 72 35 l 72 -6 z "},"◊":{"ha":760,"x_min":0,"x_max":0,"o":"m 681 413 l 403 888 l 356 888 l 78 413 l 356 -62 l 401 -62 z m 625 411 l 407 36 b 382 -17 397 19 386 -1 l 378 -17 b 353 36 375 -3 365 13 l 132 414 l 349 786 b 376 842 360 806 369 824 l 378 842 b 404 786 383 828 394 804 z "},"ˉ":{"ha":329,"x_min":0,"x_max":0,"o":"m 256 660 b 167 650 222 653 194 650 b 64 656 149 650 79 656 b 33 626 47 656 33 640 b 64 603 33 614 47 603 b 167 597 82 603 151 597 b 271 610 197 597 232 600 b 294 639 285 611 294 624 b 256 660 294 650 276 665 z "},"­":{"ha":426,"x_min":0,"x_max":0,"o":"m 238 300 b 378 339 306 297 378 301 b 347 369 378 354 364 369 b 338 367 343 369 340 368 b 238 360 318 361 278 360 l 138 361 b 47 325 81 361 47 361 b 83 299 47 307 64 292 b 138 301 94 301 114 301 z "},"Ω":{"ha":1028,"x_min":0,"x_max":0,"o":"m 299 46 l 78 46 l 78 0 l 394 0 l 394 33 b 156 426 276 92 156 233 b 517 794 156 622 297 794 b 871 429 747 794 871 594 b 632 33 871 225 750 92 l 632 0 l 949 0 l 949 46 l 726 46 l 726 49 b 929 435 825 111 929 249 b 517 840 929 646 761 840 b 97 431 288 840 97 671 b 299 49 97 253 192 122 z "}," ":{"ha":236,"x_min":0,"x_max":0,"o":""},"ℓ":{"ha":642,"x_min":0,"x_max":0,"o":"m 572 168 b 374 33 540 107 468 33 b 203 238 290 33 203 92 l 203 264 b 497 721 378 417 497 564 b 339 910 497 819 449 910 b 149 631 256 910 149 853 l 149 286 b 43 203 117 258 81 233 l 65 165 b 149 229 93 186 124 211 l 149 215 b 364 -11 153 103 217 -11 b 607 143 468 -11 550 42 z m 203 640 b 335 865 203 811 279 865 b 450 714 421 865 450 799 b 203 322 450 578 339 453 z "},"μ":{"ha":531,"x_min":0,"x_max":0,"o":"m 193 447 b 161 479 193 464 179 479 b 133 460 150 479 139 471 b 104 289 125 442 119 394 b 6 -207 82 131 51 -106 b 4 -219 6 -211 4 -215 b 35 -250 4 -236 18 -250 b 63 -232 46 -250 57 -244 b 129 57 92 -169 111 -53 b 219 -7 153 0 189 -7 b 374 118 285 -7 339 47 b 419 -1 375 83 381 -1 b 451 31 438 -1 451 13 b 447 44 451 35 450 39 b 435 129 438 65 435 94 b 469 389 435 199 443 250 b 475 429 469 394 475 426 b 449 458 475 444 464 456 b 414 433 432 463 417 451 b 219 54 371 200 297 54 b 163 182 175 54 163 118 b 193 443 163 249 179 354 z "},"∕":{"ha":507,"x_min":0,"x_max":0,"o":"m 0 8 b 18 -22 0 -6 8 -18 b 51 0 31 -26 47 -17 b 349 589 86 146 226 383 b 497 838 414 697 464 781 b 507 863 504 849 507 858 b 483 892 507 878 496 892 b 456 875 472 892 463 886 b 303 618 428 831 368 729 b 0 15 172 396 39 169 z "},"‐":{"ha":426,"x_min":0,"x_max":0,"o":"m 238 300 b 378 339 306 297 378 301 b 347 369 378 354 364 369 b 338 367 343 369 340 368 b 238 360 318 361 278 360 l 138 361 b 47 325 81 361 47 361 b 83 299 47 307 64 292 b 138 301 94 301 114 301 z "}}}
